<svg xmlns="http://www.w3.org/2000/svg" width="20" height="24" viewBox="0 0 20 24" fill="none">
  <path d="M14.5541 4.78776C14.4867 4.86389 14.6384 4.71163 14.5541 4.78776V4.78776ZM13.9472 18.2375C13.9557 18.2037 13.9304 18.136 13.9219 18.1868C13.9219 18.2206 13.9388 18.2798 13.9472 18.2375ZM2.44101 4.91464C2.48316 4.84697 2.33143 4.84697 2.33986 4.88927C2.38201 4.88927 2.39044 4.9231 2.44101 4.91464ZM8.76311 4.94002C8.82211 5.05845 9.134 5.04153 9.14243 4.88927C9.11715 4.77084 8.77154 4.79622 8.76311 4.94002ZM10.1287 5.0669C10.1793 4.80468 9.77464 4.80468 9.79993 5.04153C9.85051 5.1092 10.0612 5.1092 10.1287 5.0669ZM7.54927 14.2534C7.58298 14.2618 7.59984 14.2872 7.65042 14.2787C7.65042 14.2449 7.65885 14.2195 7.67571 14.2026C7.62513 14.1434 7.57455 14.1942 7.54927 14.2534ZM10.6597 6.9448C10.5923 6.96172 10.5923 6.91096 10.5333 6.91942C10.5164 7.05477 10.331 7.02093 10.331 7.17319C10.4237 7.19011 10.626 7.11398 10.685 7.02093C10.6597 7.01247 10.6597 6.97864 10.6597 6.9448ZM11.0138 8.41666C10.9548 8.41666 10.9379 8.37437 10.862 8.39129C10.7609 8.5943 10.7946 8.9665 10.8368 9.22873C10.9548 9.2541 11.0475 9.19489 11.0896 9.10184C11.1234 9.02571 11.0644 8.93266 11.0644 8.79732C11.0644 8.5943 11.1065 8.50971 11.0138 8.41666ZM12.6575 7.14782C12.6659 7.06323 12.6491 7.00401 12.6322 6.9448H12.5311C12.4721 7.02939 12.5226 7.18165 12.6575 7.14782ZM12.2276 7.2747C12.118 7.33391 12.1518 7.53693 12.1012 7.65535C12.0337 7.6046 11.9073 7.66381 11.8483 7.70611C11.8567 7.95142 11.941 8.10368 11.8989 8.28978C11.764 8.17981 11.9326 7.85837 11.646 7.85837C11.4858 7.89221 11.6038 8.20519 11.4943 8.28978C11.4858 8.17981 11.4521 8.09522 11.3425 8.08676C11.1402 8.13752 11.2498 8.34899 11.2667 8.51817C11.3004 8.77194 11.2245 9.05955 11.3172 9.20335H11.6966C11.7893 9.13568 11.7724 8.95804 11.8736 8.89883C11.9242 8.95804 11.9579 9.03417 12.0759 9.02571C12.2866 8.93266 12.0927 8.5943 12.2276 8.44204C12.236 8.58584 12.2023 8.77194 12.2782 8.84807C12.3709 8.84807 12.4215 8.80578 12.4805 8.77194C12.4636 8.19673 12.5901 7.54539 12.2276 7.2747ZM11.8989 8.74656C11.823 8.6366 11.8736 8.51817 11.8736 8.36591C11.9663 8.42512 11.9494 8.68735 11.8989 8.74656ZM9.90108 9.12722C9.96852 9.1526 9.98538 9.22873 10.0781 9.22873C10.2045 9.20335 10.2383 9.00879 10.1793 8.87345C9.99381 8.72119 9.90108 8.9242 9.90108 9.12722ZM10.0022 6.69103C9.97695 6.50493 9.85051 6.43726 9.77464 6.31038C9.62291 6.29346 9.53862 6.34421 9.52176 6.46264C9.67349 6.53877 9.83365 6.72487 10.0022 6.69103ZM10.4574 8.61968C10.2888 8.57738 10.3563 8.86499 10.3563 8.94958C10.3563 9.05955 10.2804 9.19489 10.3816 9.27948C10.8115 9.28794 10.6766 8.67043 10.4574 8.61968ZM9.59762 9.22873C9.67349 9.26256 9.74936 9.28794 9.82522 9.2541C9.86737 9.16951 9.85051 9.05955 9.79993 9.00033C9.62291 8.9665 9.58077 9.05955 9.59762 9.22873ZM18.4486 12.9084C18.2041 12.8153 17.9934 12.6885 17.8922 12.4516C17.7573 12.4347 17.6393 12.4008 17.5635 12.3247C17.5045 12.257 17.5888 12.1978 17.5635 12.0963C17.3443 12.0033 17.2516 11.7833 17.0071 11.7157C16.9565 11.6818 16.965 11.5888 16.9313 11.538C16.7374 11.4704 16.5941 11.3519 16.4761 11.2081C16.24 11.225 16.2148 11.0305 16.0715 10.9544C15.9787 10.9628 15.9029 10.9544 15.8439 10.929C15.7596 10.7852 15.6163 10.7006 15.5151 10.5737C15.5488 10.5314 15.5825 10.4891 15.5657 10.3961C15.3381 10.3284 15.3297 10.0408 14.9588 10.1169C14.9756 10.0239 15.0852 10.0239 15.0599 9.88853C14.8323 9.83777 14.5963 9.88007 14.453 9.71089C14.3434 9.69397 14.2844 9.72781 14.2001 9.73627C14.2254 9.60938 14.1495 9.584 14.099 9.53325C13.8376 9.50787 13.7281 9.82086 13.5173 9.8124C13.3572 9.80394 13.1717 9.55863 13.0874 9.4825C13.2644 8.89037 13.6943 8.55201 13.9978 8.08676C13.9809 7.88375 14.1158 7.83299 14.1748 7.70611C14.1748 7.53693 14.1664 7.35929 14.2001 7.22395C14.4277 7.02939 14.9588 7.02939 14.807 6.53877C14.9588 6.34421 15.2285 6.26808 15.3887 6.08198C15.5488 5.89589 15.6247 5.63366 15.7933 5.44756C15.945 5.27838 16.2569 5.21071 16.2232 4.91464C16.1305 4.76238 15.8523 4.79622 15.7933 4.61012C15.8607 4.44094 16.0209 4.36481 16.1979 4.3056C16.3665 4.14487 16.5098 3.67963 16.2232 3.54429C16.0799 3.53583 15.8944 3.56966 15.8439 3.46816C15.8776 3.04521 16.2738 2.98599 16.4255 2.68147C16.5098 2.48691 16.4508 2.30082 16.3243 2.19931C16.122 2.14855 15.9956 2.30082 15.8439 2.22468C16.0546 1.7256 16.5772 1.53951 16.5266 0.778198C16.2653 0.228364 15.8354 0.812034 15.4645 0.905083C15.2369 0.786657 15.5825 0.406002 15.5151 0.169151C15.4392 -0.126914 15.0178 -2.88961e-05 15.0599 0.321413C14.9841 0.397543 14.8323 0.397543 14.7565 0.473674C14.6132 0.744362 14.5794 1.12502 14.4783 1.438C14.4699 1.55642 14.5963 1.53951 14.5794 1.66639C14.4783 1.90324 14.7059 2.18239 14.5289 2.35157C14.5963 2.45308 14.6722 2.54613 14.7059 2.68147C14.6637 2.76606 14.6132 2.84219 14.6047 2.96062C14.6553 3.05367 14.7565 3.09596 14.7817 3.21439C14.748 3.31589 14.6047 3.30744 14.5794 3.4174C14.6047 3.58658 14.7312 3.65425 14.7565 3.82343C14.4951 4.00107 14.6637 4.17025 14.7817 4.33097C14.7649 4.41556 14.6216 4.37327 14.63 4.48323C14.6722 4.737 14.63 4.84697 14.5289 4.99077C14.6047 5.15149 14.5626 5.32067 14.5541 5.52369C14.453 5.56599 14.4699 5.71825 14.3266 5.80284C14.217 5.87051 14.0737 5.83667 13.9472 5.87897C13.8376 5.9128 13.7533 6.04815 13.6438 6.03123C13.4836 6.00585 13.4752 5.82821 13.4162 5.67595C13.2223 5.5829 13.1211 5.3968 12.9863 5.24454C12.8935 5.253 12.8683 5.19379 12.784 5.19379C12.6491 4.95694 12.3119 4.9231 12.1012 4.76238V4.4071C12.3541 4.2633 12.4468 3.95878 12.8092 3.92494C13.3234 3.54429 12.5648 2.7999 12.1518 3.21439C12.3035 3.62042 12.1939 4.01799 11.7977 4.0772C11.5533 3.94186 11.5954 3.51891 11.469 3.26514C11.351 3.20593 11.1992 3.26514 11.0644 3.26514V3.13826C10.8873 3.11288 10.8705 2.85911 10.685 2.83373C10.5333 2.81681 10.4911 2.9014 10.331 2.96062C10.2214 2.88449 10.1455 2.77452 10.1034 2.63072C9.61448 2.35157 9.49647 2.87603 9.31945 3.11288C9.04128 3.05367 8.97384 2.58842 8.66195 2.63072C8.50179 2.65609 8.51022 2.82527 8.33321 2.88449C7.99603 2.78298 7.86959 3.02829 7.75157 3.21439C7.65042 3.1298 7.49869 3.1298 7.37225 3.18901C7.33853 3.2736 7.30481 3.35819 7.27109 3.44278C7.07722 3.70501 6.89177 3.97569 6.6136 4.15333C6.5293 4.08566 6.47872 3.98415 6.41129 3.89956C6.41129 3.70501 6.50401 3.4174 6.46186 3.18901C6.28485 3.01983 5.8128 3.09596 5.70321 3.29052C5.73693 3.55275 5.7285 3.76422 5.85494 3.95032C5.88866 4.00107 5.98139 4.02645 6.03196 4.0772C6.14997 4.19563 6.31013 4.33943 6.386 4.45786C6.5293 4.67779 6.45344 4.88081 6.33542 5.09228C6.12469 5.24454 5.83808 5.15149 5.62735 5.21917C5.56834 5.23608 5.50091 5.32067 5.42504 5.37143C5.35761 5.42218 5.24802 5.45602 5.19745 5.49831C4.98671 5.68441 4.90242 6.06507 4.6411 6.15811C4.57367 5.84513 4.17748 5.70979 4.23649 5.34605C4.26178 5.18533 4.43879 5.12612 4.43879 4.88927C4.43037 4.80468 4.27021 4.87235 4.23649 4.81313C4.28706 4.69471 4.40508 4.64395 4.41351 4.48323C4.39665 4.39864 4.32078 4.37327 4.31235 4.28022C4.34607 4.17871 4.52309 4.11104 4.43879 3.97569C4.39665 3.8911 4.23649 4.05183 4.2112 3.92494C4.21963 3.77268 4.36293 3.73884 4.38822 3.59504C4.40508 3.50199 4.32921 3.40894 4.33764 3.31589C4.3545 3.19747 4.47251 3.18055 4.46408 3.06212C4.4388 2.98599 4.3545 2.96908 4.36293 2.85911C4.40508 2.76606 4.47251 2.69839 4.51466 2.60534C4.45565 2.46154 4.34607 2.36849 4.38822 2.12318C4.37979 2.03859 4.25335 2.07242 4.26178 1.97091C4.48937 1.77636 4.36293 1.51413 4.41351 1.18423C4.36293 1.07426 4.22806 1.04889 4.18591 0.93046C4.28706 0.67669 3.99203 0.642854 3.83187 0.575182C3.81501 0.279118 3.51998 -0.0084879 3.27553 0.219905C3.18281 0.312954 3.23338 0.473674 3.1238 0.549805C2.53374 0.482133 2.53374 0.964296 2.59274 1.438C2.73604 1.56488 2.81191 1.75944 2.8962 1.94554C2.81191 1.954 2.7529 1.93708 2.6939 1.92016C2.22185 2.25006 2.8372 2.73222 2.92149 3.11288C2.90463 3.12134 2.8962 3.13826 2.8962 3.16363C2.33986 3.17209 2.33143 3.53583 2.54217 3.92494C2.66018 4.01799 2.76976 4.1195 2.79505 4.3056C2.73604 4.45786 2.60117 4.53399 2.49159 4.6355C2.42415 4.90618 2.57588 5.01615 2.6939 5.16841C2.8372 5.20225 2.84563 5.20225 2.94678 5.2953C3.0395 5.37989 3.04793 5.44756 3.1238 5.54907C3.16595 5.60828 3.20809 5.64212 3.22495 5.67595C3.25024 5.71825 3.25024 5.79438 3.27553 5.82821C3.38511 5.97202 3.58742 5.96356 3.62957 6.15811C3.30925 6.63182 3.89931 6.91096 4.05947 7.22395C4.01732 7.42696 3.89088 7.56231 3.95832 7.80762C4.00889 7.84145 4.05104 7.88375 4.08476 7.9345C4.1269 8.17135 4.31235 8.2644 4.43879 8.41666V8.61968C4.51466 8.74656 4.62424 8.75502 4.71697 8.84807C4.86027 9.00033 4.87713 9.22873 4.99514 9.40636C5.08786 9.55017 5.2986 9.61784 5.2986 9.8124C5.17216 9.99849 5.06257 10.2269 4.84341 10.3199C4.75911 10.3622 4.64953 10.3115 4.56524 10.3961C4.43037 10.3622 4.41351 10.21 4.26178 10.1931C4.17748 10.2607 4.32921 10.4214 4.2112 10.4468C4.02575 10.4299 3.97517 10.2776 3.83187 10.2184C3.66328 10.2607 3.61271 10.3453 3.40197 10.2946C3.29239 10.3791 3.24181 10.523 3.04793 10.523C2.9805 10.6075 3.01422 10.7175 2.99736 10.8021C2.82877 10.9967 2.36515 10.8951 2.31457 11.2081C2.12912 11.2504 2.07855 11.4281 1.93524 11.5127C1.87624 11.5211 1.83409 11.5465 1.78351 11.5634C1.69922 11.7241 1.6065 11.8764 1.40419 11.9187C1.33675 12.1471 1.1513 12.257 1.12602 12.5277C1.03329 12.57 0.940568 12.6123 0.822556 12.6292C0.805697 12.7138 0.746691 12.7561 0.771979 12.883C0.670826 12.9676 0.535954 13.0184 0.44323 13.1114C0.460089 13.4244 0.148199 13.4413 0.240923 13.7712C0.0976222 13.8727 -0.104685 14.0842 0.0639044 14.2787C0.00489817 14.3464 0.0133276 14.4056 0.038616 14.5071C0.0976222 14.541 0.224064 14.5071 0.240923 14.5833C0.232494 14.8201 0.215635 15.2092 0.266211 15.4207C0.299929 15.5645 0.299929 15.7591 0.342077 15.8521C0.44323 16.0551 0.729832 16.3004 0.999575 16.1059C0.923709 15.776 0.653967 15.2938 0.898421 14.9639C1.0923 15.0908 1.21031 15.2938 1.25246 15.573C1.34518 15.6068 1.42948 15.6491 1.45477 15.7506C1.44634 15.8352 1.41262 15.8944 1.42948 16.0044C1.58121 16.1313 1.64021 16.1228 1.85938 16.0044C2.07012 15.8944 2.27242 15.7252 2.13755 15.4715C2.02797 15.4038 1.96896 15.5053 1.83409 15.4968C1.63178 15.3277 1.54749 15.0739 1.40419 14.8624C1.33675 14.7609 1.2356 14.7017 1.20188 14.5833C1.21031 14.4648 1.34518 14.4733 1.40419 14.4056C1.39576 14.2534 1.5222 14.2364 1.55592 14.1265C1.57278 13.9996 1.55592 13.9911 1.55592 13.8473C1.71608 13.7627 1.71608 13.5174 1.85938 13.4159V13.1622C1.9521 13.1706 1.97739 13.1114 2.06169 13.1114C2.07855 13.0268 2.13755 12.9845 2.11226 12.8576C2.27242 12.8069 2.28928 12.68 2.36515 12.5531C2.39886 12.4939 2.47473 12.4431 2.49159 12.4008C2.52531 12.3332 2.50845 12.2401 2.54217 12.1725C2.59274 12.0794 2.70233 12.0371 2.76976 11.9441C2.92149 11.7326 2.93835 11.3942 3.22495 11.3604C3.32611 11.4873 3.33454 11.6311 3.47784 11.6903C3.61271 11.741 3.81501 11.6142 3.88245 11.7918C3.97517 11.7749 4.05104 11.741 4.11005 11.6903C4.13533 11.7495 4.11848 11.851 4.2112 11.8426C4.44722 11.9018 4.36293 11.6395 4.53995 11.6395C4.53152 11.7749 4.31235 11.8087 4.41351 11.9694C4.51466 12.0287 4.54838 11.9187 4.66639 11.9187C4.73383 12.1048 4.79283 12.4008 4.79283 12.6292C4.79283 12.773 4.75068 13.0268 4.69168 13.1114C4.55681 13.2975 4.30392 13.196 4.13533 13.3652V13.6189C3.97517 13.7035 3.78973 13.8304 3.90774 14.0503C3.82344 14.1349 3.697 14.1772 3.62957 14.2787C3.60428 14.4056 3.68857 14.4225 3.68014 14.5325C3.54527 14.6679 3.23338 14.7524 3.37668 15.0147C3.25867 15.1923 3.02265 15.2515 3.07322 15.5983C3.01422 15.6914 2.92149 15.7506 2.94678 15.9282C3.31768 16.1566 3.1238 16.5373 3.04793 16.9433C2.98893 17.2563 2.97207 17.5777 2.94678 17.8569C2.99736 17.933 3.03108 18.0261 3.07322 18.1107C2.99736 18.3391 3.22495 18.3898 3.17438 18.669C3.23338 18.762 3.30082 18.8466 3.35139 18.9481C3.13223 19.2019 3.40197 19.4641 3.52841 19.6079C3.54527 19.7686 3.43569 19.8025 3.45255 19.9632C3.46098 20.0647 3.58742 20.0478 3.60428 20.1408C3.57056 20.3269 3.4947 20.4707 3.47784 20.6737C3.51998 20.7583 3.61271 20.8345 3.62957 20.9529C3.64643 21.0882 3.5537 21.2236 3.57899 21.3589C3.62114 21.6042 3.83187 21.7057 3.85716 21.9426C4.14376 22.1879 4.3545 22.5093 4.6411 22.7546C4.96985 22.8223 5.33232 23.1522 5.70321 22.9323C5.64421 22.5855 5.24802 22.577 5.04572 22.374C5.02886 22.2302 4.88556 22.2133 4.8687 22.0695C5.08786 21.9595 5.32389 22.1541 5.57677 22.2217C5.72007 22.2556 5.92238 22.2471 6.08254 22.3232C6.20055 22.3825 6.25113 22.5178 6.41129 22.4755C6.60517 22.4163 6.63888 21.7227 6.36071 21.6888C6.26799 21.6804 6.23427 21.7734 6.13312 21.8157C5.66107 22.0103 5.41661 21.6211 5.09629 21.5112C5.02886 21.452 4.81812 21.5366 4.79283 21.435C4.88556 21.1136 4.75911 20.7076 4.66639 20.42C4.68325 20.3354 4.73383 20.2846 4.74226 20.1916C4.59895 19.794 4.69168 19.3034 4.46408 19.0242C4.47251 18.965 4.50623 18.9312 4.48937 18.8466C4.33764 18.6013 4.22806 18.3137 4.00889 18.136C4.03418 17.8907 3.91617 17.7892 3.83187 17.6539C3.83187 17.5947 3.87402 17.5777 3.85716 17.5016C3.68857 17.3155 3.73072 17.0702 3.75601 16.8418C3.77287 16.7149 3.697 16.5542 3.80659 16.4865C3.90774 16.9179 4.41351 16.605 4.36293 16.2328C4.45565 16.2328 4.43879 16.3427 4.56524 16.3089C4.71697 16.1905 4.54838 15.8944 4.6411 15.6999C4.73383 15.7083 4.76754 15.776 4.84341 15.8014C4.91084 15.7506 4.91084 15.6322 4.94456 15.5476C5.02043 15.556 4.97828 15.6829 5.09629 15.6491C5.14687 15.5814 5.14687 15.463 5.22273 15.4207C5.39975 15.7252 5.47562 16.0382 5.60206 16.3597C5.72007 16.6726 5.90552 16.9433 6.10783 17.121C6.47029 17.4424 6.94234 17.5101 7.57455 17.5524C7.81058 17.5693 8.03817 17.6539 8.23205 17.6539C8.53551 17.6539 8.72096 17.6962 8.96542 17.8315C9.04971 18.0007 9.2183 18.1445 9.42061 18.1107C9.54705 18.0937 9.67349 17.9076 9.77464 17.8569C9.85894 17.8146 9.96852 17.8146 10.0781 17.7808C10.1708 17.7554 10.2636 17.6962 10.3563 17.6793C10.5249 17.6454 10.7103 17.6793 10.8873 17.6539C11.0812 17.6285 11.3004 17.5016 11.5195 17.4509C11.7809 17.3832 11.9494 17.3409 12.1518 17.2478C12.2866 17.1802 12.4468 17.104 12.5311 17.0448C12.8683 16.808 13.0284 16.3427 13.1886 15.979C13.2813 15.7675 13.3234 15.5222 13.4415 15.3192C13.5258 15.3784 13.5173 15.5307 13.6438 15.5476C13.7281 15.5138 13.7365 15.4038 13.7955 15.3446C13.9051 15.5307 13.9135 15.8183 14.0484 15.979C14.2001 16.0128 14.1917 15.8859 14.276 15.8521C14.335 15.979 14.3518 16.1482 14.5036 16.182C14.6469 16.1566 14.571 15.9536 14.6047 15.8775C14.7143 15.9959 14.6637 16.2751 14.8576 16.3089C14.9672 16.2751 14.9503 16.1143 15.0599 16.0805C15.1442 16.089 15.1948 16.1905 15.2116 16.2581C15.2707 16.5119 15.1189 16.6134 15.0852 16.7657C15.0683 16.8503 15.1021 16.9179 15.0852 16.9687C15.0009 17.2225 14.7312 17.417 14.7312 17.6793C14.571 17.8315 14.335 17.9076 14.3013 18.1868C14.2928 18.2883 14.394 18.2798 14.3771 18.3898C14.3434 18.559 14.2423 18.6774 14.3013 18.872C14.2507 19.0412 14.0568 19.1427 14.099 19.3288C14.1833 19.4133 14.3266 19.3118 14.4024 19.4303C14.4024 19.6417 14.2507 19.701 14.2001 19.8617C14.217 19.9716 14.3013 20.0139 14.3266 20.1154C14.2844 20.2508 14.1495 20.2931 14.1495 20.4707C14.1411 20.5807 14.2675 20.5553 14.276 20.6484C14.1411 20.8683 14.4024 20.9867 14.3266 21.2066C14.2423 21.2997 14.1327 21.2405 14.0231 21.2828C13.8967 21.3251 13.7955 21.4435 13.6691 21.5112C13.4752 21.6127 13.1886 21.7396 12.9863 21.7142C12.7924 21.6888 12.5985 21.4097 12.4046 21.6634C12.2782 22.3063 12.843 22.7039 13.2139 22.2471C13.3656 22.2217 13.4499 22.0948 13.5932 22.0187C13.7618 21.9257 13.9725 21.9087 14.1495 21.8411C14.2507 21.8072 14.335 21.6719 14.453 21.7396C14.4193 22.0695 14.1833 22.1202 13.9725 22.2979C13.8714 22.3825 13.8039 22.4755 13.7196 22.5263C13.5848 22.6024 13.374 22.6024 13.3656 22.8054C13.61 23.0338 14.04 22.7039 14.3266 22.6531C14.6216 22.3232 15.0431 22.1202 15.1864 21.6381C15.5825 21.4689 15.3718 21.0459 15.3887 20.5215C15.3971 20.2762 15.4645 20.1408 15.3887 19.9886C15.4814 19.8363 15.5573 19.6164 15.4645 19.4049C15.4814 19.3118 15.5657 19.2865 15.5657 19.1765C15.5404 19.0073 15.414 18.9396 15.4392 18.7197C15.4898 18.6436 15.5994 18.6267 15.6415 18.5421C15.6584 18.4236 15.6163 18.3644 15.6163 18.2629C15.8944 17.933 15.7511 17.2732 15.9197 16.8926C15.8439 16.7657 15.8944 16.6896 15.8944 16.5627C15.8944 16.4612 15.827 16.3343 15.8439 16.2328C15.8776 15.9875 16.1389 15.8098 16.122 15.6237C16.1136 15.5138 15.9956 15.4799 15.9703 15.3699C16.1136 15.1416 15.8017 15.0231 15.8439 14.7355C15.7427 14.634 15.5488 14.6256 15.4898 14.4818C15.5235 14.4225 15.6415 14.4479 15.6163 14.3295C15.5994 14.0926 15.2538 14.1857 15.1358 14.0503C15.1864 13.9996 15.2622 13.9742 15.2369 13.8473C15.1274 13.7712 14.9335 13.7797 14.7817 13.7458C14.7143 13.7035 14.7396 13.5682 14.7059 13.4921C14.4867 13.2806 13.8967 13.6697 13.7702 13.3144C13.7955 13.2467 13.8292 13.1875 13.8461 13.1114C13.7702 12.8576 13.8714 12.6546 13.8967 12.4516C13.9219 12.2401 13.9304 11.9948 13.9219 11.7918C13.9135 11.6565 13.8124 11.4788 13.9472 11.3858C14.0737 11.4111 14.0821 11.5549 14.2254 11.5634C14.3013 11.5634 14.2507 11.4365 14.3266 11.4365C14.4108 11.4788 14.4193 11.5972 14.5794 11.5634C14.6722 11.5719 14.5879 11.4027 14.6553 11.3858C14.748 11.4027 14.7902 11.4704 14.8829 11.4873C14.984 11.3688 15.1695 11.335 15.3634 11.3096C15.4898 11.4873 15.4982 11.7833 15.768 11.8172C15.9366 12.1725 16.299 12.3332 16.4255 12.7307C16.5014 12.7646 16.6362 12.7392 16.6784 12.8069C16.7289 13.196 16.9228 13.4413 17.2094 13.5936C17.2263 13.6697 17.2516 13.7374 17.2853 13.7966C17.3612 13.8558 17.496 13.8558 17.5129 13.9742C17.2937 14.3802 16.9903 14.7017 16.6278 14.9639C16.24 14.7609 16.24 15.3277 16.5772 15.3446C16.6278 15.5222 16.6615 15.7168 16.8807 15.7252C17.0156 15.6745 17.0408 15.4715 16.9565 15.3446C17.1336 15.2092 17.2516 15.0147 17.4117 14.8624C17.5719 14.7101 17.7321 14.5494 17.9428 14.4564C18.1704 14.6932 17.8838 15.0823 18.0187 15.3446C18.6846 15.5138 18.7857 14.6594 18.7014 14.0503C18.7942 14.0165 18.8869 13.9827 18.9796 13.9488C19.0892 13.6612 18.8026 13.5936 18.8026 13.3398C18.6677 13.2129 18.516 13.1029 18.4486 12.9084ZM15.7933 3.84881C15.7596 3.89956 15.7343 3.95878 15.6415 3.95032C15.65 3.87419 15.7343 3.7896 15.7933 3.84881ZM15.7174 2.63072H15.6415V2.57996C15.6921 2.5715 15.7258 2.57996 15.7174 2.63072ZM15.6415 1.23498C15.7343 1.27728 15.5067 1.52259 15.4645 1.61564C15.3887 1.44646 15.5825 1.33649 15.6415 1.23498ZM15.2369 5.57444C15.2959 5.59136 15.2622 5.73516 15.1864 5.70133C15.1864 5.63366 15.2285 5.61674 15.2369 5.57444ZM14.9335 5.87897C14.8998 6.02277 14.807 6.10736 14.6553 6.13274C14.5541 6.01431 14.7396 5.769 14.9335 5.87897ZM6.05725 3.49353C6.1584 3.56966 5.98139 3.57812 6.05725 3.49353V3.49353ZM2.94678 1.1081C3.1238 0.998132 3.48627 1.20115 3.47784 1.36187C3.31768 1.37879 3.19123 1.34495 3.09851 1.46338C2.97207 1.42108 2.92992 1.2942 2.94678 1.1081ZM3.30082 2.32619C3.37668 2.52075 3.20809 2.63917 3.04793 2.68147C3.03107 2.64763 2.99736 2.63072 2.94678 2.63072C2.86249 2.38541 3.0395 2.2839 3.30082 2.32619ZM2.87091 3.69655C2.88777 3.5612 3.03107 3.55275 3.17438 3.54429C3.20809 3.6035 3.24181 3.66271 3.22495 3.77268C3.1238 3.82343 2.88777 3.81497 2.87091 3.69655ZM3.09851 4.50861C3.11537 4.41556 3.1238 4.31405 3.14909 4.22946C3.19123 4.28022 3.17438 4.48323 3.09851 4.50861ZM3.57899 5.19379C3.47784 5.18533 3.45255 5.10074 3.37668 5.0669C3.28396 5.04153 3.30082 5.12612 3.22495 5.11766C3.13223 5.11766 3.13223 5.02461 3.07322 4.99077C3.20809 4.88081 3.36825 4.79622 3.45255 4.6355C3.5537 4.737 3.73915 5.0669 3.57899 5.19379ZM0.519095 15.2431C0.493807 15.3277 0.493807 15.1754 0.493807 15.1416C0.527525 15.057 0.527525 15.2092 0.519095 15.2431ZM0.519095 15.0654C0.45166 15.0654 0.460089 14.9724 0.493807 14.9385C0.586531 14.9555 0.510666 14.9808 0.519095 15.0654ZM0.493807 14.4056C0.460089 14.2026 0.59496 13.9488 0.746691 13.8473C0.797267 14.0588 0.76355 14.4141 0.493807 14.4056ZM0.822556 13.6951C0.805697 13.6359 0.873133 13.6612 0.873133 13.6189C0.923709 13.6105 0.881562 13.712 0.822556 13.6951ZM0.898421 13.5936C0.873133 13.5766 0.805697 13.5343 0.822556 13.6189C0.76355 13.5682 0.881562 13.4751 0.948998 13.4667C0.940568 13.509 0.881562 13.509 0.898421 13.5936ZM0.948998 13.3905C0.982716 13.289 0.982716 13.4836 0.948998 13.3905V13.3905ZM1.96053 11.9948C1.88467 11.9694 1.98582 11.9271 1.98582 11.8933C2.07012 11.9102 1.96053 11.961 1.96053 11.9948ZM2.06169 11.8426C2.14598 11.7664 1.99425 11.9187 2.06169 11.8426V11.8426ZM3.57899 10.929C3.50312 10.9036 3.58742 10.8444 3.60428 10.8275C3.68857 10.8444 3.57899 10.8951 3.57899 10.929ZM4.03418 10.9036C4.05947 10.8106 3.99203 10.7683 4.03418 10.726C4.1269 10.7175 4.20277 10.726 4.26178 10.7513C4.2112 10.819 4.13533 10.8698 4.03418 10.9036ZM4.16062 11.1066C4.29549 10.9967 4.43037 10.5145 4.61581 10.7767C4.51466 10.9121 4.38822 11.1658 4.16062 11.1066ZM4.71697 22.3232C4.62424 22.3486 4.4978 22.2048 4.48937 22.0695C4.64953 22.0695 4.60738 22.2725 4.71697 22.3232ZM3.40197 17.8315C3.2671 17.6454 3.40197 17.4932 3.37668 17.2225C3.48627 17.3663 3.51998 17.6539 3.40197 17.8315ZM4.26178 21.5873C3.80659 21.4858 4.00046 20.5469 3.95832 20.1916H4.03418C4.13533 20.2339 4.11848 20.3777 4.13533 20.4707C4.20277 20.7668 4.36293 21.2574 4.26178 21.5873ZM4.03418 19.3795C4.04261 19.6164 4.15219 19.9378 4.03418 20.1408C3.82344 20.1154 3.91617 19.7602 3.90774 19.5064C3.90774 19.3711 3.82344 19.2611 3.88245 19.1765C3.83187 19.0496 3.697 19.0073 3.73072 18.7958C3.9246 18.8973 3.85716 19.2611 4.03418 19.3795ZM4.05947 15.3699C3.9836 15.3446 4.09319 15.3023 4.05947 15.2431C4.11847 15.2431 4.07633 15.353 4.05947 15.3699ZM4.74226 13.8473C4.70854 14.0588 4.83498 14.431 4.6411 14.4818C4.54838 14.4818 4.56524 14.3718 4.56524 14.2787C4.43879 14.4056 4.41351 14.634 4.38822 14.8624C4.30392 14.8286 4.31235 14.7017 4.23649 14.6594C4.05104 14.6932 3.99203 14.854 3.88245 14.9639C3.94146 15.1416 3.86559 15.3784 3.80659 15.5222C3.73072 15.5391 3.73072 15.4799 3.65485 15.4968C3.62957 15.7252 3.60428 15.9536 3.52841 16.1313C3.28396 15.9875 3.41883 15.6999 3.50312 15.5222C3.58742 15.3446 3.76444 15.1162 3.88245 14.9385V14.837C4.21963 14.4225 4.43037 13.8812 4.84341 13.5428C4.91084 13.6612 4.79283 13.7458 4.74226 13.8473ZM13.315 10.2438C13.3403 10.3199 13.3909 10.3707 13.3656 10.4976C13.1633 10.5399 13.1801 10.3622 13.138 10.2438H13.315ZM13.0874 11.5888C13.0453 11.5549 13.0116 11.4365 13.0621 11.3858C13.1549 11.3942 13.1043 11.5296 13.0874 11.5888ZM12.961 12.9338C12.8851 12.9338 12.902 12.7646 12.9357 12.7307C13.0621 12.7392 12.9357 12.8492 12.961 12.9338ZM12.9863 12.3501C12.8935 12.3332 12.9357 12.1217 12.9863 12.0963C13.079 12.1132 13.0453 12.3163 12.9863 12.3501ZM13.8967 6.23424C14.1917 6.25962 14.217 6.55569 14.276 6.81791C14.217 6.89405 14.1158 6.92788 13.9725 6.91942C13.9304 6.68257 13.7365 6.46264 13.8967 6.23424ZM11.4184 4.50861C11.4352 4.39864 11.4015 4.65241 11.4184 4.50861V4.50861ZM11.4437 5.0669C11.4352 5.15995 11.3594 5.18533 11.2667 5.19379C11.2751 5.09228 11.3762 5.09228 11.4437 5.0669ZM10.7356 4.12796C10.744 4.19563 10.7272 4.23792 10.6597 4.22946C10.6429 4.21255 10.6344 4.18717 10.6344 4.15333C10.6597 4.12796 10.6935 4.1195 10.7356 4.12796ZM10.5586 3.36665C10.6513 3.4597 10.4911 3.49353 10.5586 3.36665V3.36665ZM10.6597 5.11766C10.626 5.15149 10.5417 5.15149 10.508 5.11766C10.508 4.99923 10.7019 4.9231 10.6597 5.11766ZM10.4069 5.49831C10.2045 5.68441 9.85894 5.59136 9.57234 5.6252C9.30259 5.65057 8.88955 5.70133 8.58609 5.57444V5.52369C8.58609 5.49831 8.59452 5.48139 8.61138 5.47294C9.31102 5.45602 9.78307 5.65903 10.4069 5.49831ZM9.95166 3.64579C9.88423 3.56966 9.79993 3.51045 9.77464 3.39202C9.90951 3.31589 10.0612 3.54429 9.95166 3.64579ZM10.2298 4.00107C10.0865 4.14487 9.79993 4.12796 9.72407 3.95032C9.91794 3.84881 10.036 4.02645 10.2298 4.00107ZM9.31945 4.38173C9.47961 4.42402 9.37003 4.737 9.52176 4.78776C9.58077 4.77084 9.6482 4.76238 9.6482 4.68625C9.75778 4.74546 9.78307 4.81313 9.92637 4.81313C10.0612 4.81313 10.1961 4.71163 10.2804 4.88927C10.331 5.22762 10.0191 5.44756 9.67349 5.32067C9.68192 5.26146 9.75778 5.26992 9.74935 5.19379C9.72407 5.15995 9.71564 5.1092 9.6482 5.11766C9.48804 5.13458 9.60605 5.26992 9.57234 5.32067C9.32788 5.35451 9.20987 5.26146 9.11715 5.14303C9.02442 5.13458 9.03285 5.22762 8.96542 5.24454C8.8474 5.19379 8.77997 5.09228 8.71253 4.99077C8.72096 4.84697 8.80525 4.7793 8.81368 4.6355C8.94013 4.64395 9.03285 4.68625 9.11715 4.737C9.2773 4.70317 9.26045 4.50015 9.31945 4.38173ZM8.88955 4.35635C8.92327 4.37327 8.94013 4.4071 8.94013 4.45786C8.88955 4.44094 8.83897 4.4071 8.88955 4.35635ZM8.96542 4.33097C9.01599 4.32251 9.03285 4.34789 9.06657 4.35635C9.04128 4.39019 9.03285 4.44094 8.96542 4.43248C9.00756 4.38173 8.96542 4.39864 8.96542 4.33097ZM8.76311 3.62042H8.86426C8.88955 3.69655 8.80525 3.66271 8.76311 3.67117V3.62042ZM9.09186 3.95032C9.075 4.16179 8.7041 4.23792 8.61138 4.0772C8.7041 3.9334 8.96542 3.91648 9.09186 3.95032ZM8.71253 3.31589C8.65353 3.43432 8.51865 3.52737 8.58609 3.69655C8.54394 3.73038 8.53551 3.79806 8.43436 3.77268C8.35006 3.51045 8.45965 3.21439 8.71253 3.31589ZM8.38378 4.55937C8.28263 4.50861 8.18147 4.45786 8.18147 4.3056C8.31635 4.31405 8.42593 4.45786 8.38378 4.55937ZM8.20676 4.91464C8.15619 4.90618 8.15619 4.84697 8.10561 4.83851C8.13933 4.71163 8.30792 4.83005 8.20676 4.91464ZM8.38378 5.44756C8.32478 5.52369 8.21519 5.43064 8.1309 5.44756C8.08032 5.30376 7.86116 5.33759 7.72628 5.21917C7.97917 5.15995 8.17305 5.37989 8.38378 5.44756ZM7.701 4.58474C7.70943 4.6355 7.68414 4.65241 7.67571 4.68625C7.62513 4.66087 7.60827 4.56782 7.701 4.58474ZM7.54927 4.00107C7.50712 4.04337 7.36382 4.04337 7.32167 4.00107C7.24581 3.79806 7.57455 3.72193 7.54927 4.00107ZM7.11936 4.20409C7.31324 4.23792 7.52398 4.25484 7.59984 4.4071C7.43968 4.44094 7.27109 4.42402 7.11936 4.38173C7.08565 4.34789 7.08565 4.23792 7.11936 4.20409ZM7.49869 4.76238C7.49869 4.79622 7.45654 4.78776 7.42282 4.78776C7.43125 4.75392 7.4734 4.76238 7.49869 4.76238ZM6.96763 4.61012C7.03507 4.60166 7.05193 4.64395 7.0435 4.71163C6.98449 4.71163 6.96763 4.66933 6.96763 4.61012ZM3.7813 2.83373C3.80659 2.84219 3.79816 2.88449 3.83187 2.88449C3.79816 3.21439 3.94146 3.6035 3.73072 3.77268C3.62114 3.38357 3.78973 3.16363 3.7813 2.83373ZM3.75601 3.92494C3.84873 4.01799 3.68857 4.05183 3.75601 3.92494V3.92494ZM3.80659 4.12796C3.86559 4.18717 3.80659 4.25484 3.80659 4.33097C3.70543 4.33097 3.70543 4.1195 3.80659 4.12796ZM3.90774 5.24454C3.85716 5.17687 3.7813 5.09228 3.83187 4.99077C3.91617 4.9654 3.90774 5.03307 3.95832 5.04153C3.93303 5.09228 3.89931 5.14303 3.90774 5.24454ZM4.13533 6.00585C4.14376 6.06506 4.05947 6.03123 4.05947 6.08198C3.99203 6.05661 4.07633 5.97202 4.13533 6.00585ZM4.03418 6.58952C4.1269 6.49647 4.20277 6.31883 4.33764 6.33575C4.53152 6.36113 4.4978 6.64874 4.41351 6.84329C4.17748 6.86867 4.07633 6.7587 4.03418 6.58952ZM5.02043 11.7664C4.86027 11.4365 5.012 10.8444 5.14687 10.523C5.23959 10.2861 5.30703 10.1085 5.5262 10.1677C5.5262 10.4553 5.36604 10.5822 5.22273 10.726C5.22273 10.8867 5.37446 10.8951 5.37446 11.0559C5.37446 11.1658 5.25645 11.1574 5.22273 11.2335C5.20588 11.4027 5.39975 11.4365 5.2986 11.6142C5.2143 11.6649 4.99514 11.5888 5.02043 11.7664ZM5.09629 13.2129C5.04572 13.1706 5.04572 13.0776 5.04572 12.9845C5.13001 12.993 5.08786 13.1283 5.09629 13.2129ZM5.27331 12.5785C5.24802 12.3839 5.11315 12.1809 5.24802 11.9694C5.35761 12.1302 5.39132 12.3586 5.2986 12.5531C5.39975 12.7307 5.47562 12.993 5.2986 13.1622C5.23959 12.9676 5.2986 12.7646 5.27331 12.5785ZM5.39975 14.1265C5.39975 13.9827 5.29017 13.7712 5.39975 13.6697C5.45033 13.7966 5.5852 14.0503 5.39975 14.1265ZM5.57677 12.274C5.57677 12.1555 5.53462 12.0371 5.5262 11.9187C5.50934 11.4196 5.5852 10.8951 5.67793 10.4722C5.77908 10.3707 5.89709 10.3961 5.98139 10.4976C5.92238 10.8698 5.9561 11.1997 5.7285 11.4111C5.83809 11.6311 5.86337 12.1048 5.62735 12.1978C5.66107 12.3247 5.8128 12.3332 5.80437 12.5024C5.78751 12.5869 5.64421 12.5446 5.65264 12.6546C5.69478 12.7815 5.74536 12.8999 5.75379 13.0606C5.56834 13.0522 5.54305 12.8492 5.5262 12.7307C5.50934 12.5785 5.57677 12.4347 5.57677 12.274ZM5.80437 13.3652C5.77065 13.399 5.66107 13.399 5.62735 13.3652C5.63578 13.2806 5.82123 13.2383 5.80437 13.3652ZM5.62735 15.2177C5.56834 15.1923 5.57677 15.0993 5.57677 15.0147C5.66107 15.0147 5.62735 15.1331 5.62735 15.2177ZM5.67793 13.7204C5.71164 13.7458 5.74536 13.7458 5.77908 13.7204C5.76222 13.6274 5.69478 13.7204 5.65264 13.6697C5.64421 13.5513 5.71164 13.509 5.82966 13.5174C5.94767 13.712 5.93924 13.9488 5.77908 14.1011C5.62735 14.0757 5.64421 13.8558 5.67793 13.7204ZM5.9561 14.6594C5.93924 14.5325 5.84651 14.4818 5.88023 14.3041H5.98139C6.06568 14.431 5.98982 14.5663 6.00667 14.7101C6.03196 14.9555 6.17526 15.2092 6.10783 15.4715C5.94767 15.3107 5.96453 14.9385 5.9561 14.6594ZM6.05725 11.8172C6.05725 11.741 6.02353 11.6988 6.03196 11.6395C6.04039 11.5972 6.09097 11.538 6.10783 11.4619C6.17526 11.2081 6.12469 10.5991 6.43658 10.6245C6.47029 10.6583 6.47872 10.7175 6.51244 10.7513C6.51244 10.8782 6.33542 10.8275 6.31013 10.929C6.32699 11.022 6.43658 11.022 6.46186 11.1066C6.5293 11.4534 6.21741 11.5465 6.36071 11.8172C6.09097 11.9441 6.14155 12.3078 6.386 12.4262C6.41972 12.6208 6.31856 12.68 6.31013 12.8323C6.44501 13.2467 6.46186 13.8135 6.46186 14.228C6.41972 14.2703 6.31013 14.2449 6.23427 14.2534C6.20898 14.1011 6.29328 14.0588 6.33542 13.9742C6.31856 13.8558 6.18369 13.8558 6.1584 13.7458C6.14997 13.6528 6.25956 13.6782 6.25956 13.5936C6.26799 13.4836 6.12469 13.5259 6.08254 13.4667C6.07411 13.3313 6.05725 13.3144 6.08254 13.1875C6.1584 13.2214 6.26799 13.2214 6.28485 13.1368C6.28485 13.0184 6.09097 13.0945 6.05725 13.0099C5.98982 12.6631 6.07411 12.1809 6.05725 11.8172ZM6.08254 15.6491C6.18369 15.6491 6.18369 15.7506 6.18369 15.8521C6.08254 15.8521 6.08254 15.7506 6.08254 15.6491ZM6.25956 16.3597C6.21741 16.292 6.14155 16.1736 6.18369 16.1059C6.26799 16.1313 6.31856 16.2751 6.25956 16.3597ZM6.51244 14.8878C6.45344 14.8032 6.39443 14.7186 6.33542 14.634C6.44501 14.4733 6.62202 14.744 6.51244 14.8878ZM6.51244 15.3953C6.57988 15.4545 6.55459 15.5476 6.58831 15.6999C6.48715 15.6745 6.48715 15.4545 6.51244 15.3953ZM6.76533 16.7149C6.71475 16.6896 6.68946 16.6388 6.68946 16.5627C6.74847 16.5542 6.79061 16.5627 6.8159 16.588C6.80747 16.6303 6.76533 16.6473 6.76533 16.7149ZM6.89177 15.4715C6.82433 15.353 6.76533 15.1331 6.84119 15.0147C6.88334 14.9724 6.99292 14.9978 7.06879 14.9893C7.12779 14.7778 6.88334 14.8709 6.79061 14.8117C6.71475 14.3041 6.65574 13.9065 6.68946 13.4159C6.68103 13.3144 6.79904 13.3398 6.8159 13.2637C6.83276 13.1452 6.68103 13.196 6.66417 13.1114C6.58831 12.9338 6.6136 12.6885 6.63888 12.477C6.6726 12.4178 6.78218 12.4347 6.84119 12.4008C6.84962 12.2993 6.72318 12.3332 6.66417 12.2993C6.63045 11.9018 6.70632 11.2843 6.74004 10.8021C6.85805 10.7006 7.00978 10.7429 7.11936 10.8275C7.13622 11.3519 6.95077 12.0033 6.99292 12.5531C6.98449 12.6631 6.88334 12.68 6.86648 12.7815C6.86648 12.8915 7.00135 12.8661 7.01821 12.9591C7.00978 13.1368 7.02664 13.289 7.0435 13.4413C7.02664 13.5513 6.9002 13.5513 6.86648 13.6443C6.87491 13.7458 7.00135 13.7289 7.0435 13.7966C7.06879 13.8727 7.06879 13.9235 7.0435 14.025C7.00135 14.0673 6.83276 13.915 6.84119 14.1011C6.88334 14.2195 6.96763 14.0757 7.0435 14.0757C7.11093 14.2195 7.00978 14.2534 6.96763 14.3549C7.00978 14.4395 7.06036 14.2618 7.11936 14.3549C7.16994 14.5663 7.1868 14.947 7.16994 15.1416C7.11093 15.2769 6.94234 15.3107 6.89177 15.4715ZM6.66417 10.3453C6.78218 10.3199 6.76533 10.4299 6.76533 10.523C6.6726 10.523 6.68103 10.4214 6.66417 10.3453ZM6.86648 10.523C6.9002 10.4637 6.87491 10.3453 6.91706 10.2946H7.06879C7.14465 10.3876 7.19523 10.4976 7.11936 10.6245C7.00135 10.6245 6.97606 10.5314 6.86648 10.523ZM7.11936 15.4968C7.16151 15.5222 7.19523 15.556 7.22052 15.5983C7.21209 15.6829 7.12779 15.6914 7.11936 15.776C7.11936 15.8859 7.22895 15.8859 7.29638 15.9282C7.30481 16.0213 7.29638 16.0974 7.27109 16.1566C6.99292 16.1651 7.02664 15.6406 7.11936 15.4968ZM7.701 14.1011C7.82744 14.2872 7.79372 14.6509 7.75157 14.8878C7.62513 14.8962 7.49026 15.0316 7.39753 14.9132C7.32167 14.8032 7.4734 14.7271 7.4734 14.6086C7.3301 14.4479 7.21209 14.0334 7.39753 13.8473C7.22052 13.6697 7.26266 13.4751 7.24581 13.086C7.23738 12.8492 7.17837 12.5616 7.19523 12.3501C7.20366 12.1555 7.28795 11.9948 7.29638 11.8172C7.30481 11.5465 7.27952 11.225 7.39753 10.9797C7.50712 10.8867 7.74314 10.929 7.80215 11.0305C7.75157 11.5972 7.71785 12.2232 7.701 12.8323C7.69257 13.2637 7.78529 13.712 7.701 14.1011ZM7.29638 16.5119C7.32167 16.4189 7.16994 16.5035 7.22052 16.385C7.34696 16.385 7.3301 16.5288 7.39753 16.588C7.39753 16.6557 7.29638 16.6219 7.29638 16.6896C7.2458 16.6811 7.15308 16.4781 7.29638 16.5119ZM7.4734 17.2732C7.28795 17.2648 7.26266 17.011 7.32167 16.8418C7.46497 16.8841 7.54084 17.104 7.4734 17.2732ZM7.65042 16.6896C7.4734 16.5457 7.53241 15.9875 7.49869 15.6237C7.48183 15.4968 7.42282 15.4207 7.44811 15.3192C7.48183 15.1585 7.66728 15.0485 7.85273 15.1669C7.86116 15.2684 7.85273 15.353 7.80215 15.3953C7.73471 15.4545 7.67571 15.37 7.57455 15.3953C7.49026 15.8183 7.74314 16.2581 7.65042 16.6896ZM7.80215 15.6999C7.86959 15.6914 7.88644 15.7337 7.87801 15.8014H7.80215V15.6999ZM7.85273 16.385C7.88644 16.3681 7.91173 16.3427 7.92859 16.3089C7.97074 16.3004 7.97074 16.3343 8.00446 16.3343C8.08875 16.605 8.07189 16.9602 8.08032 17.2478C7.86959 17.0533 7.92016 16.7318 7.85273 16.385ZM8.23205 15.979C8.40064 16.072 8.30792 16.2751 8.35849 16.4612C8.1309 16.4442 8.19833 16.1566 8.23205 15.979ZM8.43436 17.2986C8.2742 17.2309 8.24048 17.0025 8.33321 16.8418C8.50179 16.8503 8.52708 17.1886 8.43436 17.2986ZM8.43436 11.6903C8.40907 11.9102 8.44279 12.1386 8.40907 12.2993C8.37535 12.3501 8.2742 12.3332 8.25734 12.4008C8.24891 12.477 8.37535 12.4178 8.38378 12.477C8.45122 12.8069 8.29106 13.2806 8.43436 13.6697C8.40064 13.6697 8.40907 13.712 8.40907 13.7458C8.34163 13.805 8.22362 13.8135 8.20676 13.9235C8.20676 14.0419 8.35849 14.0081 8.40907 14.0757C8.35006 14.3464 8.51022 14.7017 8.25734 14.7863C8.29949 15.0823 8.29106 15.4376 8.28263 15.8014C8.19833 15.7168 8.22362 15.7591 8.25734 15.8521C8.00446 15.8267 8.16462 15.5476 8.1309 15.3699C8.10561 15.2431 8.05503 15.2431 7.97917 15.1669C8.08032 14.9132 7.89487 14.4564 8.15619 14.3295C8.14776 14.2364 8.07189 14.2111 8.00446 14.1772C7.94545 13.8558 7.86959 13.1791 8.15619 13.0353C8.14776 12.9591 8.02132 13.0014 8.00446 12.9338C7.88644 12.7307 7.9876 12.5193 8.00446 12.2993C8.03817 11.9271 7.91173 11.5296 8.05503 11.1828C8.28263 11.0897 8.46808 11.1405 8.51022 11.3096C8.54394 11.4111 8.45965 11.538 8.43436 11.6903ZM9.09186 12.5024C9.10029 12.6208 8.99913 12.477 8.96542 12.5531C8.96542 12.8745 8.89798 13.1791 8.88955 13.4921C8.88955 13.6105 8.94013 13.7035 8.94013 13.822C8.94013 13.9573 8.88112 14.0673 8.88955 14.2026C8.88955 14.2618 8.9317 14.321 8.94013 14.3802C8.96542 14.5241 8.91484 14.6594 8.91484 14.8117C8.88955 15.5983 9.01599 16.4612 8.9907 17.2986C8.91484 17.2817 8.94856 17.1548 8.86426 17.1463C8.88112 16.3935 8.61138 15.7337 8.73782 14.9893C8.72096 14.8709 8.62824 14.837 8.61138 14.7101C8.58609 14.4987 8.71253 14.2957 8.81368 14.1772C8.81368 14.0588 8.67881 14.0757 8.66195 13.9742C8.65352 13.8643 8.72096 13.8389 8.71253 13.7458C8.7041 13.6359 8.61138 13.5936 8.61138 13.4921C8.61138 13.3398 8.69567 13.2806 8.76311 13.1368C8.76311 13.0268 8.66195 13.0184 8.66195 12.9084C8.65352 12.8153 8.71253 12.79 8.71253 12.7054C8.57766 12.4516 8.68724 12.164 8.71253 11.7918C8.72939 11.5803 8.67881 11.4111 8.83897 11.3096C8.9907 11.3519 9.08343 11.4534 9.16772 11.5634C9.11714 11.8933 9.22673 12.257 9.09186 12.5024ZM9.14243 13.4921C9.134 13.5428 9.10872 13.4751 9.11715 13.4413C9.134 13.3905 9.15086 13.4498 9.14243 13.4921ZM9.11715 12.7815C9.15086 12.68 9.15086 12.8745 9.11715 12.7815V12.7815ZM9.11715 14.4056C9.12558 14.3549 9.15086 14.4225 9.14243 14.4564C9.134 14.4987 9.11715 14.4395 9.11715 14.4056ZM9.16772 16.0805C9.06657 16.0551 9.16772 15.9959 9.14243 15.9029C9.20144 15.9113 9.15929 16.0213 9.16772 16.0805ZM9.44589 17.2986C9.33631 17.1886 9.37003 16.9349 9.42061 16.7911H9.49647C9.61448 16.9687 9.46275 17.104 9.44589 17.2986ZM9.57234 16.4104C9.45432 16.4358 9.44589 16.3512 9.37003 16.3343C9.37003 16.2666 9.3616 16.1905 9.39532 16.1566C9.53019 16.1736 9.6482 16.2666 9.57234 16.4104ZM9.57234 15.979C9.49647 15.979 9.40375 15.9959 9.37003 15.9536C9.38689 15.8267 9.47118 15.7675 9.59762 15.7506C9.63977 15.8267 9.62291 15.9113 9.57234 15.979ZM9.62291 15.6491C9.5049 15.6406 9.44589 15.573 9.44589 15.4461H9.62291C9.62291 15.5222 9.69035 15.5814 9.62291 15.6491ZM9.82522 11.538C9.69035 11.6142 9.77464 11.7749 9.77464 11.9187C9.76621 12.6631 9.80836 13.6443 9.72407 14.4056C9.84208 14.6425 9.72407 15.0316 9.6482 15.2431C9.53862 15.1669 9.33631 14.9047 9.39532 14.6848C9.42904 14.5663 9.61448 14.5325 9.62291 14.431C9.63977 14.2703 9.45432 14.2449 9.39532 14.1011C9.42061 13.9319 9.43746 13.7543 9.57234 13.6951C9.55548 13.5428 9.55548 13.5259 9.62291 13.4413C9.57234 13.2975 9.49647 13.5343 9.42061 13.4413C9.42061 13.1283 9.3616 12.5785 9.42061 12.2232C9.46275 11.9694 9.37846 11.6734 9.42061 11.5127C9.47118 11.335 9.70721 11.1574 9.92637 11.2843C9.95166 11.4111 9.96852 11.5465 9.97695 11.6903C9.90109 11.6649 9.94323 11.5211 9.82522 11.538ZM10.0022 14.3549C9.96852 14.321 9.95166 14.2703 9.95166 14.2026C10.0444 14.1772 9.99381 14.2957 10.0022 14.3549ZM9.95166 17.3747C9.90108 17.1548 9.99381 17.0617 10.0275 16.8672C10.0528 16.8672 10.0697 16.8756 10.0781 16.8926C10.0275 17.0787 10.095 17.1463 10.154 17.2732C10.1455 17.3747 10.0444 17.417 9.95166 17.3747ZM10.1287 16.5627C9.86737 16.5035 10.1203 16.089 10.1287 15.9029C10.3394 15.9705 10.1961 16.3935 10.1287 16.5627ZM10.2298 15.6745C10.0781 15.6068 10.1877 15.2938 10.1793 15.1416C10.3563 15.2008 10.4237 15.5814 10.2298 15.6745ZM10.2045 15.0654C10.2298 15.0231 10.2551 14.9808 10.331 14.9893C10.3141 15.0316 10.2888 15.0739 10.2045 15.0654ZM10.331 16.6134C10.2888 16.5965 10.331 16.5711 10.331 16.5373C10.3816 16.5542 10.3394 16.5796 10.331 16.6134ZM10.331 14.7101C10.1287 14.6932 10.1961 14.4564 10.2551 14.3295H10.3816C10.4069 14.3972 10.3141 14.5494 10.331 14.7101ZM10.2551 14.0757C10.2888 13.7035 10.1287 13.2975 10.4321 13.1875C10.4237 13.086 10.3141 13.086 10.2804 13.0099C10.2636 12.7138 10.1708 12.1809 10.1793 11.7664C10.1793 11.648 10.2383 11.5549 10.2298 11.4619C10.2298 11.4027 10.1708 11.335 10.1793 11.2843C10.2214 11.0643 10.626 10.8529 10.6344 11.3096C10.6007 11.335 10.5417 11.335 10.4827 11.335C10.4827 11.758 10.4996 12.1809 10.5333 12.6292C10.4996 12.6969 10.3478 12.6462 10.3563 12.7561C10.3563 12.8745 10.4911 12.8576 10.5333 12.9338C10.508 13.0522 10.5502 13.2552 10.5333 13.4413C10.4743 13.5005 10.3984 13.5259 10.331 13.5682C10.39 13.6528 10.685 14.0757 10.2551 14.0757ZM10.6092 14.9385C10.6007 14.9893 10.5754 14.9216 10.5839 14.8878C10.6007 14.837 10.6176 14.8962 10.6092 14.9385ZM10.8368 16.2074C10.7946 16.3681 10.7609 16.588 10.7103 16.7911C10.6597 16.9856 10.6344 17.2225 10.4827 17.2478C10.5839 16.7065 10.7525 16.3258 10.7609 15.7506H10.8115C11.0306 15.8352 10.8873 16.0298 10.8368 16.2074ZM10.9379 15.4968C10.7777 15.4122 10.9126 15.1246 10.9379 14.9893C11.1149 15.0231 11.0053 15.3869 10.9379 15.4968ZM11.0391 14.8117C10.8283 14.7524 10.9632 14.4564 11.0138 14.3041C10.9211 14.0842 10.9548 13.7966 11.1149 13.6443C11.0475 13.5259 10.8705 12.9507 11.2161 13.086C11.3257 13.4413 11.2245 13.9658 11.1655 14.4056C11.1486 14.5494 11.1318 14.7101 11.0391 14.8117ZM11.2161 16.4104V16.2074H11.2919C11.2414 16.2835 11.351 16.385 11.2161 16.4104ZM11.2161 11.1574C11.1992 11.2335 11.2077 11.3942 11.2161 11.4873C11.2329 11.758 11.3088 12.0456 11.2667 12.2993C11.2751 12.4093 11.1571 12.3924 11.1149 12.4516C11.1655 12.5785 11.2835 12.6377 11.2414 12.8576C11.1992 12.8576 11.1486 12.8492 11.1402 12.883C10.9379 12.8661 11.0306 12.6462 11.0138 12.5024C11.0053 12.4008 10.9463 12.3163 10.9379 12.2232C10.9126 11.8087 10.9632 11.3181 10.862 10.9797C10.9042 10.8106 11.2245 10.6414 11.3425 10.8529C11.351 10.9797 11.2414 11.0305 11.2161 11.1574ZM11.469 15.5983C11.5701 15.6745 11.3931 15.6829 11.469 15.5983V15.5983ZM11.5954 16.4104H11.5448V16.3089H11.5954V16.4104ZM11.646 15.04C11.587 15.1754 11.6544 14.6679 11.5954 14.6086C11.646 14.5748 11.6291 14.4733 11.6713 14.431C11.7556 14.6256 11.6291 14.8201 11.646 15.04ZM11.7218 14.2026C11.6797 14.0588 11.646 13.8473 11.7218 13.7204C11.9663 13.7627 11.7893 14.0842 11.7218 14.2026ZM11.6966 13.289C11.7218 13.2637 11.764 13.2552 11.823 13.2637C11.823 13.3229 11.823 13.3821 11.7977 13.4159C11.7556 13.3821 11.6797 13.3821 11.6966 13.289ZM11.823 12.9845C11.6881 12.993 11.6291 12.9253 11.646 12.7815C11.7387 12.773 11.8061 12.79 11.8483 12.8323C11.8567 12.8915 11.8567 12.9507 11.823 12.9845ZM11.7218 12.1471C11.8146 12.0794 11.6628 12.2317 11.7218 12.1471V12.1471ZM11.7218 12.0456C11.7218 12.0117 11.764 12.0202 11.7977 12.0202V12.0963C11.7724 12.0794 11.764 12.0456 11.7218 12.0456ZM11.7218 12.2232C11.7556 12.3163 11.823 12.3755 11.8483 12.477C11.7893 12.5193 11.7893 12.6208 11.6713 12.6039C11.6123 12.4854 11.6966 12.3247 11.7218 12.2232ZM11.8736 10.8782C11.7134 10.929 11.8651 11.2927 11.7218 11.3604C11.823 11.4534 11.9579 11.8003 11.646 11.7664C11.5701 11.5719 11.646 11.2673 11.6207 11.0051C11.6123 10.8529 11.5111 10.6668 11.6713 10.5483C11.9832 10.4384 12.1265 10.7936 12.0253 11.0051C11.9326 11.0051 11.9747 10.8698 11.8736 10.8782ZM12.0759 15.3953C12.0337 15.3107 12.0253 15.04 12.1012 14.9893C12.2108 15.057 12.1096 15.2938 12.0759 15.3953ZM12.4046 11.132C12.1518 11.0474 12.1096 10.2607 12.5058 10.3961C12.5395 10.5652 12.4299 10.5906 12.3793 10.6752C12.4299 10.8021 12.4552 10.9797 12.4046 11.132ZM12.2782 16.5119C12.3119 16.4104 12.3119 16.605 12.2782 16.5119V16.5119ZM12.2782 14.634C12.1602 14.5494 12.2698 14.2787 12.2782 14.1519C12.4468 14.2618 12.3456 14.4902 12.2782 14.634ZM12.3541 13.9235C12.2192 13.9065 12.3035 13.7204 12.3288 13.6443H12.4046C12.4468 13.7289 12.4384 13.8727 12.3541 13.9235ZM12.3288 13.4413C12.3119 13.2806 12.2951 13.1029 12.3793 12.9845C12.5817 13.0184 12.5311 13.4328 12.3288 13.4413ZM12.3541 12.7307C12.4384 12.7138 12.4468 12.8238 12.4046 12.8576C12.3541 12.8492 12.3541 12.79 12.3541 12.7307ZM12.3793 12.5785C12.2529 12.3755 12.4131 12.054 12.3793 11.7918C12.3625 11.6311 12.2866 11.4873 12.4046 11.335C12.4468 11.3266 12.4468 11.3604 12.4805 11.3604C12.4974 11.5888 12.5901 11.9187 12.4552 12.0709C12.5732 12.1894 12.5648 12.5362 12.3793 12.5785ZM11.6207 9.68551C11.5111 9.70243 11.4268 9.68551 11.3172 9.71089C11.1739 9.74472 10.8873 9.82931 10.7103 9.86315C10.4574 9.9139 10.2383 9.93082 10.0022 10.0154C9.79993 10.0915 9.61448 10.1846 9.42061 10.2692C9.39532 10.3538 9.30259 10.3707 9.24359 10.4214C9.09186 10.4214 9.04128 10.3199 8.96542 10.2438C8.73782 10.1761 8.57766 10.0408 8.33321 9.93928C8.10561 9.84623 7.83587 9.89699 7.49869 9.83777C7.53241 9.69397 7.45654 9.41482 7.4734 9.17797C7.48183 9.00033 7.58298 8.80578 7.37225 8.74656C7.14465 8.9242 7.27109 9.49095 7.29638 9.78702C6.6726 9.83777 6.00667 9.71089 5.65264 9.40636C5.5262 9.40636 5.46719 9.33869 5.34918 9.33023C5.18902 9.1103 4.98671 8.80578 4.8687 8.46742C4.80969 8.31516 4.55681 8.06985 4.79283 7.95988C4.86027 8.05293 4.80126 8.24748 4.91927 8.34053C5.17216 8.32361 4.99514 8.06985 5.04572 7.90912C5.11315 8.16289 5.18902 8.39974 5.19745 8.72119C5.51777 8.68735 5.31546 8.25594 5.2986 7.98526C5.29017 7.82453 5.36604 7.65535 5.24802 7.57922C5.13844 7.58768 5.13001 7.69765 5.071 7.75686C4.97828 7.73149 5.012 7.57922 4.94456 7.52847C4.80126 7.58768 4.65796 7.77378 4.43879 7.68073C4.33764 7.42696 4.59053 7.25778 4.71697 7.07168C4.85184 6.87713 4.91084 6.63182 5.02043 6.43726C5.05415 6.37805 5.13001 6.32729 5.17216 6.25962C5.28174 6.08198 5.33232 5.92126 5.47562 5.77746C5.63578 5.72671 5.78751 5.60828 5.9561 5.59982C6.11626 5.59136 6.29328 5.68441 6.46186 5.67595C6.76533 5.65903 7.02664 5.38835 7.27109 5.3968C7.44811 5.40526 7.58298 5.54907 7.77686 5.6252C7.86116 5.65903 7.97917 5.66749 8.08032 5.70133C8.36692 5.79438 8.72096 5.85359 9.11715 5.92972C9.15086 6.14965 9.16772 6.34421 9.09186 6.48801C9.02442 6.62336 8.82211 6.65719 8.83897 6.81791C8.88112 6.9025 9.04128 6.86867 9.09186 6.9448C9.12558 7.04631 9.134 7.2747 9.09186 7.37621C8.89798 7.39313 8.77997 7.32545 8.66195 7.40159C8.65352 7.6469 8.89798 7.59614 9.09186 7.57922C9.14243 7.80762 9.08343 8.12906 9.06657 8.36591C8.98227 8.39975 8.87269 8.4082 8.83897 8.49279C8.85583 8.81424 8.88955 9.27102 8.86426 9.60938C8.85583 9.73627 8.74625 9.88853 8.88955 9.93928C9.14243 9.93082 8.94013 9.57554 9.14243 9.4825C9.12558 9.69397 9.075 9.99004 9.19301 10.1677C9.47961 10.0492 9.34474 9.71935 9.34474 9.40636C9.34474 9.33869 9.37846 9.30486 9.39532 9.22873C9.43746 9.00879 9.40375 8.68735 9.42061 8.39129C9.42904 8.22211 9.47118 8.04447 9.47118 7.90912C9.47118 7.73994 9.41218 7.6046 9.47118 7.47772C9.53019 7.35083 9.7325 7.33391 9.72407 7.19857C9.71564 7.02093 9.47961 7.05477 9.42061 6.97018C9.3616 6.78408 9.44589 6.54723 9.42061 6.33575C9.40375 6.20887 9.31102 6.12428 9.34474 6.03123C9.41218 5.93818 9.57234 5.89589 9.67349 5.87897C10.0275 5.8113 10.4069 5.83667 10.7609 5.75208C10.8368 5.73516 10.8958 5.67595 10.9885 5.65057C11.0559 5.63366 11.1402 5.65057 11.1908 5.6252C11.4437 5.50677 11.4268 5.2953 11.7218 5.26992C11.8399 5.26146 11.9242 5.32913 12.0506 5.34605C12.118 5.35451 12.1518 5.32067 12.2276 5.34605C12.3793 5.38835 12.6069 5.54907 12.7587 5.65057C12.9947 5.80284 13.0959 6.00585 13.3403 6.18349C13.4667 6.66565 13.8376 7.08014 13.7449 7.57922C13.6943 7.84145 13.4583 8.06139 13.315 8.31516C13.1633 8.57738 13.0284 8.81424 12.9357 9.07646C12.5732 9.34715 12.1602 9.584 11.6207 9.68551ZM12.6069 15.4207C12.4974 15.3361 12.6154 15.1585 12.6069 15.0147C12.7755 15.057 12.6069 15.3023 12.6069 15.4207ZM12.8598 10.1169C12.9273 10.2523 12.9273 10.4553 12.8345 10.5483C12.7502 10.4637 12.5479 10.0915 12.8598 10.1169ZM12.784 14.4056C12.7755 14.3464 12.8008 14.321 12.8598 14.3295C12.8345 14.3464 12.8598 14.4225 12.784 14.4056ZM12.8851 15.8267C12.7755 15.6914 12.9273 15.556 12.961 15.3953C13.0031 15.2092 12.9694 15.0231 13.0874 14.9132H13.1633C13.079 15.2177 13.0453 15.5899 12.8851 15.8267ZM13.1886 14.6594C13.1043 14.6509 13.1043 14.4056 13.2392 14.4564C13.2476 14.5494 13.2139 14.5917 13.1886 14.6594ZM13.2644 13.9742C13.2729 13.8558 13.2392 13.6951 13.315 13.6443C13.4077 13.6866 13.3909 13.9827 13.2644 13.9742ZM14.807 20.6991C14.7817 20.7837 14.7817 20.6314 14.7817 20.5976C14.8155 20.513 14.8155 20.6653 14.807 20.6991ZM15.0093 18.0092C14.984 18.1022 14.984 18.2122 14.9588 18.3137C14.9082 18.559 14.8239 18.9396 14.8576 19.2526C14.866 19.3118 14.9082 19.371 14.9082 19.4303C14.9166 19.7855 14.807 20.1239 14.807 20.4707C14.6806 19.7602 14.7312 18.872 14.8829 18.1868C14.9503 18.1445 14.9335 18.0261 15.0093 18.0092C15.0093 17.8907 14.9925 17.9076 15.0093 17.8061C15.1105 17.7215 15.1526 17.5777 15.1864 17.4255C15.2285 17.6285 15.0683 17.8061 15.0093 18.0092ZM15.414 15.9029C15.1948 15.8859 15.3212 15.6745 15.3887 15.573C15.4814 15.5899 15.4477 15.8352 15.414 15.9029ZM15.414 14.431C15.3718 14.5071 15.2032 14.4902 15.2116 14.3802C15.3128 14.3633 15.3634 14.3972 15.414 14.431ZM15.2369 15.2431C15.1442 15.1669 15.0515 15.0908 15.0346 14.9385C15.1274 15.0147 15.2369 15.0739 15.2369 15.2431ZM14.4277 14.5833C14.6216 14.6171 14.689 14.7694 14.63 14.9893C14.5036 14.9216 14.3856 14.7271 14.4277 14.5833ZM14.1748 13.9488C14.0821 14.0334 13.9894 13.8981 13.8714 13.9235C13.8124 13.915 13.8461 13.9996 13.7955 13.9996C13.8292 14.1349 13.9894 14.1434 14.0737 14.228C14.1158 14.431 14.158 14.634 14.2001 14.837C14.0821 14.6509 14.0568 14.3718 13.8714 14.2534C13.7281 14.2787 13.8039 14.4141 13.7702 14.5071C13.5595 14.3633 13.6438 14.0757 13.7196 13.8473C13.9051 13.7627 14.0315 13.9065 14.1748 13.9488ZM13.7196 10.4214C13.8629 10.4214 13.8882 10.5399 13.9219 10.6498C13.8292 10.6921 13.7196 10.5568 13.7196 10.4214ZM14.7059 10.5737C14.4867 10.5483 14.4277 10.3622 14.2507 10.2946C14.158 10.303 14.158 10.4045 14.0484 10.3961C13.9135 10.303 13.7112 10.2776 13.6185 10.1423C13.6353 10.1254 13.6438 10.1 13.6438 10.0662C13.7871 10.007 13.9809 10.0154 14.1242 10.0662C14.1495 10.0746 14.1748 10.1508 14.2254 10.1677C14.2507 10.1761 14.3013 10.1508 14.3266 10.1677C14.3771 10.2015 14.4193 10.2776 14.4783 10.3199C14.5879 10.3876 14.807 10.4299 14.7059 10.5737ZM15.6415 11.132C15.7343 11.1658 15.827 11.1997 15.8691 11.2843C15.7848 11.3435 15.6415 11.2504 15.6415 11.132ZM17.4876 12.9845C17.3359 12.8069 17.201 12.7054 17.1589 12.5024C17.3443 12.5193 17.4117 12.68 17.5382 12.7815C17.5888 12.8238 17.6815 12.8323 17.7405 12.883C17.9175 13.0184 18.0777 13.2129 18.0945 13.4413C17.8416 13.399 17.6478 13.1622 17.4876 12.9845ZM18.2968 14.3041C18.221 14.2703 18.2125 14.0588 18.2463 13.9996C18.2884 13.9911 18.2884 14.025 18.3221 14.025C18.3137 14.1096 18.2884 14.1857 18.2968 14.3041ZM13.138 7.35083C13.2054 7.30008 13.2982 7.2747 13.3403 7.19857C13.3656 7.08014 13.2982 6.97864 13.2644 6.86867C13.1801 6.58952 13.138 6.36959 13.0116 6.18349C12.9441 6.20041 12.9441 6.14966 12.8851 6.15811C12.7587 6.36113 12.9778 6.58106 12.9863 6.81791C12.8683 6.75024 12.8598 6.5726 12.784 6.46264C12.5732 6.46264 12.6997 6.65719 12.7081 6.74178C12.7418 6.96172 12.8345 7.22395 12.8092 7.47772C12.7418 7.52001 12.6744 7.4608 12.6069 7.52847C12.5817 7.84145 12.5648 8.17135 12.6828 8.46742C12.8261 8.4505 12.8177 8.28132 12.8851 8.18827C12.9441 8.18827 13.0031 8.18827 13.0368 8.16289C13.2054 7.95988 13.079 7.62152 13.138 7.35083ZM12.9863 6.84329C13.0116 6.86021 13.0284 6.88559 13.0368 6.91942C13.0284 6.97864 12.9863 6.87713 12.9863 6.84329ZM7.9033 8.79732C7.64199 8.60276 7.64199 9.07646 7.75157 9.22873C7.71785 9.32177 7.62513 9.61784 7.77686 9.66013C8.11404 9.55017 7.79372 9.06801 7.9033 8.79732ZM8.51022 6.46264C8.46808 6.29346 8.16462 6.36959 8.25734 6.53877C8.35849 6.58952 8.48494 6.55569 8.51022 6.46264ZM10.5839 6.58952C10.6092 6.45418 10.4743 6.47956 10.4574 6.56415C10.4911 6.58106 10.5249 6.58952 10.5839 6.58952ZM8.1309 6.6149C8.09718 6.60644 8.08032 6.58106 8.02974 6.58952C7.97074 6.64874 7.9876 6.67411 8.02974 6.74178C8.10561 6.73332 8.13933 6.69103 8.1309 6.6149ZM7.4734 6.6149H7.42282C7.33853 6.72487 7.38068 6.85175 7.34696 7.02093C7.28795 7.30008 7.21209 7.39313 7.42282 7.50309C7.44811 7.4608 7.53241 7.47772 7.57455 7.45234C7.59984 7.19011 7.74314 6.78408 7.4734 6.6149ZM6.48715 8.5943C6.43658 8.46742 6.26799 8.42512 6.20898 8.56892C6.26799 8.86499 6.28485 9.18643 6.36071 9.40636C6.63045 9.27102 6.43658 8.84807 6.48715 8.5943ZM5.93081 8.18827C5.68636 8.39975 5.98982 8.84807 5.85494 9.12722C5.93924 9.17797 5.92238 9.33023 6.08254 9.30486C6.1584 9.23719 6.10783 9.13568 6.10783 9.00033C6.10783 8.69581 6.19212 8.21365 5.93081 8.18827ZM8.86426 6.89405C8.80525 6.83483 8.7041 6.88559 8.71253 6.97018C8.7884 7.02939 8.85583 6.95326 8.86426 6.89405ZM7.87801 7.50309C7.85273 7.39313 7.701 7.37621 7.62513 7.45234C7.56612 7.63844 7.88644 7.65535 7.87801 7.50309ZM6.86648 8.79732H6.8159C6.8159 9.03417 6.77376 9.50787 6.96763 9.63476C7.15308 9.47404 7.06879 8.89037 6.86648 8.79732ZM8.40907 7.07168C8.5608 7.09706 8.63667 7.04631 8.66195 6.9448C8.57766 6.76716 8.23205 6.85175 8.40907 7.07168ZM8.5608 7.50309C8.50179 7.50309 8.48494 7.4608 8.40907 7.47772C8.39221 7.61306 8.09718 7.46926 8.15619 7.68073C8.34163 7.61306 8.55237 7.73994 8.5608 7.50309ZM8.02974 8.77194C8.1309 9.068 8.02132 9.54171 8.10561 9.78702C8.44279 9.70243 8.22362 9.05109 8.23205 8.74656C8.15619 8.70427 8.09718 8.72965 8.02974 8.77194ZM8.58609 8.61968H8.53551C8.47651 8.95804 8.58609 9.4825 8.53551 9.86315C8.75468 9.85469 8.7041 9.52479 8.71253 9.30486C8.72939 9.05955 8.7884 8.70427 8.58609 8.61968ZM8.18147 6.86867C8.02975 6.84329 7.97074 6.91096 7.95388 7.02093C8.02975 7.23241 8.35849 7.04631 8.18147 6.86867ZM7.97917 6.33575C7.88644 6.23424 7.66728 6.31038 7.67571 6.46264C7.74314 6.6149 8.02975 6.52185 7.97917 6.33575ZM5.67793 8.18827C5.64421 8.18827 5.64421 8.15444 5.60206 8.16289C5.59363 8.19673 5.57677 8.22211 5.55148 8.23903C5.62735 8.60276 5.45033 9.03417 5.7285 9.15259C5.8718 9.09338 5.75379 8.79732 5.75379 8.5943C5.76222 8.42512 5.77908 8.24748 5.67793 8.18827ZM8.25734 8.28978C8.25734 8.23057 8.29949 8.21365 8.28263 8.13752C8.20676 8.09522 8.14776 8.0783 8.08032 8.13752C8.06346 8.2644 8.13933 8.29824 8.25734 8.28978Z" fill="white"/>
</svg>