<svg width="20" height="21" viewBox="0 0 20 21" fill="none" xmlns="http://www.w3.org/2000/svg">
    <path d="M19.7431 10.6347V10.6346C19.7403 8.09803 18.7314 5.66612 16.9378 3.87247C15.1441 2.07882 12.7122 1.06992 10.1756 1.06711L10.1755 1.1629V1.06711C8.28322 1.06711 6.43341 1.62824 4.86003 2.67955C3.28664 3.73085 2.06033 5.22511 1.33618 6.97337C0.61203 8.72162 0.422559 10.6454 0.791728 12.5013C1.1609 14.3572 2.07212 16.062 3.41018 17.4001C4.74824 18.7381 6.45303 19.6494 8.30896 20.0185C10.1649 20.3877 12.0886 20.1982 13.8369 19.4741C15.5851 18.7499 17.0794 17.5236 18.1307 15.9502C19.182 14.3768 19.7431 12.527 19.7431 10.6347ZM10.1754 18.7471C8.57097 18.7471 7.00258 18.2713 5.66854 17.3799C4.33448 16.4885 3.2947 15.2215 2.68069 13.7392C2.06669 12.2569 1.90604 10.6257 2.21905 9.0521C2.53207 7.47846 3.3047 6.03298 4.43923 4.89845C5.57376 3.76392 7.01924 2.99129 8.59288 2.67828C10.1665 2.36526 11.7976 2.52591 13.28 3.13992C14.7623 3.75392 16.0293 4.7937 16.9207 6.12777C17.8121 7.4618 18.2878 9.0302 18.2879 10.6346C18.2854 12.7854 17.4299 14.8474 15.909 16.3683C14.3882 17.8891 12.3262 18.7446 10.1754 18.7471Z" fill="#00C07C" stroke="#00C07C" stroke-width="0.192435"/>
    <path d="M10.7575 5.14671L10.7574 5.14678L14.547 10.1982L14.5471 10.1983C14.6413 10.3243 14.6922 10.4775 14.6922 10.6348C14.6922 10.7921 14.6413 10.9452 14.5471 11.0713L14.547 11.0714L10.7585 16.1227L10.7575 5.14671ZM10.7575 5.14671L10.7546 5.14328M10.7575 5.14671L10.7546 5.14328M10.7546 5.14328C10.6842 5.05787 10.5957 4.98911 10.4955 4.9419C10.3954 4.89469 10.286 4.87021 10.1753 4.87021C10.0646 4.87021 9.95521 4.89469 9.85505 4.9419C9.75489 4.98911 9.66641 5.05787 9.59594 5.14328L9.59586 5.14321M10.7546 5.14328L9.59586 5.14321M9.59586 5.14321L9.59318 5.14679M9.59586 5.14321L9.59318 5.14679M9.59318 5.14679L5.80461 10.1982L5.80453 10.1983M9.59318 5.14679L5.80453 10.1983M5.80453 10.1983C5.71031 10.3243 5.6594 10.4775 5.6594 10.6348C5.6594 10.7921 5.71031 10.9452 5.80453 11.0713L5.80461 11.0714M5.80453 10.1983L5.80461 11.0714M5.80461 11.0714L9.5931 16.1227L5.80461 11.0714ZM9.84995 16.3375C9.74884 16.2869 9.66092 16.2133 9.59318 16.1228L9.84995 16.3375ZM9.84995 16.3375C9.9511 16.3882 10.0627 16.4145 10.1758 16.4145M9.84995 16.3375L10.1758 16.4145M10.1758 16.4145C10.2889 16.4145 10.4005 16.3882 10.5016 16.3375M10.1758 16.4145L10.5016 16.3375M10.5016 16.3375C10.6028 16.2869 10.6907 16.2133 10.7584 16.1228L10.5016 16.3375ZM7.29628 10.6348L10.1753 6.79571L13.0543 10.6348L10.1753 14.4739L7.29628 10.6348Z" fill="#00C07C" stroke="#00C07C" stroke-width="0.192435"/>
</svg>
