<svg xmlns="http://www.w3.org/2000/svg" width="16" height="21" viewBox="0 0 16 21" fill="none">
  <path d="M14.1 0H1.9C0.85 0 0 0.881047 0 1.9694V2.04195C0 2.94373 0.59 3.71076 1.4 3.9388V17.0612C0.59 17.2892 0 18.0563 0 18.958V19.0306C0 20.119 0.85 21 1.9 21H14.1C15.15 21 16 20.119 16 19.0306V18.958C16 18.0563 15.41 17.2892 14.6 17.0612V3.9388C15.41 3.71076 16 2.94373 16 2.04195V1.9694C16 0.881047 15.15 0 14.1 0ZM2.4 4.01135H13.6V16.999H2.4V4.01135ZM15 18.958V19.0306C15 19.5489 14.6 19.9635 14.1 19.9635H1.9C1.4 19.9635 1 19.5489 1 19.0306V18.958C1 18.4398 1.4 18.0252 1.9 18.0252H14.1C14.6 18.0252 15 18.4501 15 18.958ZM15 2.04195C15 2.56022 14.6 2.97483 14.1 2.97483H1.9C1.4 2.97483 1 2.56022 1 2.04195V1.9694C1 1.45114 1.4 1.03653 1.9 1.03653H14.1C14.6 1.03653 15 1.45114 15 1.9694V2.04195Z" fill="white"/>
  <path d="M3.63 5.96002H9.16C9.3 5.96002 9.41 5.846 9.41 5.70089C9.41 5.55577 9.3 5.44176 9.16 5.44176H3.63C3.49 5.44176 3.38 5.55577 3.38 5.70089C3.38 5.846 3.5 5.96002 3.63 5.96002Z" fill="white"/>
  <path d="M3.63 7.85686H6.63C6.77 7.85686 6.88 7.74284 6.88 7.59773C6.88 7.45262 6.77 7.3386 6.63 7.3386H3.63C3.49 7.3386 3.38 7.45262 3.38 7.59773C3.38 7.74284 3.5 7.85686 3.63 7.85686Z" fill="white"/>
  <path d="M7.75 7.59773C7.75 7.74284 7.86 7.85686 8 7.85686H11.96C12.1 7.85686 12.21 7.74284 12.21 7.59773C12.21 7.45262 12.1 7.3386 11.96 7.3386H8C7.86 7.3386 7.75 7.45262 7.75 7.59773Z" fill="white"/>
  <path d="M3.63 9.41165H8.45C8.59 9.41165 8.7 9.29763 8.7 9.15252C8.7 9.0074 8.59 8.89339 8.45 8.89339H3.63C3.49 8.89339 3.38 9.0074 3.38 9.15252C3.38 9.29763 3.5 9.41165 3.63 9.41165Z" fill="white"/>
  <path d="M11.96 8.89339H10.53C10.39 8.89339 10.28 9.0074 10.28 9.15252C10.28 9.29763 10.39 9.41165 10.53 9.41165H11.96C12.1 9.41165 12.21 9.29763 12.21 9.15252C12.21 9.0074 12.1 8.89339 11.96 8.89339Z" fill="white"/>
  <path d="M11.96 10.4896H5.83C5.69 10.4896 5.58 10.6037 5.58 10.7488C5.58 10.8939 5.69 11.0079 5.83 11.0079H11.95C12.09 11.0079 12.2 10.8939 12.2 10.7488C12.21 10.614 12.1 10.4896 11.96 10.4896Z" fill="white"/>
  <path d="M4.41 10.4896H3.63C3.49 10.4896 3.38 10.6037 3.38 10.7488C3.38 10.8939 3.49 11.0079 3.63 11.0079H4.41C4.55 11.0079 4.66 10.8939 4.66 10.7488C4.66 10.614 4.55 10.4896 4.41 10.4896Z" fill="white"/>
  <path d="M11.96 15.4131H8.9C8.76 15.4131 8.65 15.5271 8.65 15.6723C8.65 15.8174 8.76 15.9314 8.9 15.9314H11.96C12.1 15.9314 12.21 15.8174 12.21 15.6723C12.21 15.5375 12.1 15.4131 11.96 15.4131Z" fill="white"/>
  <path d="M2.17 1.58588C1.86 1.58588 1.86 2.08342 2.17 2.08342C2.48 2.08342 2.48 1.58588 2.17 1.58588Z" fill="white"/>
  <path d="M4.23 1.54442C3.81 1.54442 3.39 1.54442 2.96 1.54442C2.65 1.54442 2.65 2.04195 2.96 2.04195C3.38 2.04195 3.8 2.04195 4.23 2.04195C4.54 2.04195 4.54 1.54442 4.23 1.54442Z" fill="white"/>
  <path d="M10.22 2.03159C9.63 2.03159 9.04 2.03159 8.45001 2.03159C8.17001 2.03159 8.17001 2.51876 8.45001 2.51876C9.04 2.51876 9.63 2.51876 10.22 2.51876C10.5 2.51876 10.5 2.03159 10.22 2.03159Z" fill="white"/>
  <path d="M11.3 2.03159C10.99 2.03159 10.99 2.52912 11.3 2.52912C11.61 2.52912 11.61 2.03159 11.3 2.03159Z" fill="white"/>
  <path d="M13.4 18.7196C13.09 18.7196 13.09 19.2172 13.4 19.2172C13.71 19.2172 13.71 18.7196 13.4 18.7196Z" fill="white"/>
  <path d="M12.33 18.7196C11.67 18.7196 11.02 18.7196 10.36 18.7196C10.05 18.7196 10.05 19.2172 10.36 19.2172C11.02 19.2172 11.67 19.2172 12.33 19.2172C12.64 19.2172 12.64 18.7196 12.33 18.7196Z" fill="white"/>
  <path d="M2.2 18.7715C1.89 18.7715 1.89 19.269 2.2 19.269C2.51 19.269 2.51 18.7715 2.2 18.7715Z" fill="white"/>
</svg>