<svg xmlns="http://www.w3.org/2000/svg" width="18" height="16" viewBox="0 0 18 16" fill="none">
  <path d="M17.7529 16H0.247059C0.110588 16 0 15.8917 0 15.7581V13.8813C0 13.7477 0.110588 13.6394 0.247059 13.6394H17.7529C17.8894 13.6394 18 13.7477 18 13.8813V15.7581C18 15.8917 17.8894 16 17.7529 16ZM0.494118 15.5161H17.5059V14.1233H0.494118V15.5161Z" fill="white"/>
  <path d="M2.62706 14.1233C2.49059 14.1233 2.38 14.015 2.38 13.8813V0.483871H1.34118V13.8813C1.34118 14.015 1.23059 14.1233 1.09412 14.1233C0.957647 14.1233 0.847059 14.015 0.847059 13.8813V0.241935C0.847059 0.108295 0.957647 0 1.09412 0H2.62706C2.76353 0 2.87412 0.108295 2.87412 0.241935V13.8813C2.87412 14.015 2.76353 14.1233 2.62706 14.1233Z" fill="white"/>
  <path d="M16.9388 14.1233C16.8024 14.1233 16.6918 14.015 16.6918 13.8813V0.483871H15.6529V13.8813C15.6529 14.015 15.5424 14.1233 15.4059 14.1233C15.2694 14.1233 15.1588 14.015 15.1588 13.8813V0.241935C15.1588 0.108295 15.2694 0 15.4059 0H16.9388C17.0753 0 17.1859 0.108295 17.1859 0.241935V13.8813C17.1859 14.015 17.0753 14.1233 16.9388 14.1233Z" fill="white"/>
  <path d="M15.4047 2.42396H9.62235C9.48588 2.42396 9.37529 2.31567 9.37529 2.18203C9.37529 2.04839 9.48588 1.94009 9.62235 1.94009H15.4047C15.5412 1.94009 15.6518 2.04839 15.6518 2.18203C15.6518 2.31452 15.5412 2.42396 15.4047 2.42396Z" fill="white"/>
  <path d="M5.02235 2.42396H2.62706C2.49059 2.42396 2.38 2.31567 2.38 2.18203C2.38 2.04839 2.49059 1.94009 2.62706 1.94009H5.02235C5.15882 1.94009 5.26941 2.04839 5.26941 2.18203C5.26941 2.31452 5.15882 2.42396 5.02235 2.42396Z" fill="white"/>
  <path d="M5.78941 3.54032C5.23059 3.54032 4.77529 3.09447 4.77529 2.54724V1.81452C4.77529 1.26728 5.23059 0.821429 5.78941 0.821429C6.34824 0.821429 6.80353 1.26728 6.80353 1.81452V2.54724C6.80353 3.09447 6.34824 3.54032 5.78941 3.54032ZM5.78941 1.30645C5.50235 1.30645 5.26941 1.53456 5.26941 1.81567V2.54839C5.26941 2.82949 5.50235 3.0576 5.78941 3.0576C6.07647 3.0576 6.30941 2.82949 6.30941 2.54839V1.81567C6.30941 1.53456 6.07647 1.30645 5.78941 1.30645Z" fill="white"/>
  <path d="M7.32235 3.54032C6.76353 3.54032 6.30824 3.09447 6.30824 2.54724V1.81452C6.30824 1.26728 6.76353 0.821429 7.32235 0.821429C7.88118 0.821429 8.33647 1.26728 8.33647 1.81452V2.54724C8.33647 3.09447 7.88235 3.54032 7.32235 3.54032ZM7.32235 1.30645C7.03529 1.30645 6.80235 1.53456 6.80235 1.81567V2.54839C6.80235 2.82949 7.03529 3.0576 7.32235 3.0576C7.60941 3.0576 7.84235 2.82949 7.84235 2.54839V1.81567C7.84235 1.53456 7.60941 1.30645 7.32235 1.30645Z" fill="white"/>
  <path d="M8.85647 3.54032C8.29765 3.54032 7.84235 3.09447 7.84235 2.54724V1.81452C7.84235 1.26728 8.29765 0.821429 8.85647 0.821429C9.41529 0.821429 9.87059 1.26728 9.87059 1.81452V2.54724C9.86941 3.09447 9.41529 3.54032 8.85647 3.54032ZM8.85647 1.30645C8.56941 1.30645 8.33647 1.53456 8.33647 1.81567V2.54839C8.33647 2.82949 8.56941 3.0576 8.85647 3.0576C9.14353 3.0576 9.37647 2.82949 9.37647 2.54839V1.81567C9.37529 1.53456 9.14235 1.30645 8.85647 1.30645Z" fill="white"/>
  <path d="M15.4047 6.74078H12.7529C12.6165 6.74078 12.5059 6.63249 12.5059 6.49885C12.5059 6.36521 12.6165 6.25691 12.7529 6.25691H15.4047C15.5412 6.25691 15.6518 6.36521 15.6518 6.49885C15.6518 6.63249 15.5412 6.74078 15.4047 6.74078Z" fill="white"/>
  <path d="M8.15294 6.74078H2.62706C2.49059 6.74078 2.38 6.63249 2.38 6.49885C2.38 6.36521 2.49059 6.25691 2.62706 6.25691H8.15294C8.28941 6.25691 8.4 6.36521 8.4 6.49885C8.4 6.63249 8.28941 6.74078 8.15294 6.74078Z" fill="white"/>
  <path d="M8.92 7.85714C8.36118 7.85714 7.90588 7.41129 7.90588 6.86405V6.13134C7.90588 5.5841 8.36118 5.13825 8.92 5.13825C9.47882 5.13825 9.93412 5.5841 9.93412 6.13134V6.86405C9.93412 7.41244 9.47882 7.85714 8.92 7.85714ZM8.92 5.62327C8.63294 5.62327 8.4 5.85138 8.4 6.13249V6.86521C8.4 7.14631 8.63294 7.37442 8.92 7.37442C9.20706 7.37442 9.44 7.14631 9.44 6.86521V6.13249C9.44 5.85138 9.20706 5.62327 8.92 5.62327Z" fill="white"/>
  <path d="M10.4529 7.85714C9.89412 7.85714 9.43882 7.41129 9.43882 6.86405V6.13134C9.43882 5.5841 9.89412 5.13825 10.4529 5.13825C11.0118 5.13825 11.4671 5.5841 11.4671 6.13134V6.86405C11.4671 7.41244 11.0129 7.85714 10.4529 7.85714ZM10.4529 5.62327C10.1659 5.62327 9.93294 5.85138 9.93294 6.13249V6.86521C9.93294 7.14631 10.1659 7.37442 10.4529 7.37442C10.74 7.37442 10.9729 7.14631 10.9729 6.86521V6.13249C10.9729 5.85138 10.74 5.62327 10.4529 5.62327Z" fill="white"/>
  <path d="M11.9871 7.85714C11.4282 7.85714 10.9729 7.41129 10.9729 6.86405V6.13134C10.9729 5.5841 11.4282 5.13825 11.9871 5.13825C12.5459 5.13825 13.0012 5.5841 13.0012 6.13134V6.86405C13.0012 7.41244 12.5459 7.85714 11.9871 7.85714ZM11.9871 5.62327C11.7 5.62327 11.4671 5.85138 11.4671 6.13249V6.86521C11.4671 7.14631 11.7 7.37442 11.9871 7.37442C12.2741 7.37442 12.5071 7.14631 12.5071 6.86521V6.13249C12.5071 5.85138 12.2729 5.62327 11.9871 5.62327Z" fill="white"/>
  <path d="M15.4047 11.0576H13.4565C13.32 11.0576 13.2094 10.9493 13.2094 10.8157C13.2094 10.682 13.32 10.5737 13.4565 10.5737H15.4047C15.5412 10.5737 15.6518 10.682 15.6518 10.8157C15.6518 10.9493 15.5412 11.0576 15.4047 11.0576Z" fill="white"/>
  <path d="M10.3894 11.0576H7.64235C7.50588 11.0576 7.39529 10.9493 7.39529 10.8157C7.39529 10.682 7.50588 10.5737 7.64235 10.5737H10.3894C10.5259 10.5737 10.6365 10.682 10.6365 10.8157C10.6365 10.9493 10.5259 11.0576 10.3894 11.0576Z" fill="white"/>
  <path d="M4.57529 11.0576H2.62706C2.49059 11.0576 2.38 10.9493 2.38 10.8157C2.38 10.682 2.49059 10.5737 2.62706 10.5737H4.57529C4.71176 10.5737 4.82235 10.682 4.82235 10.8157C4.82235 10.9493 4.71176 11.0576 4.57529 11.0576Z" fill="white"/>
  <path d="M5.34235 12.174C4.78353 12.174 4.32824 11.7281 4.32824 11.1809V10.4493C4.32824 9.90207 4.78353 9.45622 5.34235 9.45622C5.90118 9.45622 6.35647 9.90207 6.35647 10.4493V11.182C6.35647 11.7293 5.90118 12.174 5.34235 12.174ZM5.34235 9.94009C5.05529 9.94009 4.82235 10.1682 4.82235 10.4493V11.182C4.82235 11.4631 5.05529 11.6912 5.34235 11.6912C5.62941 11.6912 5.86235 11.4631 5.86235 11.182V10.4493C5.86235 10.1682 5.62824 9.94009 5.34235 9.94009Z" fill="white"/>
  <path d="M6.87529 12.174C6.31647 12.174 5.86118 11.7281 5.86118 11.1809V10.4493C5.86118 9.90207 6.31647 9.45622 6.87529 9.45622C7.43412 9.45622 7.88941 9.90207 7.88941 10.4493V11.182C7.88941 11.7293 7.43412 12.174 6.87529 12.174ZM6.87529 9.94009C6.58824 9.94009 6.35529 10.1682 6.35529 10.4493V11.182C6.35529 11.4631 6.58824 11.6912 6.87529 11.6912C7.16235 11.6912 7.39529 11.4631 7.39529 11.182V10.4493C7.39529 10.1682 7.16235 9.94009 6.87529 9.94009Z" fill="white"/>
  <path d="M11.1565 12.174C10.5976 12.174 10.1424 11.7281 10.1424 11.1809V10.4493C10.1424 9.90207 10.5976 9.45622 11.1565 9.45622C11.7153 9.45622 12.1706 9.90207 12.1706 10.4493V11.182C12.1706 11.7293 11.7153 12.174 11.1565 12.174ZM11.1565 9.94009C10.8694 9.94009 10.6365 10.1682 10.6365 10.4493V11.182C10.6365 11.4631 10.8694 11.6912 11.1565 11.6912C11.4435 11.6912 11.6765 11.4631 11.6765 11.182V10.4493C11.6765 10.1682 11.4424 9.94009 11.1565 9.94009Z" fill="white"/>
  <path d="M12.6894 12.174C12.1306 12.174 11.6753 11.7281 11.6753 11.1809V10.4493C11.6753 9.90207 12.1306 9.45622 12.6894 9.45622C13.2482 9.45622 13.7035 9.90207 13.7035 10.4493V11.182C13.7035 11.7293 13.2482 12.174 12.6894 12.174ZM12.6894 9.94009C12.4024 9.94009 12.1694 10.1682 12.1694 10.4493V11.182C12.1694 11.4631 12.4024 11.6912 12.6894 11.6912C12.9765 11.6912 13.2094 11.4631 13.2094 11.182V10.4493C13.2094 10.1682 12.9765 9.94009 12.6894 9.94009Z" fill="white"/>
</svg>