<svg xmlns="http://www.w3.org/2000/svg" width="18" height="17" viewBox="0 0 18 17" fill="none">
    <path d="M5.76112 0.615308C5.76112 0.276606 5.99535 0 6.27978 0H7.31991C7.60713 0 7.83857 0.276606 7.83857 0.615308V5.22165H5.75833V0.615308H5.76112ZM0.995507 0.615308C0.995507 0.276606 1.22974 0 1.51696 0H2.55709C2.84431 0 3.07576 0.276606 3.07576 0.615308V10.4461H0.995507V0.615308ZM3.07576 16.3847C3.07576 16.7234 2.84152 17 2.55709 17H1.51696C1.22974 17 0.998296 16.7234 0.998296 16.3847V13.3646H3.07854V16.3847H3.07576ZM3.94299 12.34C3.94299 12.6787 3.70875 12.9553 3.42432 12.9553H0.518668C0.234237 12.9553 0 12.6787 0 12.34V11.4707C0 11.132 0.234237 10.8554 0.518668 10.8554H3.42153C3.70875 10.8554 3.9402 11.132 3.9402 11.4707V12.34H3.94299ZM7.84136 16.3847C7.84136 16.7234 7.60713 17 7.3227 17H6.28257C5.99535 17 5.7639 16.7234 5.7639 16.3847V8.14295H7.84415V16.3847H7.84136ZM8.77273 7.11838C8.77273 7.45708 8.5385 7.73369 8.25407 7.73369H5.3512C5.06398 7.73369 4.83253 7.45708 4.83253 7.11838V6.24904C4.83253 5.91034 5.06677 5.63374 5.3512 5.63374H8.25407C8.54129 5.63374 8.77273 5.91034 8.77273 6.24904V7.11838ZM14.9884 0.615308C14.9884 0.276606 15.2226 0 15.507 0H16.5472C16.8344 0 17.0658 0.276606 17.0658 0.615308V2.30599H14.9856V0.615308H14.9884ZM10.2228 0.615308C10.2228 0.276606 10.457 0 10.7414 0H11.7816C12.0688 0 12.3002 0.276606 12.3002 0.615308V8.93608H10.22V0.615308H10.2228ZM12.303 16.3847C12.303 16.7234 12.0688 17 11.7844 17H10.7442C10.457 17 10.2256 16.7234 10.2256 16.3847V11.8546H12.3058V16.3847H12.303ZM13.0615 10.83C13.0615 11.1687 12.8273 11.4453 12.5428 11.4453H9.63997C9.35275 11.4453 9.1213 11.1687 9.1213 10.83V9.96065C9.1213 9.62195 9.35554 9.34534 9.63997 9.34534H12.5428C12.8301 9.34534 13.0615 9.62195 13.0615 9.96065V10.83ZM17.0686 16.3847C17.0686 16.7234 16.8344 17 16.55 17H15.5098C15.2226 17 14.9912 16.7234 14.9912 16.3847V5.22165H17.0714V16.3847H17.0686ZM18 4.1999C18 4.5386 17.7658 4.81521 17.4813 4.81521H14.5785C14.2912 4.81521 14.0598 4.5386 14.0598 4.1999V3.33057C14.0598 2.99186 14.294 2.71526 14.5785 2.71526H17.4813C17.7686 2.71526 18 2.99186 18 3.33057V4.1999Z" fill="white"/>
</svg>