<svg width="61" height="42" viewBox="0 0 61 42" fill="none" xmlns="http://www.w3.org/2000/svg">
    <path d="M13.4394 33.5065C26.7054 38.6837 37.9948 39.6921 50.788 31.6337C50.6942 31.7744 48.1636 35.5235 41.5088 37.4449C42.9147 39.3664 44.8362 41.5689 44.8362 41.5689C49.1009 41.5689 53.2719 40.3504 56.8804 38.0072C59.6923 36.1326 61.2856 32.8989 60.9575 29.5248C60.3952 23.7604 59.036 18.1366 56.9272 12.7473C54.256 5.71766 47.8356 0.843681 40.3841 0.14066C39.7279 0.0937734 39.2593 0.0937737 38.9782 0.0937737L38.2284 0.843542C46.8046 3.28053 51.0693 7.07654 51.163 7.2172C37.994 0.56236 22.435 0.468726 9.1722 6.93602C9.1722 6.93602 13.39 2.76506 22.716 0.562361L22.1537 0C21.1695 0 20.2322 0.0937729 19.2481 0.234294C12.359 1.4059 6.59469 6.13922 4.11081 12.6534C1.955 18.2771 0.549101 24.1821 0.0336269 30.1808C-0.247554 33.3675 1.25212 36.5075 3.87652 38.3353C7.34446 40.6316 11.4685 41.8501 15.6395 41.8501C15.6395 41.8501 17.3266 39.6474 19.0138 37.6792C12.687 35.8045 10.1095 32.0554 10.0626 31.9147L11.2533 32.5227C11.9651 32.8864 12.6948 33.2159 13.4394 33.5065ZM20.7947 29.431C17.7484 29.3372 15.3583 26.7597 15.4521 23.6666C15.5459 20.761 17.8891 18.4178 20.7947 18.324C23.8409 18.4178 26.231 20.9953 26.1372 24.0884C25.9966 26.9942 23.7002 29.3374 20.7947 29.431ZM39.9153 29.431C36.8691 29.3372 34.479 26.7597 34.5728 23.6666C34.6665 20.761 37.0098 18.4178 39.9153 18.324C42.9616 18.4178 45.3517 20.9953 45.2579 24.0884C45.1643 26.9942 42.8209 29.3374 39.9153 29.431Z" fill="#00C07C"/>
</svg>
