<svg width="38" height="48" viewBox="0 0 38 48" fill="none" xmlns="http://www.w3.org/2000/svg">
    <path fill-rule="evenodd" clip-rule="evenodd" d="M19.0016 0.666656V12.3335L19.0016 12.4605C19.0014 13.45 19.0012 14.4116 19.1079 15.2047C19.2281 16.0989 19.521 17.1192 20.3685 17.9667C21.216 18.8142 22.2363 19.1071 23.1304 19.2273C23.9235 19.3339 24.8852 19.3337 25.8746 19.3335H25.8747L26.0016 19.3335H37.6683V33.3333C37.6683 39.933 37.6683 43.2328 35.618 45.2831C33.5678 47.3333 30.268 47.3333 23.6683 47.3333H14.335C7.7353 47.3333 4.43547 47.3333 2.38521 45.2831C0.334961 43.2328 0.334961 39.933 0.334961 33.3333V14.6667C0.334961 8.06699 0.334961 4.76716 2.38521 2.71691C4.43547 0.666656 7.7353 0.666656 14.335 0.666656H19.0016ZM23.6683 0.677438V12.3335C23.6683 13.4994 23.6733 14.1391 23.7329 14.5829L23.7352 14.5999L23.7522 14.6022C24.196 14.6619 24.8357 14.6668 26.0016 14.6668H37.6575C37.6337 13.7062 37.5575 13.0706 37.3131 12.4805C36.9578 11.6229 36.2834 10.9485 34.9346 9.59966L28.7353 3.40033C27.3865 2.05152 26.7121 1.37711 25.8545 1.02189C25.2644 0.777464 24.6288 0.701221 23.6683 0.677438ZM9.66597 26.3335C9.66597 25.0448 10.7106 24.0001 11.9993 24.0001L25.9993 24.0001C27.288 24.0001 28.3326 25.0448 28.3326 26.3335C28.3326 27.6221 27.288 28.6668 25.9993 28.6668H11.9993C10.7106 28.6668 9.66597 27.6221 9.66597 26.3335ZM11.9993 33.3333C10.7106 33.3333 9.66597 34.3779 9.66597 35.6666C9.66597 36.9553 10.7106 37.9999 11.9993 37.9999L21.3326 37.9999C22.6213 37.9999 23.666 36.9553 23.666 35.6666C23.666 34.3779 22.6213 33.3333 21.3326 33.3333H11.9993Z" fill="#00C07C"/>
</svg>
