<svg width="115" height="91" viewBox="0 0 115 91" fill="none" xmlns="http://www.w3.org/2000/svg">
    <path d="M16.5644 87.0532C16.5644 87.5482 16.4555 87.9343 16.2376 88.2115C16.0396 88.469 15.7129 88.7165 15.2575 88.9541C15.0001 89.1125 14.6734 89.261 14.2774 89.3996C13.9012 89.5184 13.4755 89.6174 13.0002 89.6966C12.5448 89.7956 12.0696 89.8748 11.5746 89.9342C11.0796 89.9936 10.5846 90.0233 10.0896 90.0233C8.68371 90.0233 7.37687 89.8451 6.16903 89.4887C4.98099 89.1125 3.94146 88.5383 3.05043 87.766C2.17921 86.9938 1.49608 86.0137 1.00107 84.8256C0.506053 83.6376 0.258545 82.2219 0.258545 80.5784C0.258545 79.0142 0.506053 77.638 1.00107 76.45C1.51588 75.2421 2.20891 74.2422 3.08013 73.4502C3.97116 72.6582 5.0008 72.0641 6.16903 71.6681C7.33727 71.2523 8.59461 71.0444 9.94105 71.0444C10.8321 71.0444 11.634 71.1236 12.3468 71.282C13.0795 71.4206 13.7032 71.6186 14.218 71.876C14.7526 72.1136 15.1585 72.4106 15.4357 72.7671C15.7129 73.1037 15.8515 73.4601 15.8515 73.8363C15.8515 74.2323 15.7426 74.5788 15.5248 74.8758C15.307 75.1728 15.0595 75.4005 14.7823 75.5589C14.2675 75.2223 13.6438 74.9154 12.9111 74.6382C12.1785 74.3412 11.2776 74.1927 10.2084 74.1927C9.33713 74.1927 8.53521 74.3412 7.80258 74.6382C7.06996 74.9154 6.43634 75.3213 5.90172 75.856C5.38691 76.3906 4.98099 77.0539 4.68398 77.8459C4.38698 78.6379 4.23847 79.5389 4.23847 80.5487C4.23847 81.6377 4.38698 82.5783 4.68398 83.3703C4.98099 84.1623 5.38691 84.8256 5.90172 85.3603C6.43634 85.8751 7.06006 86.2612 7.77288 86.5186C8.50551 86.7562 9.29753 86.875 10.149 86.875C10.7232 86.875 11.2479 86.8255 11.7231 86.7265C12.1983 86.6275 12.5646 86.5087 12.822 86.3701V82.2417H9.02032C8.92132 82.0833 8.83222 81.8753 8.75301 81.6179C8.67381 81.3605 8.63421 81.0734 8.63421 80.7566C8.63421 80.2418 8.75301 79.8557 8.99062 79.5983C9.24803 79.3409 9.57474 79.2122 9.97075 79.2122H14.9605C15.4555 79.2122 15.8416 79.3508 16.1188 79.628C16.4159 79.9052 16.5644 80.2913 16.5644 80.7863V87.0532Z" fill="#042D3A"/>
    <path d="M25.9262 87.1423C26.5004 87.1423 27.0251 87.0928 27.5003 86.9938C27.9756 86.875 28.3221 86.7364 28.5399 86.578V83.2812L25.6589 83.5485C24.8669 83.6277 24.2629 83.8059 23.8471 84.0831C23.4313 84.3405 23.2234 84.7563 23.2234 85.3306C23.2234 85.9048 23.4313 86.3503 23.8471 86.6671C24.2827 86.9839 24.9758 87.1423 25.9262 87.1423ZM25.8074 75.054C27.7478 75.054 29.2923 75.4698 30.4407 76.3015C31.609 77.1331 32.1931 78.4201 32.1931 80.1626V87.0235C32.1931 87.4987 32.0743 87.8749 31.8367 88.1521C31.5991 88.4294 31.3021 88.6769 30.9457 88.8947C30.3912 89.2313 29.6883 89.4986 28.8369 89.6966C27.9855 89.8946 27.0152 89.9936 25.9262 89.9936C23.9461 89.9936 22.3819 89.6174 21.2334 88.865C20.1048 88.0927 19.5405 86.9443 19.5405 85.4197C19.5405 84.093 19.9563 83.0832 20.7879 82.3902C21.6394 81.6773 22.867 81.2417 24.4708 81.0833L28.5399 80.6675V80.1329C28.5399 79.3805 28.2627 78.826 27.7082 78.4696C27.1736 78.1132 26.4113 77.935 25.4213 77.935C24.649 77.935 23.8966 78.034 23.164 78.232C22.4314 78.4102 21.778 78.6379 21.2037 78.9151C20.9859 78.7567 20.7978 78.5488 20.6394 78.2914C20.5008 78.0142 20.4315 77.7172 20.4315 77.4004C20.4315 77.0044 20.5206 76.6876 20.6988 76.45C20.8968 76.1926 21.2037 75.9649 21.6196 75.7669C22.1938 75.5292 22.8472 75.351 23.5798 75.2322C24.3124 75.1134 25.055 75.054 25.8074 75.054Z" fill="#042D3A"/>
    <path d="M36.0382 75.5886C36.1966 75.549 36.4243 75.4995 36.7213 75.4401C37.0381 75.3807 37.3747 75.351 37.7312 75.351C38.444 75.351 38.9588 75.4797 39.2756 75.7371C39.6122 75.9946 39.7805 76.45 39.7805 77.1034V89.5184C39.6221 89.558 39.3845 89.6075 39.0677 89.6669C38.7707 89.7263 38.444 89.756 38.0876 89.756C37.3747 89.756 36.85 89.6273 36.5134 89.3699C36.1966 89.1125 36.0382 88.6571 36.0382 88.0036V75.5886ZM35.7412 71.282C35.7412 70.7078 35.9392 70.2227 36.3352 69.8267C36.751 69.4108 37.2757 69.2029 37.9094 69.2029C38.543 69.2029 39.0578 69.4108 39.4538 69.8267C39.8498 70.2227 40.0478 70.7078 40.0478 71.282C40.0478 71.876 39.8498 72.3809 39.4538 72.7968C39.0578 73.1928 38.543 73.3908 37.9094 73.3908C37.2757 73.3908 36.751 73.1928 36.3352 72.7968C35.9392 72.3809 35.7412 71.876 35.7412 71.282Z" fill="#042D3A"/>
    <path d="M49.2171 87.1423C49.7913 87.1423 50.316 87.0928 50.7912 86.9938C51.2664 86.875 51.6129 86.7364 51.8307 86.578V83.2812L48.9498 83.5485C48.1577 83.6277 47.5538 83.8059 47.138 84.0831C46.7222 84.3405 46.5143 84.7563 46.5143 85.3306C46.5143 85.9048 46.7222 86.3503 47.138 86.6671C47.5736 86.9839 48.2666 87.1423 49.2171 87.1423ZM49.0983 75.054C51.0387 75.054 52.5832 75.4698 53.7316 76.3015C54.8998 77.1331 55.484 78.4201 55.484 80.1626V87.0235C55.484 87.4987 55.3652 87.8749 55.1276 88.1521C54.8899 88.4294 54.5929 88.6769 54.2365 88.8947C53.6821 89.2313 52.9792 89.4986 52.1278 89.6966C51.2763 89.8946 50.3061 89.9936 49.2171 89.9936C47.237 89.9936 45.6728 89.6174 44.5243 88.865C43.3957 88.0927 42.8314 86.9443 42.8314 85.4197C42.8314 84.093 43.2472 83.0832 44.0788 82.3902C44.9302 81.6773 46.1579 81.2417 47.7617 81.0833L51.8307 80.6675V80.1329C51.8307 79.3805 51.5535 78.826 50.9991 78.4696C50.4645 78.1132 49.7022 77.935 48.7122 77.935C47.9399 77.935 47.1875 78.034 46.4549 78.232C45.7223 78.4102 45.0688 78.6379 44.4946 78.9151C44.2768 78.7567 44.0887 78.5488 43.9303 78.2914C43.7917 78.0142 43.7224 77.7172 43.7224 77.4004C43.7224 77.0044 43.8115 76.6876 43.9897 76.45C44.1877 76.1926 44.4946 75.9649 44.9104 75.7669C45.4846 75.5292 46.1381 75.351 46.8707 75.2322C47.6033 75.1134 48.3458 75.054 49.0983 75.054Z" fill="#042D3A"/>
    <path d="M77.5712 80.4596C77.5712 79.3904 77.4227 78.4696 77.1257 77.6974C76.8287 76.9054 76.4129 76.2619 75.8783 75.7669C75.3635 75.252 74.7398 74.8758 74.0071 74.6382C73.2943 74.3808 72.5122 74.2521 71.6608 74.2521C71.2053 74.2521 70.7895 74.2719 70.4133 74.3115C70.0569 74.3313 69.7104 74.361 69.3738 74.4006V86.6077C69.7104 86.6869 70.0866 86.7463 70.5024 86.7859C70.938 86.8057 71.3638 86.8156 71.7796 86.8156C73.621 86.8156 75.0467 86.281 76.0565 85.2118C77.0663 84.1425 77.5712 82.5585 77.5712 80.4596ZM81.5215 80.4299C81.5215 82.0337 81.2839 83.4396 80.8086 84.6474C80.3532 85.8355 79.6998 86.8255 78.8484 87.6175C77.997 88.3897 76.9673 88.9739 75.7595 89.3699C74.5715 89.7659 73.2448 89.9639 71.7796 89.9639C71.443 89.9639 71.0766 89.954 70.6806 89.9342C70.2846 89.9342 69.8688 89.9045 69.4332 89.8451C69.0174 89.8055 68.5917 89.7461 68.1561 89.6669C67.7402 89.5877 67.3442 89.4788 66.968 89.3402C66.0176 88.9838 65.5424 88.3897 65.5424 87.5581V73.0047C65.5424 72.6483 65.6414 72.371 65.8394 72.173C66.0374 71.975 66.3146 71.8166 66.671 71.6978C67.4036 71.4404 68.1957 71.282 69.0471 71.2226C69.9183 71.1434 70.74 71.1038 71.5123 71.1038C72.9973 71.1038 74.3536 71.3018 75.5813 71.6978C76.8287 72.074 77.8881 72.6483 78.7593 73.4205C79.6305 74.1927 80.3037 75.1629 80.779 76.3312C81.274 77.4994 81.5215 78.8656 81.5215 80.4299Z" fill="#042D3A"/>
    <path d="M90.2589 87.1423C90.8331 87.1423 91.3578 87.0928 91.833 86.9938C92.3083 86.875 92.6548 86.7364 92.8726 86.578V83.2812L89.9916 83.5485C89.1996 83.6277 88.5956 83.8059 88.1798 84.0831C87.764 84.3405 87.5561 84.7563 87.5561 85.3306C87.5561 85.9048 87.764 86.3503 88.1798 86.6671C88.6154 86.9839 89.3085 87.1423 90.2589 87.1423ZM90.1401 75.054C92.0805 75.054 93.625 75.4698 94.7734 76.3015C95.9417 77.1331 96.5258 78.4201 96.5258 80.1626V87.0235C96.5258 87.4987 96.407 87.8749 96.1694 88.1521C95.9318 88.4294 95.6348 88.6769 95.2783 88.8947C94.7239 89.2313 94.021 89.4986 93.1696 89.6966C92.3182 89.8946 91.3479 89.9936 90.2589 89.9936C88.2788 89.9936 86.7146 89.6174 85.5661 88.865C84.4375 88.0927 83.8732 86.9443 83.8732 85.4197C83.8732 84.093 84.289 83.0832 85.1206 82.3902C85.9721 81.6773 87.1997 81.2417 88.8035 81.0833L92.8726 80.6675V80.1329C92.8726 79.3805 92.5954 78.826 92.0409 78.4696C91.5063 78.1132 90.744 77.935 89.754 77.935C88.9818 77.935 88.2293 78.034 87.4967 78.232C86.7641 78.4102 86.1107 78.6379 85.5364 78.9151C85.3186 78.7567 85.1305 78.5488 84.9721 78.2914C84.8335 78.0142 84.7642 77.7172 84.7642 77.4004C84.7642 77.0044 84.8533 76.6876 85.0315 76.45C85.2295 76.1926 85.5364 75.9649 85.9523 75.7669C86.5265 75.5292 87.1799 75.351 87.9125 75.2322C88.6451 75.1134 89.3877 75.054 90.1401 75.054Z" fill="#042D3A"/>
    <path d="M114.093 82.509C114.093 83.6574 113.915 84.6969 113.558 85.6276C113.222 86.5384 112.736 87.3205 112.103 87.9739C111.469 88.6274 110.707 89.1323 109.816 89.4887C108.925 89.8253 107.925 89.9936 106.816 89.9936C105.707 89.9936 104.707 89.8253 103.816 89.4887C102.925 89.1323 102.163 88.6373 101.529 88.0036C100.896 87.3502 100.401 86.5681 100.044 85.6573C99.7076 84.7266 99.5393 83.6772 99.5393 82.509C99.5393 81.3605 99.7076 80.3309 100.044 79.4201C100.401 78.4894 100.896 77.7073 101.529 77.0737C102.183 76.4203 102.955 75.9253 103.846 75.5886C104.737 75.2322 105.727 75.054 106.816 75.054C107.905 75.054 108.895 75.2322 109.786 75.5886C110.677 75.9253 111.439 76.4203 112.073 77.0737C112.726 77.7271 113.222 78.5191 113.558 79.4498C113.915 80.3606 114.093 81.3803 114.093 82.509ZM106.816 78.0241C105.747 78.0241 104.905 78.4201 104.291 79.2122C103.678 79.9844 103.371 81.0833 103.371 82.509C103.371 83.9544 103.668 85.0632 104.262 85.8355C104.876 86.6077 105.727 86.9938 106.816 86.9938C107.905 86.9938 108.747 86.6077 109.341 85.8355C109.954 85.0434 110.261 83.9346 110.261 82.509C110.261 81.0833 109.954 79.9844 109.341 79.2122C108.727 78.4201 107.885 78.0241 106.816 78.0241Z" fill="#042D3A"/>
    <path d="M62.7461 39.9261C62.2011 40.4711 54.7149 44.7606 61.6559 60.6362H51.8463C59.453 44.7606 51.3011 40.4712 50.7561 39.9261C50.2111 39.3811 63.2911 39.3811 62.7461 39.9261Z" fill="#042D3A"/>
    <path d="M28.0499 48.9108C34.4001 38.7816 40.9867 44.6352 40.9867 44.6352C40.9867 44.6352 39.642 52.863 28.0499 48.9108Z" fill="#00C07C"/>
    <path d="M25.5216 33.5416C37.3457 31.776 37.1841 40.5863 37.1841 40.5863C37.1841 40.5863 30.0602 44.917 25.5216 33.5416Z" fill="#00C07C"/>
    <path d="M38.4389 24.7749C47.969 31.9931 41.5576 38.0381 41.5576 38.0381C41.5576 38.0381 33.4804 35.9735 38.4389 24.7749Z" fill="#00C07C"/>
    <path d="M28.7287 17.7845C38.2588 25.0027 31.8474 31.0477 31.8474 31.0477C31.8474 31.0477 23.7702 28.9832 28.7287 17.7845Z" fill="#00C07C"/>
    <path d="M38.4048 7.4195C43.9827 17.9936 35.6151 20.7558 35.6151 20.7558C35.6151 20.7558 29.1715 15.4658 38.4048 7.4195Z" fill="#00C07C"/>
    <path d="M53.7513 1.49282C50.488 12.994 42.527 9.21648 42.527 9.21648C42.527 9.21648 41.5164 0.941044 53.7513 1.49282Z" fill="#00C07C"/>
    <path d="M51.4771 12.1254C53.162 23.9612 44.353 23.7395 44.353 23.7395C44.353 23.7395 40.071 16.5862 51.4771 12.1254Z" fill="#00C07C"/>
    <path d="M49.6885 24.6011C56.3878 34.5029 48.3718 38.1624 48.3718 38.1624C48.3718 38.1624 41.389 33.6076 49.6885 24.6011Z" fill="#00C07C"/>
    <path d="M55.2771 18.5111C66.0171 23.7626 60.8875 30.9274 60.8875 30.9274C60.8875 30.9274 52.564 30.4541 55.2771 18.5111Z" fill="#00C07C"/>
    <path d="M61.219 2.0753C65.7585 13.135 57.1648 15.0831 57.1648 15.0831C57.1648 15.0831 51.2575 9.20031 61.219 2.0753Z" fill="#00C07C"/>
    <path d="M65.0908 11.8493C75.7147 17.3318 70.4313 24.384 70.4313 24.384C70.4313 24.384 62.12 23.7309 65.0908 11.8493Z" fill="#00C07C"/>
    <path d="M68.2794 4.5472C79.9529 7.12713 76.6511 15.2969 76.6511 15.2969C76.6511 15.2969 68.4495 16.7934 68.2794 4.5472Z" fill="#00C07C"/>
    <path d="M81.4831 17.4026C85.2951 28.7337 76.593 30.1198 76.593 30.1198C76.593 30.1198 71.0801 23.8659 81.4831 17.4026Z" fill="#00C07C"/>
    <path d="M71.6731 26.1229C75.4851 37.454 66.783 38.8401 66.783 38.8401C66.783 38.8401 61.27 32.5862 71.6731 26.1229Z" fill="#00C07C"/>
    <path d="M86.7258 32.0565C81.9188 43.0027 74.5498 38.171 74.5498 38.171C74.5498 38.171 74.6816 29.8351 86.7258 32.0565Z" fill="#00C07C"/>
    <path d="M82.4322 45.7388C72.4311 52.2889 68.8923 44.2189 68.8923 44.2189C68.8923 44.2189 73.5512 37.3052 82.4322 45.7388Z" fill="#00C07C"/>
</svg>
