<svg width="108" height="79" viewBox="0 0 108 79" fill="none" xmlns="http://www.w3.org/2000/svg">
    <path d="M15.2341 74.5794C15.2341 74.9965 15.1423 75.3219 14.9588 75.5555C14.7919 75.7724 14.5166 75.9809 14.1329 76.1811C13.916 76.3146 13.6407 76.4397 13.307 76.5565C12.99 76.6566 12.6313 76.74 12.2309 76.8068C11.8472 76.8902 11.4468 76.9569 11.0297 77.007C10.6126 77.057 10.1955 77.0821 9.77836 77.0821C8.59379 77.0821 7.49264 76.9319 6.47491 76.6316C5.47386 76.3146 4.59795 75.8308 3.84716 75.1801C3.11306 74.5294 2.53746 73.7035 2.12036 72.7025C1.70326 71.7014 1.49471 70.5085 1.49471 69.1237C1.49471 67.8057 1.70326 66.6462 2.12036 65.6451C2.55415 64.6274 3.13809 63.7848 3.87219 63.1175C4.62297 62.4501 5.49055 61.9496 6.47491 61.6159C7.45927 61.2655 8.51871 61.0904 9.65323 61.0904C10.404 61.0904 11.0797 61.1571 11.6803 61.2906C12.2977 61.4074 12.8232 61.5742 13.257 61.7911C13.7075 61.9913 14.0495 62.2416 14.2831 62.5419C14.5166 62.8255 14.6334 63.1258 14.6334 63.4428C14.6334 63.7765 14.5417 64.0685 14.3581 64.3187C14.1746 64.569 13.9661 64.7609 13.7325 64.8943C13.2987 64.6107 12.7732 64.3521 12.1558 64.1185C11.5385 63.8683 10.7794 63.7431 9.87846 63.7431C9.14436 63.7431 8.46866 63.8683 7.85135 64.1185C7.23403 64.3521 6.70014 64.6941 6.24967 65.1446C5.81589 65.5951 5.47386 66.154 5.2236 66.8213C4.97334 67.4887 4.84821 68.2478 4.84821 69.0987C4.84821 70.0163 4.97334 70.8088 5.2236 71.4762C5.47386 72.1436 5.81589 72.7025 6.24967 73.153C6.70014 73.5867 7.22569 73.9121 7.82632 74.129C8.44363 74.3292 9.11099 74.4293 9.82841 74.4293C10.3122 74.4293 10.7544 74.3876 11.1548 74.3042C11.5552 74.2207 11.8639 74.1206 12.0808 74.0038V70.5252H8.87742C8.794 70.3917 8.71892 70.2166 8.65218 69.9997C8.58545 69.7828 8.55208 69.5408 8.55208 69.2739C8.55208 68.8401 8.65218 68.5148 8.85239 68.2979C9.06928 68.081 9.34457 67.9725 9.67825 67.9725H13.8826C14.2997 67.9725 14.6251 68.0893 14.8587 68.3229C15.1089 68.5565 15.2341 68.8818 15.2341 69.2989V74.5794ZM23.1224 74.6545C23.6062 74.6545 24.0483 74.6128 24.4488 74.5294C24.8492 74.4293 25.1412 74.3125 25.3247 74.179V71.4011L22.8971 71.6264C22.2298 71.6931 21.7209 71.8433 21.3705 72.0768C21.0202 72.2937 20.845 72.6441 20.845 73.1279C20.845 73.6118 21.0202 73.9872 21.3705 74.2541C21.7376 74.5211 22.3215 74.6545 23.1224 74.6545ZM23.0223 64.4689C24.6573 64.4689 25.9587 64.8192 26.9263 65.52C27.9107 66.2207 28.4029 67.3052 28.4029 68.7734V74.5544C28.4029 74.9548 28.3028 75.2718 28.1026 75.5054C27.9024 75.739 27.6521 75.9475 27.3518 76.1311C26.8846 76.4147 26.2924 76.6399 25.5749 76.8068C24.8575 76.9736 24.04 77.057 23.1224 77.057C21.454 77.057 20.1359 76.74 19.1682 76.106C18.2173 75.4554 17.7418 74.4877 17.7418 73.203C17.7418 72.0852 18.0921 71.2343 18.7929 70.6503C19.5103 70.0497 20.5447 69.6827 21.8961 69.5492L25.3247 69.1988V68.7484C25.3247 68.1144 25.0911 67.6472 24.6239 67.3469C24.1735 67.0466 23.5311 66.8964 22.6969 66.8964C22.0463 66.8964 21.4123 66.9798 20.7949 67.1467C20.1776 67.2968 19.6271 67.4887 19.1432 67.7223C18.9597 67.5888 18.8012 67.4136 18.6677 67.1967C18.5509 66.9632 18.4925 66.7129 18.4925 66.4459C18.4925 66.1123 18.5676 65.8453 18.7178 65.6451C18.8846 65.4282 19.1432 65.2364 19.4936 65.0695C19.9774 64.8693 20.528 64.7191 21.1453 64.619C21.7626 64.5189 22.3883 64.4689 23.0223 64.4689ZM31.6428 64.9194C31.7763 64.886 31.9681 64.8443 32.2184 64.7942C32.4853 64.7442 32.769 64.7191 33.0693 64.7191C33.6699 64.7191 34.1037 64.8276 34.3706 65.0445C34.6543 65.2614 34.7961 65.6451 34.7961 66.1957V76.6566C34.6626 76.69 34.4624 76.7317 34.1955 76.7817C33.9452 76.8318 33.6699 76.8568 33.3696 76.8568C32.769 76.8568 32.3268 76.7484 32.0432 76.5315C31.7763 76.3146 31.6428 75.9309 31.6428 75.3803V64.9194ZM31.3925 61.2906C31.3925 60.8067 31.5594 60.398 31.8931 60.0643C32.2434 59.7139 32.6856 59.5387 33.2194 59.5387C33.7533 59.5387 34.1871 59.7139 34.5208 60.0643C34.8545 60.398 35.0213 60.8067 35.0213 61.2906C35.0213 61.7911 34.8545 62.2165 34.5208 62.5669C34.1871 62.9006 33.7533 63.0674 33.2194 63.0674C32.6856 63.0674 32.2434 62.9006 31.8931 62.5669C31.5594 62.2165 31.3925 61.7911 31.3925 61.2906ZM42.7474 74.6545C43.2312 74.6545 43.6733 74.6128 44.0738 74.5294C44.4742 74.4293 44.7661 74.3125 44.9497 74.179V71.4011L42.5221 71.6264C41.8548 71.6931 41.3459 71.8433 40.9955 72.0768C40.6452 72.2937 40.47 72.6441 40.47 73.1279C40.47 73.6118 40.6452 73.9872 40.9955 74.2541C41.3626 74.5211 41.9465 74.6545 42.7474 74.6545ZM42.6473 64.4689C44.2823 64.4689 45.5837 64.8192 46.5513 65.52C47.5357 66.2207 48.0279 67.3052 48.0279 68.7734V74.5544C48.0279 74.9548 47.9278 75.2718 47.7276 75.5054C47.5274 75.739 47.2771 75.9475 46.9768 76.1311C46.5096 76.4147 45.9173 76.6399 45.1999 76.8068C44.4825 76.9736 43.665 77.057 42.7474 77.057C41.079 77.057 39.7609 76.74 38.7932 76.106C37.8422 75.4554 37.3667 74.4877 37.3667 73.203C37.3667 72.0852 37.7171 71.2343 38.4178 70.6503C39.1353 70.0497 40.1697 69.6827 41.5211 69.5492L44.9497 69.1988V68.7484C44.9497 68.1144 44.7161 67.6472 44.2489 67.3469C43.7985 67.0466 43.1561 66.8964 42.3219 66.8964C41.6712 66.8964 41.0372 66.9798 40.4199 67.1467C39.8026 67.2968 39.252 67.4887 38.7682 67.7223C38.5847 67.5888 38.4262 67.4136 38.2927 67.1967C38.1759 66.9632 38.1175 66.7129 38.1175 66.4459C38.1175 66.1123 38.1926 65.8453 38.3428 65.6451C38.5096 65.4282 38.7682 65.2364 39.1186 65.0695C39.6024 64.8693 40.153 64.7191 40.7703 64.619C41.3876 64.5189 42.0133 64.4689 42.6473 64.4689ZM66.6387 69.0236C66.6387 68.1227 66.5136 67.3469 66.2633 66.6962C66.0131 66.0288 65.6627 65.4866 65.2122 65.0695C64.7785 64.6357 64.2529 64.3187 63.6356 64.1185C63.035 63.9016 62.3759 63.7932 61.6585 63.7932C61.2748 63.7932 60.9244 63.8099 60.6074 63.8432C60.3071 63.8599 60.0151 63.8849 59.7315 63.9183V74.2041C60.0151 74.2708 60.3321 74.3208 60.6825 74.3542C61.0496 74.3709 61.4083 74.3792 61.7586 74.3792C63.3103 74.3792 64.5115 73.9288 65.3624 73.0278C66.2133 72.1269 66.6387 70.7922 66.6387 69.0236ZM69.9672 68.9986C69.9672 70.35 69.767 71.5346 69.3666 72.5523C68.9828 73.5534 68.4323 74.3876 67.7149 75.0549C66.9974 75.7056 66.1299 76.1978 65.1121 76.5315C64.1111 76.8652 62.9933 77.032 61.7586 77.032C61.475 77.032 61.1663 77.0237 60.8327 77.007C60.499 77.007 60.1486 76.982 59.7816 76.9319C59.4312 76.8985 59.0725 76.8485 58.7054 76.7817C58.3551 76.715 58.0214 76.6232 57.7044 76.5065C56.9036 76.2061 56.5031 75.7056 56.5031 75.0049V62.7421C56.5031 62.4418 56.5866 62.2082 56.7534 62.0413C56.9202 61.8745 57.1538 61.741 57.4541 61.6409C58.0714 61.424 58.7388 61.2906 59.4562 61.2405C60.1903 61.1738 60.8827 61.1404 61.5334 61.1404C62.7847 61.1404 63.9276 61.3072 64.962 61.6409C66.0131 61.9579 66.9057 62.4418 67.6398 63.0924C68.3739 63.7431 68.9411 64.5606 69.3416 65.545C69.7587 66.5294 69.9672 67.6806 69.9672 68.9986ZM77.3294 74.6545C77.8132 74.6545 78.2554 74.6128 78.6558 74.5294C79.0562 74.4293 79.3482 74.3125 79.5317 74.179V71.4011L77.1042 71.6264C76.4368 71.6931 75.9279 71.8433 75.5776 72.0768C75.2272 72.2937 75.052 72.6441 75.052 73.1279C75.052 73.6118 75.2272 73.9872 75.5776 74.2541C75.9446 74.5211 76.5286 74.6545 77.3294 74.6545ZM77.2293 64.4689C78.8643 64.4689 80.1657 64.8192 81.1334 65.52C82.1177 66.2207 82.6099 67.3052 82.6099 68.7734V74.5544C82.6099 74.9548 82.5098 75.2718 82.3096 75.5054C82.1094 75.739 81.8591 75.9475 81.5588 76.1311C81.0917 76.4147 80.4994 76.6399 79.782 76.8068C79.0645 76.9736 78.247 77.057 77.3294 77.057C75.661 77.057 74.3429 76.74 73.3753 76.106C72.4243 75.4554 71.9488 74.4877 71.9488 73.203C71.9488 72.0852 72.2991 71.2343 72.9999 70.6503C73.7173 70.0497 74.7517 69.6827 76.1031 69.5492L79.5317 69.1988V68.7484C79.5317 68.1144 79.2981 67.6472 78.831 67.3469C78.3805 67.0466 77.7381 66.8964 76.9039 66.8964C76.2533 66.8964 75.6193 66.9798 75.002 67.1467C74.3846 67.2968 73.8341 67.4887 73.3502 67.7223C73.1667 67.5888 73.0082 67.4136 72.8747 67.1967C72.7579 66.9632 72.6996 66.7129 72.6996 66.4459C72.6996 66.1123 72.7746 65.8453 72.9248 65.6451C73.0916 65.4282 73.3502 65.2364 73.7006 65.0695C74.1844 64.8693 74.735 64.7191 75.3523 64.619C75.9696 64.5189 76.5953 64.4689 77.2293 64.4689ZM97.4119 70.7504C97.4119 71.7181 97.2617 72.594 96.9614 73.3782C96.6778 74.1457 96.269 74.8047 95.7351 75.3553C95.2013 75.9058 94.5589 76.3313 93.8081 76.6316C93.0573 76.9152 92.2148 77.057 91.2805 77.057C90.3462 77.057 89.5036 76.9152 88.7529 76.6316C88.0021 76.3313 87.3597 75.9142 86.8258 75.3803C86.2919 74.8297 85.8748 74.1707 85.5745 73.4032C85.2909 72.6191 85.1491 71.7348 85.1491 70.7504C85.1491 69.7828 85.2909 68.9152 85.5745 68.1477C85.8748 67.3636 86.2919 66.7046 86.8258 66.1707C87.3764 65.6201 88.0271 65.203 88.7779 64.9194C89.5287 64.619 90.3629 64.4689 91.2805 64.4689C92.1981 64.4689 93.0323 64.619 93.7831 64.9194C94.5339 65.203 95.1762 65.6201 95.7101 66.1707C96.2607 66.7212 96.6778 67.3886 96.9614 68.1728C97.2617 68.9402 97.4119 69.7995 97.4119 70.7504ZM91.2805 66.9715C90.3796 66.9715 89.6705 67.3052 89.1533 67.9725C88.6361 68.6232 88.3775 69.5492 88.3775 70.7504C88.3775 71.9684 88.6277 72.9027 89.1282 73.5534C89.6455 74.2041 90.3629 74.5294 91.2805 74.5294C92.1981 74.5294 92.9072 74.2041 93.4077 73.5534C93.9249 72.886 94.1835 71.9517 94.1835 70.7504C94.1835 69.5492 93.9249 68.6232 93.4077 67.9725C92.8905 67.3052 92.1814 66.9715 91.2805 66.9715Z" fill="white"/>
    <path d="M54.5956 33.5534C54.1363 34.0126 47.8285 37.6269 53.6769 51.0038H45.4114C51.8208 37.6269 44.9519 34.0126 44.4927 33.5534C44.0335 33.0942 55.0548 33.0942 54.5956 33.5534Z" fill="white"/>
    <path d="M25.3603 41.1244C30.711 32.5895 36.2609 37.5218 36.2609 37.5218C36.2609 37.5218 35.1279 44.4546 25.3603 41.1244Z" fill="#00C07C"/>
    <path d="M23.2301 28.1742C33.1931 26.6864 33.0569 34.11 33.0569 34.11C33.0569 34.11 27.0543 37.7591 23.2301 28.1742Z" fill="#00C07C"/>
    <path d="M34.1142 20.7871C42.1443 26.8692 36.7421 31.9627 36.7421 31.9627C36.7421 31.9627 29.9362 30.2231 34.1142 20.7871Z" fill="#00C07C"/>
    <path d="M25.9324 14.8973C33.9625 20.9794 28.5602 26.073 28.5602 26.073C28.5602 26.073 21.7543 24.3334 25.9324 14.8973Z" fill="#00C07C"/>
    <path d="M34.0855 6.16355C38.7855 15.0734 31.7349 17.4008 31.7349 17.4008C31.7349 17.4008 26.3055 12.9434 34.0855 6.16355Z" fill="#00C07C"/>
    <path d="M47.0164 1.16974C44.2667 10.8607 37.5587 7.67773 37.5587 7.67773C37.5587 7.67773 36.7072 0.704812 47.0164 1.16974Z" fill="#00C07C"/>
    <path d="M45.1001 10.1287C46.5198 20.1016 39.0973 19.9148 39.0973 19.9148C39.0973 19.9148 35.4893 13.8875 45.1001 10.1287Z" fill="#00C07C"/>
    <path d="M43.5931 20.641C49.2379 28.9843 42.4836 32.0677 42.4836 32.0677C42.4836 32.0677 36.6 28.2298 43.5931 20.641Z" fill="#00C07C"/>
    <path d="M48.3022 15.5092C57.3517 19.9341 53.0295 25.9712 53.0295 25.9712C53.0295 25.9712 46.0161 25.5725 48.3022 15.5092Z" fill="#00C07C"/>
    <path d="M53.3087 1.66017C57.1337 10.9792 49.8926 12.6206 49.8926 12.6206C49.8926 12.6206 44.915 7.66373 53.3087 1.66017Z" fill="#00C07C"/>
    <path d="M56.5711 9.89627C65.5229 14.5159 61.071 20.4581 61.071 20.4581C61.071 20.4581 54.0679 19.9077 56.5711 9.89627Z" fill="#00C07C"/>
    <path d="M59.258 3.74317C69.0941 5.91702 66.3119 12.8009 66.3119 12.8009C66.3119 12.8009 59.4013 14.0618 59.258 3.74317Z" fill="#00C07C"/>
    <path d="M70.3833 14.5756C73.5953 24.1233 66.2629 25.2912 66.2629 25.2912C66.2629 25.2912 61.6176 20.0216 70.3833 14.5756Z" fill="#00C07C"/>
    <path d="M62.1174 21.9232C65.3295 31.4708 57.997 32.6387 57.997 32.6387C57.997 32.6387 53.3518 27.3692 62.1174 21.9232Z" fill="#00C07C"/>
    <path d="M74.8007 26.9226C70.7504 36.1459 64.5412 32.0747 64.5412 32.0747C64.5412 32.0747 64.6522 25.0509 74.8007 26.9226Z" fill="#00C07C"/>
    <path d="M71.1831 38.4515C62.7561 43.9706 59.7743 37.1708 59.7743 37.1708C59.7743 37.1708 63.7 31.3453 71.1831 38.4515Z" fill="#00C07C"/>
</svg>
