<svg width="34" height="33" viewBox="0 0 34 33" fill="none" xmlns="http://www.w3.org/2000/svg">
    <path d="M20.5434 21.3406C20.2501 21.6339 16.2208 23.9426 19.9566 32.4874H14.6768C18.771 23.9426 14.3833 21.6339 14.09 21.3406C13.7966 21.0472 20.8368 21.0472 20.5434 21.3406Z" fill="#042D3A"/>
    <path d="M1.86861 26.1764C5.28652 20.7245 8.83164 23.8751 8.83164 23.8751C8.83164 23.8751 8.10792 28.3036 1.86861 26.1764Z" fill="#00C07C"/>
    <path d="M0.506973 17.9042C6.87111 16.9538 6.78413 21.6959 6.78413 21.6959C6.78413 21.6959 2.94982 24.0268 0.506973 17.9042Z" fill="#00C07C"/>
    <path d="M7.46038 13.1856C12.5898 17.0707 9.139 20.3244 9.139 20.3244C9.139 20.3244 4.79154 19.2132 7.46038 13.1856Z" fill="#00C07C"/>
    <path d="M2.23333 9.4231C7.36278 13.3082 3.91195 16.5619 3.91195 16.5619C3.91195 16.5619 -0.435516 15.4506 2.23333 9.4231Z" fill="#00C07C"/>
    <path d="M7.44179 3.84427C10.444 9.53566 5.94024 11.0224 5.94024 11.0224C5.94024 11.0224 2.47207 8.17508 7.44179 3.84427Z" fill="#00C07C"/>
    <path d="M15.701 0.654336C13.9446 6.84468 9.65965 4.81149 9.65965 4.81149C9.65965 4.81149 9.11572 0.357349 15.701 0.654336Z" fill="#00C07C"/>
    <path d="M14.4769 6.37716C15.3838 12.7476 10.6425 12.6283 10.6425 12.6283C10.6425 12.6283 8.33777 8.77816 14.4769 6.37716Z" fill="#00C07C"/>
    <path d="M13.5152 13.0921C17.121 18.4216 12.8065 20.3912 12.8065 20.3912C12.8065 20.3912 9.04811 17.9397 13.5152 13.0921Z" fill="#00C07C"/>
    <path d="M16.5223 9.81419C22.303 12.6407 19.542 16.4971 19.542 16.4971C19.542 16.4971 15.062 16.2424 16.5223 9.81419Z" fill="#00C07C"/>
    <path d="M19.721 0.967834C22.1644 6.92059 17.5389 7.96912 17.5389 7.96912C17.5389 7.96912 14.3594 4.80277 19.721 0.967834Z" fill="#00C07C"/>
    <path d="M21.8047 6.22858C27.5228 9.17949 24.6791 12.9752 24.6791 12.9752C24.6791 12.9752 20.2057 12.6237 21.8047 6.22858Z" fill="#00C07C"/>
    <path d="M23.5211 2.29832C29.8042 3.68693 28.027 8.08421 28.027 8.08421C28.027 8.08421 23.6126 8.88965 23.5211 2.29832Z" fill="#00C07C"/>
    <path d="M30.6277 9.21752C32.6795 15.3163 27.9957 16.0624 27.9957 16.0624C27.9957 16.0624 25.0284 12.6963 30.6277 9.21752Z" fill="#00C07C"/>
    <path d="M25.3479 13.9111C27.3997 20.0099 22.7159 20.756 22.7159 20.756C22.7159 20.756 19.7486 17.3899 25.3479 13.9111Z" fill="#00C07C"/>
    <path d="M33.4497 17.1048C30.8624 22.9964 26.8962 20.3958 26.8962 20.3958C26.8962 20.3958 26.9671 15.9092 33.4497 17.1048Z" fill="#00C07C"/>
    <path d="M31.1386 24.4691C25.7556 27.9946 23.8509 23.651 23.8509 23.651C23.8509 23.651 26.3585 19.9298 31.1386 24.4691Z" fill="#00C07C"/>
</svg>
