<svg width="56" height="57" viewBox="0 0 56 57" fill="none" xmlns="http://www.w3.org/2000/svg">
    <path fill-rule="evenodd" clip-rule="evenodd" d="M27.9993 0.704468C43.4251 0.704468 55.9301 13.2095 55.9301 28.6353C55.9301 41.1689 47.6748 51.7741 36.305 55.3106L35.8768 55.4207V48.3052C35.8044 47.4157 35.2971 46.3315 34.3551 45.0527C38.2681 44.3855 41.1122 43.2457 42.8874 41.6333C45.2424 39.187 46.4199 35.9901 46.4199 32.0424V29.9853C46.2387 28.3543 45.5141 26.5288 44.2461 24.5087C44.083 24.5087 43.9109 24.3327 43.7298 23.9806C44.074 22.887 44.2461 21.914 44.2461 21.0616V20.728C43.9925 17.9851 43.603 16.6136 43.0776 16.6137C41.248 16.6137 38.9021 17.5866 36.0399 19.5326C33.6667 18.9581 31.9911 18.6709 31.0129 18.6708H27.3445C26.7649 18.6708 25.1436 18.9581 22.4806 19.5326C19.7633 17.5866 17.363 16.6137 15.2798 16.6137C14.8088 17.3365 14.4736 18.7635 14.2743 20.8948V21.2562C14.6004 22.9612 14.7635 23.8693 14.7635 23.9806C12.9882 26.3899 12.1005 28.9567 12.1005 31.6811C12.1005 37.2595 14.1113 41.0865 18.1329 43.1623C19.4191 43.9591 21.2578 44.5336 23.649 44.8859H24.1381V45.2194C23.5041 45.9422 22.9516 47.1376 22.4806 48.8056C21.4054 49.1735 20.2745 49.3522 19.1383 49.3338H18.9481C17.3177 49.3338 15.6511 47.9068 13.9483 45.0527C12.7345 44.0148 11.5571 43.4959 10.4158 43.4959L9.57347 43.8573C9.57347 44.1723 10.4158 45.0804 12.1005 46.5817C12.481 47.0264 13.2599 48.4534 14.4374 50.8627C15.6511 52.123 17.5532 52.7532 20.1437 52.7532C20.917 52.6357 21.6984 52.5799 22.4806 52.5863L22.6436 52.92V56.0406L22.3702 55.9988C9.64256 53.3944 0.0683594 42.1329 0.0683594 28.6353C0.0683594 13.2095 12.5734 0.704468 27.9993 0.704468Z" fill="#00C07C"/>
</svg>
