<svg width="18" height="18" viewBox="0 0 18 18" fill="none" xmlns="http://www.w3.org/2000/svg">
    <path d="M9 0.000976562C4.0374 0.000976562 0 4.03821 0 9.00049C0 13.9629 4.0374 18 9 18C13.9626 18 18 13.9629 18 9.00049C18 4.03821 13.9626 0.000976562 9 0.000976562ZM9 16.3637C4.93969 16.3637 1.63636 13.0606 1.63636 9.00054C1.63636 4.94045 4.93969 1.63734 9 1.63734C13.0603 1.63734 16.3636 4.94045 16.3636 9.00049C16.3636 13.0607 13.0603 16.3637 9 16.3637Z" fill="#00C07C"/>
    <path d="M8.99982 7.09131C8.54797 7.09131 8.18164 7.45764 8.18164 7.90949V13.3631C8.18164 13.815 8.54797 14.1813 8.99982 14.1813C9.45168 14.1813 9.818 13.815 9.818 13.3631V7.90949C9.818 7.45769 9.45168 7.09131 8.99982 7.09131Z" fill="#00C07C"/>
    <path d="M8.99982 3.81873C8.78437 3.81873 8.57377 3.906 8.4211 4.05818C8.26891 4.21036 8.18164 4.42145 8.18164 4.63691C8.18164 4.85236 8.26891 5.06291 8.4211 5.21563C8.57328 5.36782 8.78437 5.45509 8.99982 5.45509C9.21528 5.45509 9.42582 5.36782 9.57849 5.21563C9.73068 5.06291 9.818 4.85236 9.818 4.63691C9.818 4.42145 9.73068 4.21036 9.57849 4.05818C9.42582 3.90594 9.21528 3.81873 8.99982 3.81873Z" fill="#00C07C"/>
</svg>
