<svg width="236" height="120" viewBox="0 0 236 120" fill="none" xmlns="http://www.w3.org/2000/svg">
  <path d="M12 117.946L13.6395 115.993C14.668 116.937 16.0056 117.478 17.4043 117.515C18.5392 117.515 19.223 117.068 19.223 116.334V116.298C19.223 115.599 18.7907 115.239 16.6828 114.703C14.1441 114.059 12.5046 113.358 12.5046 110.866V110.832C12.5205 110.286 12.6505 109.751 12.8862 109.258C13.1218 108.766 13.458 108.328 13.8733 107.972C14.2887 107.616 14.774 107.35 15.2983 107.191C15.8226 107.032 16.3744 106.984 16.9185 107.049C18.6183 107.02 20.2748 107.584 21.6013 108.642L20.1598 110.72C19.2178 109.987 18.0744 109.556 16.8808 109.483C15.8182 109.483 15.2602 109.967 15.2602 110.578V110.614C15.2602 111.44 15.8009 111.709 17.9796 112.263C20.5387 112.926 21.9786 113.841 21.9786 116.028V116.064C21.9786 118.554 20.0687 119.952 17.3508 119.952C15.3802 119.96 13.4757 119.245 12 117.946Z" fill="white"/>
  <path d="M25.6412 113.534V113.5C25.6408 112.631 25.8158 111.771 26.1559 110.97C26.496 110.17 26.9942 109.446 27.621 108.84C28.2477 108.235 28.9903 107.762 29.8046 107.447C30.6188 107.133 31.4882 106.985 32.3611 107.012C33.2301 106.982 34.0962 107.127 34.9075 107.439C35.7188 107.75 36.4586 108.221 37.0825 108.824C37.7064 109.426 38.2017 110.148 38.5387 110.946C38.8756 111.743 39.0473 112.6 39.0434 113.466V113.5C39.0438 114.369 38.8687 115.229 38.5287 116.03C38.1886 116.83 37.6903 117.555 37.0636 118.16C36.4368 118.765 35.6942 119.239 34.88 119.553C34.0657 119.867 33.1963 120.015 32.3234 119.988C31.4544 120.018 30.5883 119.873 29.777 119.562C28.9658 119.25 28.226 118.779 27.602 118.177C26.9781 117.574 26.4828 116.852 26.1459 116.054C25.8089 115.257 25.6373 114.4 25.6412 113.534ZM36.1432 113.534V113.5C36.1607 112.989 36.0749 112.481 35.8909 112.004C35.7069 111.527 35.4286 111.091 35.0723 110.724C34.716 110.356 34.2891 110.063 33.8169 109.863C33.3447 109.662 32.8368 109.558 32.3234 109.557C31.8137 109.555 31.3089 109.656 30.8395 109.854C30.3701 110.052 29.9459 110.342 29.5924 110.708C29.239 111.073 28.9636 111.506 28.783 111.98C28.6023 112.455 28.5201 112.96 28.5414 113.467V113.502C28.5237 114.012 28.6093 114.521 28.7932 114.998C28.977 115.476 29.2554 115.911 29.6117 116.279C29.968 116.647 30.395 116.94 30.8673 117.141C31.3396 117.341 31.8476 117.445 32.3611 117.447C32.871 117.448 33.3759 117.347 33.8454 117.149C34.3149 116.951 34.7392 116.661 35.0927 116.295C35.4462 115.93 35.7215 115.496 35.9021 115.022C36.0826 114.547 36.1646 114.041 36.1432 113.534Z" fill="white"/>
  <path d="M43.319 107.234H46.0934V117.271H52.3811V119.782H43.319V107.234Z" fill="white"/>
  <path d="M60.5991 107.137H63.1566L68.5546 119.774H65.6591L64.5069 116.959H59.1749L58.0227 119.774H55.1933L60.5991 107.137ZM63.5244 114.521L61.8503 110.455L60.1731 114.521H63.5244Z" fill="white"/>
  <path d="M76.2758 107.137H78.8334L84.2392 119.774H81.3374L80.1852 116.959H74.8533L73.701 119.774H70.8716L76.2758 107.137ZM79.1949 114.521L77.5192 110.455L75.8436 114.521H79.1949Z" fill="white"/>
  <path d="M87.9913 107.234H93.7556C94.4225 107.192 95.0911 107.283 95.7222 107.502C96.3533 107.72 96.9342 108.062 97.4307 108.507C97.7945 108.889 98.0775 109.34 98.2633 109.833C98.449 110.325 98.5337 110.85 98.5122 111.376V111.41C98.5527 112.264 98.31 113.107 97.8214 113.81C97.3328 114.513 96.6256 115.037 95.8085 115.301L98.8895 119.782H95.6482L92.946 115.759H90.7658V119.774H87.9913V107.234ZM93.5748 113.334C94.9267 113.334 95.7016 112.616 95.7016 111.559V111.523C95.7016 110.34 94.8716 109.73 93.5214 109.73H90.7658V113.328L93.5748 113.334Z" fill="white"/>
  <path d="M110.388 107.234H114.966C117.738 107.234 119.648 108.651 119.648 111.069V111.107C119.648 113.741 117.361 115.103 114.73 115.103H111.327V119.782H110.383L110.388 107.234ZM114.789 114.243C117.132 114.243 118.719 113.023 118.719 111.16V111.124C118.719 109.134 117.171 108.094 114.901 108.094H111.327V114.243H114.789Z" fill="white"/>
  <path d="M124.229 107.234H129.525C130.825 107.168 132.1 107.612 133.074 108.471C133.689 109.092 134.032 109.93 134.03 110.802V110.832C134.03 112.928 132.458 114.129 130.336 114.415L134.497 119.776H133.318L129.3 114.578H125.167V119.776H124.224L124.229 107.234ZM129.416 113.741C131.524 113.741 133.091 112.684 133.091 110.872V110.832C133.091 109.147 131.757 108.088 129.476 108.088H125.167V113.735L129.416 113.741Z" fill="white"/>
  <path d="M138.505 113.534V113.5C138.484 112.66 138.632 111.824 138.94 111.041C139.248 110.258 139.71 109.545 140.299 108.942C140.888 108.34 141.593 107.86 142.37 107.532C143.148 107.204 143.984 107.034 144.829 107.032C145.673 107.029 146.51 107.195 147.289 107.519C148.069 107.843 148.776 108.318 149.368 108.918C149.96 109.517 150.426 110.228 150.739 111.009C151.051 111.79 151.204 112.625 151.187 113.466C151.203 113.481 151.203 113.481 151.187 113.5C151.208 114.34 151.06 115.176 150.752 115.959C150.444 116.742 149.982 117.455 149.393 118.058C148.804 118.66 148.1 119.14 147.322 119.468C146.544 119.796 145.709 119.966 144.864 119.968C144.019 119.97 143.182 119.805 142.403 119.481C141.623 119.157 140.917 118.682 140.324 118.082C139.732 117.483 139.266 116.772 138.954 115.991C138.641 115.21 138.489 114.375 138.505 113.534ZM150.213 113.534V113.5C150.241 112.775 150.123 112.052 149.866 111.373C149.609 110.694 149.217 110.073 148.715 109.548C148.213 109.022 147.61 108.602 146.941 108.312C146.273 108.022 145.553 107.868 144.824 107.859C144.099 107.865 143.382 108.017 142.717 108.305C142.052 108.592 141.452 109.011 140.954 109.535C140.455 110.058 140.067 110.677 139.814 111.353C139.56 112.029 139.447 112.749 139.48 113.47V113.505C139.451 114.23 139.568 114.953 139.825 115.633C140.082 116.312 140.473 116.933 140.975 117.459C141.478 117.985 142.081 118.406 142.749 118.696C143.417 118.987 144.137 119.141 144.867 119.15C145.592 119.144 146.309 118.992 146.974 118.704C147.639 118.416 148.239 117.997 148.738 117.473C149.237 116.948 149.624 116.329 149.877 115.653C150.13 114.976 150.243 114.256 150.21 113.534H150.213Z" fill="white"/>
  <path d="M158.682 108.086H154.281V107.234H164.008V108.094H159.607V119.782H158.663L158.682 108.086Z" fill="white"/>
  <path d="M167.114 113.534V113.5C167.093 112.66 167.241 111.824 167.549 111.041C167.857 110.258 168.319 109.545 168.909 108.942C169.498 108.34 170.202 107.86 170.979 107.532C171.757 107.204 172.593 107.034 173.438 107.032C174.282 107.029 175.119 107.195 175.898 107.519C176.678 107.843 177.385 108.318 177.977 108.918C178.569 109.517 179.035 110.228 179.348 111.009C179.66 111.79 179.813 112.625 179.796 113.466C179.812 113.481 179.812 113.481 179.796 113.5C179.817 114.34 179.669 115.176 179.361 115.959C179.053 116.742 178.591 117.455 178.002 118.058C177.413 118.66 176.709 119.14 175.931 119.468C175.153 119.796 174.318 119.966 173.473 119.968C172.628 119.97 171.791 119.805 171.012 119.481C170.232 119.157 169.526 118.682 168.933 118.082C168.341 117.483 167.875 116.772 167.563 115.991C167.25 115.21 167.098 114.375 167.114 113.534ZM178.823 113.534V113.5C178.852 112.775 178.735 112.051 178.478 111.372C178.221 110.693 177.83 110.072 177.328 109.546C176.825 109.019 176.222 108.599 175.554 108.308C174.886 108.018 174.166 107.864 173.436 107.855C172.711 107.861 171.995 108.012 171.33 108.3C170.665 108.588 170.065 109.006 169.566 109.53C169.067 110.054 168.679 110.672 168.426 111.348C168.173 112.025 168.059 112.745 168.092 113.466V113.5C168.063 114.225 168.18 114.949 168.437 115.628C168.694 116.307 169.084 116.928 169.587 117.454C170.089 117.981 170.692 118.401 171.36 118.692C172.028 118.982 172.748 119.136 173.477 119.145C174.203 119.14 174.92 118.989 175.585 118.701C176.251 118.413 176.851 117.995 177.35 117.471C177.85 116.948 178.238 116.329 178.491 115.652C178.745 114.976 178.859 114.256 178.826 113.534H178.823Z" fill="white"/>
  <path d="M184.237 113.534V113.5C184.212 112.66 184.357 111.823 184.662 111.039C184.967 110.256 185.427 109.541 186.013 108.936C186.6 108.332 187.303 107.85 188.079 107.519C188.856 107.189 189.691 107.016 190.536 107.012C191.447 106.994 192.352 107.163 193.194 107.509C194.037 107.854 194.799 108.368 195.434 109.018L194.767 109.699C194.225 109.117 193.569 108.653 192.839 108.336C192.108 108.019 191.32 107.855 190.523 107.855C189.8 107.864 189.087 108.018 188.425 108.307C187.763 108.597 187.166 109.016 186.67 109.539C186.175 110.062 185.79 110.68 185.538 111.354C185.287 112.029 185.175 112.747 185.208 113.466V113.5C185.177 114.221 185.291 114.941 185.543 115.617C185.795 116.294 186.181 116.913 186.677 117.439C187.173 117.965 187.77 118.387 188.433 118.68C189.096 118.973 189.811 119.131 190.536 119.145C191.357 119.146 192.169 118.972 192.918 118.635C193.666 118.298 194.334 117.806 194.876 117.191L195.504 117.802C194.874 118.499 194.101 119.055 193.237 119.433C192.374 119.81 191.439 120.001 190.496 119.991C189.655 119.991 188.822 119.822 188.048 119.495C187.273 119.167 186.573 118.688 185.989 118.085C185.405 117.483 184.949 116.769 184.648 115.987C184.347 115.205 184.207 114.371 184.237 113.534Z" fill="white"/>
  <path d="M198.978 113.534V113.5C198.953 112.657 199.098 111.818 199.404 111.031C199.71 110.245 200.171 109.528 200.761 108.922C201.35 108.316 202.056 107.834 202.835 107.504C203.615 107.174 204.454 107.002 205.301 107C206.148 106.998 206.988 107.164 207.769 107.49C208.551 107.816 209.259 108.295 209.852 108.897C210.444 109.5 210.91 110.215 211.22 110.999C211.53 111.784 211.68 112.623 211.659 113.466C211.676 113.481 211.676 113.481 211.659 113.5C211.684 114.343 211.54 115.182 211.234 115.969C210.927 116.755 210.466 117.472 209.877 118.078C209.287 118.684 208.582 119.166 207.802 119.496C207.022 119.826 206.184 119.998 205.336 120C204.489 120.002 203.65 119.836 202.868 119.51C202.087 119.184 201.379 118.705 200.786 118.103C200.193 117.5 199.728 116.785 199.417 116.001C199.107 115.216 198.958 114.377 198.978 113.534ZM210.686 113.534V113.5C210.715 112.775 210.598 112.051 210.341 111.372C210.084 110.693 209.693 110.071 209.191 109.545C208.689 109.019 208.085 108.598 207.417 108.308C206.749 108.017 206.028 107.863 205.299 107.855C204.574 107.861 203.857 108.012 203.192 108.3C202.527 108.588 201.927 109.006 201.428 109.53C200.93 110.054 200.542 110.672 200.289 111.348C200.035 112.025 199.922 112.745 199.955 113.466V113.5C199.926 114.225 200.043 114.949 200.3 115.628C200.557 116.307 200.948 116.929 201.45 117.455C201.952 117.981 202.555 118.402 203.224 118.692C203.892 118.983 204.612 119.137 205.342 119.145C206.067 119.139 206.783 118.987 207.448 118.7C208.113 118.412 208.713 117.993 209.212 117.47C209.711 116.946 210.098 116.328 210.352 115.651C210.605 114.975 210.719 114.255 210.686 113.534Z" fill="white"/>
  <path d="M216.655 107.234H217.598V118.921H225V119.782H216.659L216.655 107.234Z" fill="white"/>
  <path d="M31.9503 31.3933C33.4275 31.3933 34.7154 30.4778 35.2457 29.1809H53.9386L56.6468 26.4536H35.2457C34.7154 25.1566 33.4275 24.2411 31.9503 24.2411C29.9806 24.2411 28.3897 25.8432 28.3897 27.8268C28.3897 29.7912 29.9806 31.3933 31.9503 31.3933ZM31.9503 26.9494C32.4237 26.9494 32.8025 27.3309 32.8025 27.8077C32.8025 28.2845 32.4237 28.666 31.9503 28.666C31.4768 28.666 31.098 28.2845 31.098 27.8077C31.098 27.3309 31.4768 26.9494 31.9503 26.9494Z" fill="white"/>
  <path d="M20.208 39.2512C21.6853 39.2512 22.9352 38.3548 23.4845 37.077H27.7079L43.2948 52.7736H60.0559V50.0462H44.4122L28.8253 34.3496H23.5034C22.9731 33.0336 21.6853 32.099 20.1891 32.099C18.2194 32.099 16.6285 33.7011 16.6285 35.6847C16.6475 37.6491 18.2383 39.2512 20.208 39.2512ZM20.208 34.8073C20.6815 34.8073 21.0603 35.1888 21.0603 35.6656C21.0603 36.1424 20.6815 36.5239 20.208 36.5239C19.7345 36.5239 19.3557 36.1424 19.3557 35.6656C19.3557 35.1888 19.7345 34.8073 20.208 34.8073Z" fill="white"/>
  <path d="M60.0559 57.8849H36.0979C36.2116 58.3236 36.2684 58.7813 36.2684 59.2581C36.2684 59.7349 36.2116 60.1927 36.0979 60.6313H60.0559V57.8849Z" fill="white"/>
  <path d="M39.4501 52.7543L36.7418 50.027H17.3103C16.78 48.7301 15.4922 47.7955 14.0149 47.7955C12.0453 47.7955 10.4544 49.3976 10.4544 51.3811C10.4544 53.3647 12.0453 54.9668 14.0149 54.9668C15.4922 54.9668 16.78 54.0513 17.3103 52.7543H39.4501ZM14.0149 52.2394C13.5414 52.2394 13.1627 51.8579 13.1627 51.3811C13.1627 50.9043 13.5414 50.5229 14.0149 50.5229C14.4884 50.5229 14.8672 50.9043 14.8672 51.3811C14.8672 51.8579 14.4884 52.2394 14.0149 52.2394Z" fill="white"/>
  <path d="M31.6472 44.8965L28.9389 42.1691H6.85595C6.32566 40.8722 5.0378 39.9567 3.56055 39.9567C1.59088 39.9567 0 41.5588 0 43.5423C0 45.5259 1.59088 47.128 3.56055 47.128C5.0378 47.128 6.32566 46.2125 6.85595 44.9156H31.6472V44.8965ZM3.56055 44.3815C3.08707 44.3815 2.70829 44.0001 2.70829 43.5233C2.70829 43.0465 3.08707 42.665 3.56055 42.665C4.03403 42.665 4.41281 43.0465 4.41281 43.5233C4.41281 44.0001 4.03403 44.3815 3.56055 44.3815Z" fill="white"/>
  <path d="M60.0559 42.1691H40.4539L43.1622 44.8965H60.0559V42.1691Z" fill="white"/>
  <path d="M232.421 39.9378C230.943 39.9378 229.655 40.8533 229.125 42.1502H207.061L204.353 44.8776H229.144C229.674 46.1745 230.962 47.09 232.439 47.09C234.409 47.09 236 45.4879 236 43.5044C236 41.5208 234.39 39.9378 232.421 39.9378ZM232.421 44.3817C231.947 44.3817 231.568 44.0003 231.568 43.5234C231.568 43.0466 231.947 42.6652 232.421 42.6652C232.894 42.6652 233.273 43.0466 233.273 43.5234C233.273 44.0003 232.894 44.3817 232.421 44.3817Z" fill="white"/>
  <path d="M206.001 55.8633C204.031 55.8633 202.44 57.4654 202.44 59.4489C202.44 59.9448 202.535 60.4216 202.724 60.8603L197.667 65.9526H161.494C162.138 64.3887 162.725 62.7866 163.198 61.1654H173.217V34.5021H163.388C162.895 32.7665 162.308 31.05 161.626 29.3716H174.372L182.175 37.2295H194.334C194.864 38.5264 196.152 39.4419 197.629 39.4419C199.599 39.4419 201.19 37.8398 201.19 35.8563C201.19 33.8727 199.599 32.2706 197.629 32.2706C196.152 32.2706 194.864 33.1861 194.334 34.483H183.311L175.509 26.6252H160.414C158.141 21.9715 155.111 17.6611 151.361 13.9038C142.46 4.93977 130.604 0 118.009 0C105.415 0 93.5591 4.93977 84.6577 13.9038C80.9078 17.6802 77.8775 21.9715 75.6049 26.6252H60.5104L52.7075 34.483H41.6849C41.1546 33.1861 39.8668 32.2706 38.3895 32.2706C36.4199 32.2706 34.829 33.8727 34.829 35.8563C34.829 37.8398 36.4199 39.4419 38.3895 39.4419C39.8668 39.4419 41.1546 38.5264 41.6849 37.2295H53.8438L61.6467 29.3716H74.3928C73.7109 31.05 73.1238 32.7474 72.6314 34.5021H62.802V61.1654H72.8208C73.2943 62.7866 73.8814 64.3887 74.5253 65.9526H38.3138L33.257 60.8603C33.4464 60.4216 33.5411 59.9448 33.5411 59.4489C33.5411 57.4654 31.9502 55.8633 29.9806 55.8633C28.0109 55.8633 26.42 57.4654 26.42 59.4489C26.42 61.4324 28.0109 63.0345 29.9806 63.0345C30.4541 63.0345 30.9086 62.9392 31.3252 62.7675L37.1964 68.68H75.7564C78.0101 73.2192 80.9836 77.3961 84.6577 81.0962C93.5591 90.0602 105.415 95 118.009 95C130.604 95 142.46 90.0602 151.361 81.0962C155.016 77.4152 158.009 73.2192 160.263 68.68H198.823L204.694 62.7675C205.11 62.9392 205.565 63.0345 206.038 63.0345C208.008 63.0345 209.599 61.4324 209.599 59.4489C209.58 57.4844 207.97 55.8633 206.001 55.8633ZM197.611 35.0171C198.084 35.0171 198.463 35.3985 198.463 35.8753C198.463 36.3521 198.084 36.7336 197.611 36.7336C197.137 36.7336 196.758 36.3521 196.758 35.8753C196.758 35.3985 197.137 35.0171 197.611 35.0171ZM38.3895 36.7145C37.9161 36.7145 37.5373 36.3331 37.5373 35.8563C37.5373 35.3794 37.9161 34.998 38.3895 34.998C38.863 34.998 39.2418 35.3794 39.2418 35.8563C39.2418 36.3331 38.8441 36.7145 38.3895 36.7145ZM29.1283 59.4489C29.1283 58.9721 29.5071 58.5906 29.9806 58.5906C30.4541 58.5906 30.8328 58.9721 30.8328 59.4489C30.8328 59.9257 30.4541 60.3072 29.9806 60.3072C29.526 60.3072 29.1283 59.9257 29.1283 59.4489ZM170.509 37.2485V58.4381H163.918C164.732 54.8906 165.168 51.2477 165.168 47.5095C165.168 44.0193 164.789 40.5862 164.069 37.2485H170.509ZM65.4914 58.4381V37.2485H71.9307C71.211 40.5862 70.8322 44.0193 70.8322 47.5095C70.8322 51.2287 71.2678 54.8906 72.0822 58.4381H65.4914ZM117.991 92.2726C93.4834 92.2726 73.5405 72.1893 73.5405 47.5095C73.5405 22.8298 93.4834 2.74644 117.991 2.74644C142.498 2.74644 162.441 22.8298 162.441 47.5095C162.441 72.1893 142.517 92.2726 117.991 92.2726ZM206.001 60.3072C205.527 60.3072 205.148 59.9257 205.148 59.4489C205.148 58.9721 205.527 58.5906 206.001 58.5906C206.474 58.5906 206.853 58.9721 206.853 59.4489C206.853 59.9257 206.474 60.3072 206.001 60.3072Z" fill="white"/>
  <path d="M221.966 47.7955C220.489 47.7955 219.201 48.711 218.671 50.0079H199.239L196.531 52.7353H218.671C219.201 54.0322 220.489 54.9477 221.966 54.9477C223.936 54.9477 225.527 53.3456 225.527 51.362C225.527 49.4167 223.936 47.7955 221.966 47.7955ZM221.966 52.2394C221.493 52.2394 221.114 51.8579 221.114 51.3811C221.114 50.9043 221.493 50.5229 221.966 50.5229C222.44 50.5229 222.818 50.9043 222.818 51.3811C222.818 51.8579 222.44 52.2394 221.966 52.2394Z" fill="white"/>
  <path d="M182.043 29.1809H200.735C201.266 30.4778 202.554 31.3933 204.031 31.3933C206 31.3933 207.591 29.7912 207.591 27.8077C207.591 25.8241 206 24.222 204.031 24.222C202.554 24.222 201.266 25.1375 200.735 26.4344H179.334L182.043 29.1809ZM204.031 26.9494C204.504 26.9494 204.883 27.3308 204.883 27.8077C204.883 28.2845 204.504 28.6659 204.031 28.6659C203.557 28.6659 203.179 28.2845 203.179 27.8077C203.179 27.3308 203.557 26.9494 204.031 26.9494Z" fill="white"/>
  <path d="M175.925 60.6122H199.883C199.77 60.1736 199.713 59.7158 199.713 59.239C199.713 58.7622 199.77 58.3045 199.883 57.8658H175.925V60.6122Z" fill="white"/>
  <path d="M207.156 34.3304L191.569 50.0271H175.925V52.7544H192.686L208.273 37.0578H212.497C213.046 38.3357 214.296 39.2321 215.773 39.2321C217.743 39.2321 219.334 37.63 219.334 35.6464C219.334 33.6629 217.743 32.0608 215.773 32.0608C214.277 32.0608 212.989 32.9954 212.459 34.3114H207.156V34.3304ZM215.773 34.8072C216.247 34.8072 216.625 35.1887 216.625 35.6655C216.625 36.1423 216.247 36.5238 215.773 36.5238C215.3 36.5238 214.921 36.1423 214.921 35.6655C214.921 35.1887 215.3 34.8072 215.773 34.8072Z" fill="white"/>
  <path d="M195.527 42.1691H175.925V44.8965H192.819L195.527 42.1691Z" fill="white"/>
  <path d="M117.991 9.76514C97.328 9.76514 80.5101 26.7015 80.5101 47.5096C80.5101 68.3176 97.328 85.254 117.991 85.254C138.653 85.254 155.471 68.3176 155.471 47.5096C155.471 26.7015 138.672 9.76514 117.991 9.76514ZM117.991 83.5756C98.2371 83.5756 82.1767 67.4021 82.1767 47.5096C82.1957 27.617 98.256 11.4435 117.991 11.4435C137.725 11.4435 153.804 27.617 153.804 47.5096C153.804 67.4021 137.744 83.5756 117.991 83.5756Z" fill="white"/>
  <path fill-rule="evenodd" clip-rule="evenodd" d="M114.676 67.5166C114.184 68.0887 113.672 68.6991 113.066 69.4047C111.779 70.9305 110.434 73.1239 108.142 73.7151C107.347 73.9249 105.434 73.6579 106.002 72.0177C106.191 71.4836 106.741 70.4156 107.669 70.263C109.032 70.0532 110.85 70.2439 110.623 68.3748C110.301 65.8001 106.248 65.5521 104.165 66.9253C102.839 67.8027 101.419 69.8625 101.002 71.8079C100.642 73.5625 101.646 75.8322 102.536 76.8049C104.752 79.2461 108.123 79.2271 110.566 77.9874C111.722 77.4152 112.669 76.3281 113.54 75.6224C114.885 74.4971 116.286 72.3419 117.593 70.6063L114.676 67.5166ZM132.858 47.9101C131.267 49.6647 128.54 52.2395 126.778 54.2803C124.884 56.4736 120.869 60.4598 118.786 62.7866L118.767 62.8247L121.703 66.0289C123.578 63.9691 125.756 61.566 126.93 60.4025C128.237 59.1247 130.415 56.321 131.702 55.1767C132.176 54.7571 134.411 52.2014 135.585 50.9617L132.858 47.9101ZM103.389 47.9291C104.979 49.6838 107.707 52.2586 109.449 54.2993C111.343 56.4927 115.358 60.4788 117.441 62.8057L118.104 63.5495L119.297 64.9036L120.491 66.2769L120.509 66.2959L120.964 66.83C121.627 67.6119 122.29 68.413 123.161 69.4238C124.449 70.9496 125.793 73.143 128.085 73.7342C128.881 73.944 130.793 73.677 130.225 72.0367C130.036 71.5027 129.487 70.4347 128.559 70.2821C127.195 70.0723 125.377 70.263 125.604 68.3939C125.926 65.8191 129.979 65.5712 132.062 66.9444C133.388 67.8217 134.808 69.8816 135.225 71.827C135.585 73.5816 134.562 75.8512 133.691 76.8239C131.475 79.2652 128.104 79.2461 125.661 78.0064C124.506 77.4343 123.559 76.3471 122.687 75.6414C121.153 74.3827 119.6 71.7888 118.123 69.996L118.104 69.9769L115.244 66.83C113.256 64.6366 110.642 61.7185 109.297 60.4216C107.991 59.1438 105.813 56.3401 104.525 55.1958C104.032 54.7571 101.551 51.9153 100.453 50.7709L100.472 50.79L103.389 47.9291ZM121.513 26.7778L122.271 25.8814C123.559 24.3556 124.903 22.1622 127.195 21.571C127.99 21.3612 129.903 21.6282 129.335 23.2684C129.146 23.8025 128.596 24.8705 127.668 25.0231C126.305 25.2329 124.487 25.0422 124.714 26.9113C125.036 29.4861 129.089 29.734 131.172 28.3608C132.498 27.4835 133.918 25.4236 134.335 23.4782C134.695 21.7236 133.691 19.4539 132.801 18.4812C130.585 16.04 127.214 16.059 124.771 17.2988C123.615 17.8709 122.668 18.9581 121.797 19.6637C120.737 20.5411 119.676 22.0287 118.634 23.4782L121.513 26.7778ZM103.085 31.3552C103.256 31.3933 103.654 31.7175 104.203 31.9083C104.752 32.099 105.453 32.1753 105.775 32.2897C106.097 32.4042 106.059 32.5377 105.775 32.9C105.491 33.2624 104.979 33.8537 104.601 34.197C104.222 34.5403 103.995 34.6547 103.843 34.5403C103.692 34.4258 103.635 34.1016 103.521 33.6057C103.388 33.1098 103.218 32.4614 103.085 32.0036C102.972 31.5459 102.915 31.317 103.085 31.3552ZM98.5211 24.1839C98.2371 24.2984 97.7068 24.6607 97.3659 24.985C97.025 25.2901 96.8734 25.5381 96.9871 25.7288C97.1007 25.9195 97.4795 26.0721 97.9151 26.2437C98.3507 26.4345 98.862 26.6443 99.203 26.8541C99.5439 27.0639 99.7143 27.2737 99.7143 27.2164C99.7143 27.1592 99.5817 26.8541 99.4113 26.3391C99.2408 25.8241 99.0514 25.1185 98.9567 24.6798C98.8242 24.2411 98.7863 24.0695 98.5211 24.1839ZM98.881 23.1159C98.5211 23.2494 97.934 23.5736 97.2522 24.1458C96.5515 24.7179 95.7371 25.519 95.5098 25.9577C95.3015 26.3773 95.6803 26.4154 96.4189 26.587C97.1386 26.7587 98.1992 27.0639 99.2219 27.7505C100.226 28.4371 101.192 29.5051 101.873 30.6495C102.555 31.7938 102.953 33.0145 103.085 34.0444C103.218 35.0743 103.067 35.9326 103.256 36.1042C103.464 36.2568 104.013 35.7037 104.79 34.9217C105.566 34.1397 106.532 33.1098 106.949 32.5567C107.366 32.0227 107.214 31.9464 106.57 31.832C105.926 31.6985 104.809 31.5077 103.729 30.8593C102.65 30.2299 101.627 29.1618 100.945 27.9984C100.264 26.835 99.9226 25.5762 99.7522 24.7561C99.5817 23.936 99.5628 23.5545 99.487 23.3257C99.4113 23.0586 99.2598 22.9824 98.881 23.1159ZM93.8432 26.301C94.6008 25.519 95.9076 24.2221 97.006 23.3066C98.1045 22.3911 98.9757 21.8761 99.487 21.7426C99.9984 21.6091 100.131 21.8571 100.264 22.639C100.396 23.421 100.529 24.7179 101.021 26.053C101.514 27.4072 102.366 28.8185 103.464 29.7149C104.563 30.6113 105.926 31.0119 107.044 31.05C108.142 31.0882 109.013 30.7639 109.392 30.7258C109.79 30.6876 109.714 30.9165 108.502 32.2325C107.29 33.5485 104.942 35.9707 103.389 37.5537C101.835 39.1177 101.116 39.8424 100.567 40.2048C100.017 40.5481 99.6575 40.529 99.8848 40.0713C100.131 39.6135 100.983 38.7362 101.532 37.6109C102.082 36.4857 102.328 35.1124 102.214 33.8346C102.101 32.5377 101.608 31.3361 100.832 30.268C100.055 29.2 98.9567 28.2845 97.9151 27.8077C96.8734 27.3118 95.8886 27.2546 95.0174 27.2927C94.1462 27.3309 93.3887 27.4453 93.1235 27.3881C92.8584 27.3118 93.0667 27.0829 93.8432 26.301ZM95.9265 22.7916C96.5704 22.2385 97.3469 21.5519 98.1992 20.9797C99.0514 20.4076 99.9984 19.9308 100.51 19.7972C101.04 19.6637 101.154 19.8354 101.154 20.2931C101.154 20.7509 101.04 21.4756 101.078 22.4293C101.116 23.3829 101.305 24.5272 101.76 25.7288C102.214 26.9113 102.934 28.1319 103.938 28.952C104.942 29.7721 106.191 30.1727 107.441 30.1345C108.691 30.1155 109.904 29.6577 110.756 29.2763C111.608 28.8948 112.063 28.5515 112.309 28.5706C112.536 28.5706 112.536 28.933 111.779 29.8484C111.002 30.783 109.449 32.2897 107.593 34.2351C105.737 36.1996 103.559 38.6027 102.309 40.0141C101.059 41.4064 100.699 41.7878 100.112 41.7306C99.5249 41.6543 98.6916 41.1393 98.256 40.7388C97.8204 40.3383 97.8015 40.0522 98.3128 39.6326C98.8242 39.213 99.8848 38.6218 100.51 37.63C101.135 36.6192 101.305 35.2078 101.229 33.9299C101.135 32.6521 100.775 31.5268 99.9037 30.5732C99.0325 29.6196 97.6689 28.8185 96.4189 28.418C95.1689 28.0175 94.0136 28.0175 93.1235 28.2273C92.2334 28.4561 91.5894 28.9139 91.1538 29.1618C90.7182 29.4098 90.472 29.4479 90.5478 29.1237C90.6235 28.7995 91.0213 28.1319 91.6841 27.2737C92.347 26.3963 93.294 25.3283 94.0326 24.5654C94.7523 23.8215 95.2826 23.3638 95.9265 22.7916ZM92.5364 61.9855C91.4379 61.6232 90.9834 59.2773 92.347 57.8468C93.4644 56.6834 96.1348 54.0323 97.7636 52.373C98.7484 51.3622 99.3923 50.7328 99.9037 50.1797L102.46 47.376L102.574 47.2425L102.612 47.2044L102.669 47.1281C104.279 45.3925 106.854 42.9512 108.521 40.9868C110.415 38.7934 114.43 34.8073 116.513 32.4804C116.873 32.0799 117.195 31.7175 117.498 31.3933L114.657 28.1128C112.631 30.3443 109.79 33.5104 108.388 34.8836C107.082 36.1614 104.904 38.9651 103.616 40.1094C103.161 40.51 101.078 42.894 99.8848 44.1909L96.9681 47.1853C95.472 48.7111 93.9568 50.256 92.5743 51.7436C91.722 52.6782 90.1122 54.7571 89.2599 55.5581C87.2334 57.4272 87.1009 62.6912 89.3925 64.465C90.8698 65.6093 91.3622 66.0671 92.6311 66.2387C94.8848 66.5248 96.6083 65.9908 98.6158 63.5304C100.188 61.6041 99.4681 57.7705 97.2712 56.7025C96.0591 56.1112 94.1083 57.5417 94.7712 59.3154C95.5477 61.3943 94.2977 62.5768 92.5364 61.9855ZM143.691 61.9855C144.789 61.6232 145.244 59.2773 143.88 57.8468C142.763 56.6834 140.092 54.0323 138.464 52.373C137.479 51.3622 136.835 50.7137 136.324 50.1797L136.286 50.2178V50.1988L135.301 49.1116L135.282 49.0926L134.486 48.2152L133.521 47.1472L133.502 47.1281C131.892 45.3925 129.316 42.9512 127.649 41.0058C125.756 38.8125 121.74 34.8264 119.657 32.4995C119.07 31.832 118.559 31.2598 118.104 30.7448L117.593 30.1536L115.32 27.5025L115.282 27.4644C114.885 26.9876 114.449 26.4917 113.957 25.9004C112.669 24.3746 111.324 22.1813 109.032 21.5901C108.237 21.3803 106.324 21.6473 106.892 23.2875C107.082 23.8215 107.631 24.8896 108.559 25.0422C109.922 25.252 111.741 25.0613 111.513 26.9304C111.191 29.5051 107.138 29.7531 105.055 28.3799C103.729 27.5025 102.309 25.4427 101.892 23.4973C101.532 21.7426 102.536 19.473 103.426 18.5003C105.642 16.059 109.013 16.0781 111.457 17.3178C112.612 17.89 113.559 18.9771 114.43 19.6828C115.661 20.6937 116.892 22.5628 118.104 24.1839L120.926 27.4644C122.953 29.6959 126.248 33.3768 127.801 34.9026C129.108 36.1805 131.286 38.9842 132.574 40.1285C133.028 40.529 135.111 42.9131 136.305 44.21L139.24 47.2235C140.736 48.7493 142.252 50.2941 143.634 51.7818C144.486 52.7163 146.096 54.7952 146.948 55.5963C148.975 57.4654 149.107 62.7294 146.816 64.5031C145.339 65.6475 144.846 66.1052 143.577 66.2769C141.323 66.5629 139.6 66.0289 137.593 63.5686C136.021 61.6423 136.74 57.8087 138.937 56.7406C140.149 56.1494 142.1 57.5798 141.437 59.3535C140.68 61.3943 141.948 62.5768 143.691 61.9855ZM93.4455 33.3006C92.347 33.6629 91.8925 36.0088 93.2561 37.4393C94.3735 38.6027 97.0439 41.2538 98.6727 42.9131L99.4113 43.676L99.3166 43.5806L96.2674 46.4606C95.3015 45.4879 94.3735 44.4961 93.4833 43.5425C92.6311 42.6079 91.0213 40.529 90.169 39.728C88.1425 37.8589 88.01 32.5949 90.3016 30.8211C91.7788 29.6768 92.2712 29.2191 93.5402 29.0474C95.7939 28.7613 97.5174 29.2953 99.5249 31.7557C101.097 33.682 100.377 37.5156 98.1802 38.5836C96.9681 39.1749 95.0174 37.7444 95.6803 35.9707C96.4568 33.9109 95.1879 32.7093 93.4455 33.3006ZM133.237 31.6413C133.066 31.6794 132.668 32.0036 132.119 32.1944C131.57 32.3851 130.869 32.4614 130.547 32.5758C130.225 32.6902 130.263 32.8237 130.547 33.1861C130.831 33.5485 131.343 34.1397 131.721 34.4831C132.1 34.8264 132.327 34.9408 132.479 34.8264C132.63 34.7119 132.687 34.3877 132.801 33.8918C132.933 33.3959 133.104 32.7475 133.237 32.2897C133.35 31.832 133.407 31.6031 133.237 31.6413ZM137.801 24.47C138.085 24.5844 138.615 24.9468 138.956 25.271C139.297 25.5762 139.449 25.8241 139.335 26.0149C139.221 26.2056 138.842 26.3582 138.407 26.5298C137.971 26.7206 137.46 26.9304 137.119 27.1401C136.778 27.3499 136.608 27.5597 136.608 27.5025C136.608 27.4453 136.74 27.1402 136.911 26.6252C137.081 26.1102 137.271 25.4046 137.365 24.9659C137.498 24.5272 137.536 24.3556 137.801 24.47ZM137.441 23.4019C137.801 23.5355 138.388 23.8597 139.07 24.4319C139.77 25.004 140.585 25.8051 140.812 26.2437C141.02 26.6633 140.642 26.7015 139.903 26.8731C139.183 27.0448 138.123 27.3499 137.1 28.0366C136.096 28.7232 135.13 29.7912 134.449 30.9356C133.767 32.0799 133.369 33.3006 133.237 34.3305C133.104 35.3604 133.255 36.2186 133.066 36.3903C132.858 36.5429 132.308 35.9898 131.532 35.2078C130.755 34.4258 129.79 33.3959 129.373 32.8428C128.956 32.3088 129.108 32.2325 129.752 32.1181C130.396 31.9846 131.513 31.7938 132.593 31.1454C133.672 30.516 134.695 29.4479 135.377 28.2845C136.058 27.1211 136.399 25.8623 136.57 25.0422C136.74 24.2221 136.759 23.8406 136.835 23.6117C136.892 23.3447 137.062 23.2684 137.441 23.4019ZM142.479 26.587C141.721 25.8051 140.414 24.5082 139.316 23.5927C138.217 22.6772 137.346 22.1622 136.835 22.0287C136.324 21.8952 136.191 22.1432 136.058 22.9251C135.926 23.7071 135.793 25.004 135.301 26.3391C134.808 27.6933 133.956 29.1046 132.858 30.001C131.759 30.8974 130.396 31.2979 129.278 31.3361C128.18 31.3742 127.309 31.05 126.93 31.0119C126.532 30.9737 126.608 31.2026 127.82 32.5186C129.032 33.8346 131.38 36.2568 132.933 37.8398C134.486 39.4037 135.206 40.1285 135.755 40.4909C136.305 40.8342 136.664 40.8151 136.437 40.3574C136.191 39.8996 135.339 39.0223 134.79 37.897C134.24 36.7717 133.994 35.3985 134.108 34.1207C134.221 32.8237 134.714 31.6222 135.49 30.5541C136.267 29.4861 137.365 28.5706 138.407 28.0938C139.449 27.5979 140.433 27.5407 141.305 27.5788C142.176 27.617 142.933 27.7314 143.198 27.6742C143.464 27.617 143.255 27.369 142.479 26.587ZM140.395 23.0777C139.752 22.5246 138.975 21.838 138.123 21.2658C137.271 20.6937 136.324 20.2168 135.812 20.0833C135.282 19.9498 135.168 20.1215 135.168 20.5792C135.168 21.037 135.282 21.7617 135.244 22.7153C135.206 23.669 135.017 24.8133 134.562 26.0149C134.108 27.1974 133.388 28.418 132.384 29.2381C131.38 30.0582 130.13 30.4588 128.881 30.4206C127.631 30.4015 126.418 29.9438 125.566 29.5624C124.714 29.1809 124.259 28.8376 124.013 28.8567C123.786 28.8567 123.786 29.219 124.543 30.1345C125.32 31.0691 126.873 32.5758 128.729 34.5212C130.585 36.4857 132.763 38.8888 134.013 40.3002C135.263 41.6924 135.623 42.0739 136.21 42.0167C136.797 41.9404 137.63 41.4254 138.066 41.0249C138.502 40.6244 138.521 40.3383 138.009 39.9187C137.498 39.4991 136.437 38.9079 135.831 37.9161C135.206 36.9053 135.036 35.4939 135.111 34.216C135.206 32.9382 135.566 31.8129 136.437 30.8593C137.308 29.9057 138.672 29.1046 139.922 28.7041C141.172 28.3036 142.327 28.3036 143.217 28.5134C144.108 28.7422 144.751 29.2 145.187 29.4479C145.623 29.6959 145.869 29.734 145.793 29.4098C145.717 29.0855 145.32 28.418 144.657 27.5597C143.994 26.6824 143.047 25.6144 142.308 24.8515C141.57 24.1076 141.039 23.6499 140.395 23.0777ZM116.911 16.7457C117.271 16.6694 117.858 16.6503 118.369 16.6503C118.9 16.6694 119.354 16.7266 119.468 16.8982C119.581 17.0699 119.335 17.375 119.07 17.6802C118.805 17.9854 118.521 18.2715 118.237 18.3477C117.953 18.4431 117.65 18.3287 117.328 18.0807C117.006 17.8328 116.665 17.4513 116.551 17.2034C116.438 16.9555 116.57 16.8219 116.911 16.7457ZM115.604 16.2879C115.945 16.1353 116.589 15.9828 117.517 15.9637C118.445 15.9446 119.657 16.059 120.339 16.1544C121.021 16.2498 121.191 16.3642 120.964 16.7075C120.737 17.0699 120.093 17.6611 119.619 18.1379C119.127 18.6148 118.786 18.9581 118.426 19.0725C118.066 19.1869 117.706 19.1106 117.271 18.8055C116.854 18.5194 116.362 18.0235 116.002 17.6421C115.642 17.2606 115.434 17.0127 115.339 16.8029C115.244 16.6121 115.263 16.4405 115.604 16.2879ZM114.203 15.6585C114.752 15.4487 115.794 15.2008 117.328 15.1817C118.862 15.1626 120.869 15.3534 121.911 15.525C122.953 15.6967 123.047 15.8492 122.46 16.5549C121.892 17.2606 120.642 18.5194 119.771 19.2823C118.9 20.0452 118.388 20.3313 117.801 20.1596C117.233 19.988 116.608 19.3395 115.888 18.6148C115.169 17.89 114.373 17.0699 113.975 16.574C113.616 16.059 113.653 15.8683 114.203 15.6585ZM118.085 14.3044C119.392 14.3235 121.097 14.3997 122.441 14.5905C123.767 14.7812 124.714 15.0863 124.562 15.7348C124.392 16.3833 123.123 17.356 121.873 18.5385C120.623 19.721 119.411 21.0942 118.616 21.5328C117.82 21.9715 117.46 21.4947 116.589 20.5029C115.718 19.5112 114.316 17.9854 113.313 17.0508C112.309 16.0972 111.684 15.7348 112.044 15.3724C112.385 15.0101 113.71 14.6858 114.809 14.4951C115.888 14.3044 116.778 14.2853 118.085 14.3044ZM116.797 78.2734C117.157 78.3497 117.744 78.3688 118.256 78.3688C118.786 78.3497 119.241 78.2925 119.354 78.1209C119.468 77.9492 119.222 77.6441 118.956 77.3389C118.691 77.0337 118.407 76.7476 118.123 76.6714C117.839 76.576 117.536 76.6904 117.214 76.9384C116.892 77.1863 116.551 77.5678 116.438 77.8157C116.324 78.0636 116.438 78.1971 116.797 78.2734ZM115.491 78.7312C115.831 78.8838 116.475 79.0363 117.403 79.0554C118.331 79.0745 119.544 78.96 120.225 78.8647C120.907 78.7693 121.078 78.6549 120.85 78.3116C120.623 77.9492 119.979 77.358 119.506 76.8812C119.013 76.4043 118.672 76.061 118.313 75.9466C117.953 75.8322 117.593 75.9085 117.157 76.2136C116.741 76.4997 116.248 76.9956 115.888 77.377C115.528 77.7585 115.32 78.0064 115.225 78.2162C115.131 78.407 115.15 78.5786 115.491 78.7312ZM114.089 79.3606C114.638 79.5704 115.68 79.8183 117.214 79.8374C118.748 79.8565 120.756 79.6657 121.797 79.4941C122.839 79.3224 122.934 79.1699 122.347 78.4642C121.778 77.7585 120.528 76.4997 119.657 75.7368C118.786 74.9739 118.275 74.6878 117.688 74.8595C117.119 75.0311 116.494 75.6796 115.775 76.4043C115.055 77.1291 114.26 77.9492 113.862 78.4451C113.502 78.9601 113.54 79.1508 114.089 79.3606ZM117.953 80.7147C119.259 80.6957 120.964 80.6194 122.309 80.4286C123.634 80.2379 124.581 79.9327 124.43 79.2843C124.259 78.6358 122.99 77.6631 121.74 76.4806C120.49 75.2981 119.278 73.9249 118.483 73.4863C117.688 73.0476 117.328 73.5244 116.456 74.5162C115.585 75.5079 114.184 77.0337 113.18 77.9683C112.176 78.9219 111.551 79.2843 111.911 79.6467C112.252 80.009 113.578 80.3333 114.676 80.524C115.775 80.7147 116.665 80.7338 117.953 80.7147ZM147.554 48.3487C147.649 47.9482 147.668 47.2807 147.649 46.6894C147.63 46.0982 147.573 45.5642 147.365 45.4306C147.157 45.3162 146.816 45.5832 146.494 45.8884C146.153 46.1935 145.831 46.5178 145.736 46.842C145.642 47.1662 145.755 47.5095 146.039 47.8719C146.323 48.2343 146.74 48.6158 147.024 48.7493C147.327 48.8828 147.479 48.7493 147.554 48.3487ZM148.066 49.8364C148.236 49.4549 148.407 48.7111 148.426 47.6621C148.445 46.6131 148.331 45.2399 148.217 44.458C148.104 43.676 147.99 43.4853 147.592 43.7332C147.195 44.0002 146.513 44.7059 145.983 45.2781C145.452 45.8312 145.073 46.2317 144.941 46.6322C144.808 47.0327 144.903 47.4523 145.244 47.9291C145.566 48.406 146.115 48.9591 146.532 49.3596C146.948 49.7601 147.233 50.008 147.479 50.1225C147.706 50.2369 147.895 50.2178 148.066 49.8364ZM148.785 51.4385C149.032 50.8282 149.297 49.6266 149.316 47.891C149.335 46.1554 149.126 43.8667 148.937 42.6842C148.748 41.5017 148.577 41.4064 147.782 42.0548C146.986 42.7033 145.585 44.1146 144.733 45.1064C143.88 46.0982 143.558 46.6894 143.748 47.3379C143.956 47.9864 144.657 48.692 145.471 49.5122C146.286 50.3323 147.195 51.2477 147.763 51.6673C148.312 52.0869 148.539 52.0488 148.785 51.4385ZM150.282 47.0327C150.263 45.5642 150.168 43.5997 149.96 42.093C149.751 40.5862 149.392 39.4991 148.672 39.6898C147.952 39.8806 146.854 41.3301 145.528 42.7414C144.202 44.1528 142.668 45.5451 142.176 46.4415C141.683 47.3379 142.214 47.7575 143.331 48.7493C144.448 49.741 146.153 51.324 147.214 52.4684C148.274 53.6127 148.691 54.3184 149.089 53.9179C149.486 53.5174 149.865 52.0297 150.073 50.7709C150.282 49.5122 150.32 48.5013 150.282 47.0327ZM88.4266 48.6348C88.3319 48.2343 88.313 47.5668 88.3319 46.9755C88.3509 46.3843 88.4077 45.8502 88.616 45.7167C88.8243 45.6023 89.1652 45.8693 89.4872 46.1745C89.8281 46.4796 90.1501 46.8039 90.2448 47.1281C90.3395 47.4523 90.2258 47.7956 89.9417 48.158C89.6576 48.5204 89.241 48.9018 88.9569 49.0353C88.6539 49.1879 88.5213 49.0353 88.4266 48.6348ZM87.9153 50.1225C87.7448 49.741 87.5744 48.9972 87.5554 47.9482C87.5365 46.8992 87.6501 45.526 87.7637 44.744C87.8774 43.9621 87.991 43.7713 88.3887 44.0193C88.7865 44.2863 89.4683 44.992 89.9986 45.5642C90.5289 46.1173 90.9076 46.5178 91.0402 46.9183C91.1728 47.3188 91.0781 47.7384 90.7372 48.2152C90.4152 48.692 89.866 49.2451 89.4493 49.6457C89.0327 50.0462 88.7486 50.2941 88.5024 50.4086C88.294 50.523 88.1047 50.5039 87.9153 50.1225ZM87.2145 51.7246C86.9683 51.1142 86.7032 49.9127 86.6842 48.1771C86.6653 46.4415 86.8736 44.1528 87.063 42.9703C87.2524 41.7878 87.4228 41.6924 88.2183 42.3409C89.0137 42.9894 90.4152 44.4007 91.2675 45.3925C92.1197 46.3843 92.4417 46.9755 92.2523 47.624C92.044 48.2724 91.3432 48.9781 90.5288 49.7982C89.7145 50.6184 88.8054 51.5338 88.2372 51.9534C87.669 52.373 87.4607 52.3349 87.2145 51.7246ZM85.6994 47.3188C85.7183 45.8502 85.813 43.8858 86.0213 42.3791C86.2297 40.8723 86.5895 39.7852 87.3092 39.9759C88.0289 40.1666 89.1274 41.6162 90.4531 43.0275C91.7788 44.4389 93.3129 45.8312 93.8053 46.7276C94.2977 47.624 93.7674 48.0436 92.65 49.0353C91.5326 50.0271 89.8281 51.6101 88.7675 52.7545C87.7069 53.8988 87.2903 54.6045 86.8925 54.204C86.4948 53.8035 86.116 52.3158 85.9077 51.057C85.7183 49.7982 85.6804 48.8065 85.6994 47.3188ZM96.8734 69.2522C97.1386 69.0805 97.6499 68.8516 98.0666 68.6037C98.4833 68.3558 98.7674 68.0887 98.7295 68.413C98.6916 68.7372 98.3318 69.6336 98.1045 70.0914C97.8772 70.5491 97.8015 70.5682 97.5742 70.4347C97.3469 70.3012 96.9871 69.996 96.7977 69.7671C96.6083 69.5573 96.6083 69.4429 96.8734 69.2522ZM103.559 60.517C103.445 60.6314 103.464 61.051 103.426 61.4706C103.388 61.8711 103.313 62.2526 103.37 62.4242C103.445 62.5959 103.654 62.5768 103.995 62.5196C104.317 62.4624 104.752 62.3479 104.96 62.2335C105.169 62.1191 105.169 61.9856 104.998 61.7567C104.828 61.5278 104.468 61.1845 104.184 60.8984C103.9 60.6314 103.673 60.4216 103.559 60.517ZM102.934 59.3345C102.896 59.8113 102.915 60.8221 102.82 61.6613C102.726 62.5005 102.536 63.149 102.688 63.3588C102.839 63.5686 103.332 63.3016 103.995 63.1108C104.657 62.9201 105.51 62.7866 105.945 62.6722C106.381 62.5577 106.419 62.4624 106.078 62.0428C105.737 61.6232 104.998 60.8794 104.468 60.3072C103.919 59.735 103.559 59.3345 103.313 59.1056C103.067 58.8958 102.972 58.8577 102.934 59.3345ZM100.775 55.5772C100.623 55.5772 100.604 55.7679 100.945 56.4927C101.267 57.2365 101.949 58.4953 102.176 59.7922C102.404 61.0891 102.176 62.4051 101.741 63.4923C101.305 64.5794 100.661 65.4377 99.9984 66.1815C99.3355 66.9253 98.6916 67.5547 97.8962 67.9934C97.1197 68.432 96.1916 68.6991 95.775 68.8898C95.3583 69.0996 95.4341 69.2522 95.8886 69.6908C96.3621 70.1295 97.2144 70.8733 97.6689 71.1594C98.1234 71.4455 98.1992 71.2548 98.4075 70.6635C98.6158 70.0723 98.9757 69.0614 99.5817 67.9552C100.169 66.849 101.002 65.6284 101.911 64.7892C102.82 63.95 103.805 63.4923 104.828 63.3397C105.851 63.1681 106.873 63.3016 107.404 63.2825C107.934 63.2825 107.953 63.1299 107.233 62.3479C106.513 61.566 105.074 60.1355 103.995 58.9721C102.915 57.8087 102.195 56.8932 101.703 56.3401C101.192 55.8061 100.926 55.5772 100.775 55.5772ZM99.8658 54.2803C99.4681 54.3375 99.2598 54.6427 99.4681 55.3293C99.6764 56.0159 100.301 57.0458 100.756 58.0566C101.21 59.0675 101.514 60.0402 101.514 61.1654C101.514 62.2907 101.211 63.5686 100.415 64.6938C99.6196 65.8191 98.3128 66.7727 97.1575 67.3831C96.0022 67.9743 94.9985 68.2032 94.4871 68.413C93.9758 68.6228 93.9758 68.8135 94.5629 69.462C95.15 70.1104 96.3242 71.2548 97.1386 71.8842C97.953 72.5326 98.4075 72.6852 98.6537 72.5708C98.881 72.4563 98.8999 72.0558 98.9757 71.4074C99.0514 70.7398 99.203 69.8243 99.7711 68.6609C100.339 67.4975 101.343 66.0861 102.517 65.2088C103.692 64.3315 105.017 63.9882 106.229 63.9882C107.441 63.9691 108.502 64.2933 109.07 64.3315C109.638 64.3696 109.714 64.1598 108.9 63.2062C108.085 62.2526 106.4 60.5551 105.017 59.0102C103.635 57.4654 102.555 56.0731 101.703 55.253C100.87 54.4329 100.282 54.2231 99.8658 54.2803ZM92.669 67.631C93.2561 67.5929 94.222 67.5738 95.453 67.1542C96.6841 66.7346 98.1424 65.9336 99.184 64.732C100.226 63.5304 100.851 61.9474 100.661 60.4407C100.472 58.934 99.4681 57.5035 98.7863 56.569C98.1045 55.6153 97.7257 55.1385 97.8772 54.5473C98.0287 53.956 98.6916 53.2313 99.2787 52.9452C99.8658 52.6591 100.396 52.8117 101.873 54.2612C103.351 55.7107 105.775 58.4571 107.707 60.6314C109.638 62.8057 111.116 64.4268 111.911 65.514C112.725 66.6011 112.858 67.1542 112.347 67.0207C111.816 66.8681 110.623 66.0098 109.43 65.4377C108.218 64.8655 107.006 64.5603 105.585 64.8655C104.165 65.1516 102.555 66.0289 101.476 67.4403C100.396 68.8516 99.8848 70.797 99.7143 72.113C99.5628 73.429 99.7711 74.0966 99.3734 74.1919C98.9757 74.2873 97.953 73.8105 96.8356 72.9713C95.7182 72.1512 94.5061 70.9687 93.6349 70.0532C92.7637 69.1377 92.2334 68.4702 92.0629 68.1078C91.9114 67.7454 92.0819 67.6882 92.669 67.631ZM139.051 69.1568C138.786 68.9852 138.274 68.7563 137.858 68.5083C137.441 68.2604 137.157 67.9934 137.195 68.3176C137.233 68.6418 137.593 69.5383 137.82 69.996C138.047 70.4537 138.123 70.4728 138.35 70.3393C138.577 70.2058 138.937 69.9006 139.127 69.6718C139.297 69.481 139.297 69.3475 139.051 69.1568ZM132.365 60.4216C132.479 60.536 132.46 60.9556 132.498 61.3562C132.536 61.7567 132.612 62.1381 132.555 62.3098C132.479 62.4814 132.271 62.4624 131.93 62.4051C131.608 62.3479 131.172 62.2335 130.964 62.1191C130.755 62.0046 130.755 61.8711 130.926 61.6422C131.096 61.4134 131.456 61.0701 131.74 60.784C132.024 60.536 132.252 60.3263 132.365 60.4216ZM132.99 59.2391C133.028 59.7159 133.009 60.7268 133.104 61.566C133.199 62.4051 133.388 63.0536 133.237 63.2634C133.085 63.4732 132.593 63.2062 131.93 63.0155C131.267 62.8247 130.415 62.6912 129.979 62.5768C129.543 62.4624 129.506 62.367 129.846 61.9474C130.187 61.5278 130.926 60.784 131.456 60.2118C132.005 59.6396 132.365 59.2391 132.612 59.0102C132.839 58.8004 132.952 58.7623 132.99 59.2391ZM135.13 55.4818C135.282 55.4818 135.301 55.6726 134.96 56.3973C134.638 57.1411 133.956 58.3999 133.729 59.6969C133.502 60.9938 133.729 62.3098 134.165 63.3969C134.6 64.484 135.244 65.3423 135.907 66.0861C136.57 66.83 137.214 67.4594 138.009 67.898C138.786 68.3367 139.714 68.6037 140.13 68.7944C140.547 69.0042 140.471 69.1568 140.017 69.5955C139.543 70.0341 138.691 70.778 138.236 71.0641C137.782 71.3501 137.706 71.1594 137.498 70.5682C137.289 69.9769 136.93 68.9661 136.324 67.8599C135.736 66.7537 134.903 65.533 133.994 64.6938C133.085 63.8547 132.1 63.3969 131.077 63.2443C130.055 63.0727 129.032 63.2062 128.502 63.1871C127.971 63.1871 127.953 63.0345 128.672 62.2526C129.392 61.4706 130.831 60.0402 131.911 58.8767C132.99 57.7133 133.71 56.7978 134.202 56.2447C134.714 55.7107 134.998 55.4818 135.13 55.4818ZM136.039 54.1849C136.437 54.2421 136.646 54.5473 136.437 55.2339C136.229 55.9205 135.604 56.9504 135.149 57.9613C134.695 58.9721 134.392 59.9448 134.392 61.0701C134.392 62.1954 134.695 63.4732 135.49 64.5985C136.286 65.7238 137.592 66.6774 138.748 67.2877C139.903 67.8789 140.907 68.1078 141.418 68.3176C141.93 68.5274 141.93 68.7181 141.342 69.3666C140.755 70.0151 139.581 71.1594 138.767 71.7888C137.952 72.4373 137.498 72.5898 137.252 72.4754C137.024 72.361 137.005 71.9605 136.93 71.312C136.854 70.6445 136.702 69.729 136.134 68.5656C135.566 67.4021 134.562 65.9908 133.388 65.1134C132.214 64.2361 130.888 63.8928 129.676 63.8928C128.464 63.8737 127.403 64.198 126.835 64.2361C126.267 64.2743 126.191 64.0645 127.006 63.1108C127.82 62.1572 129.506 60.4598 130.888 58.9149C132.271 57.37 133.35 55.9777 134.202 55.1576C135.055 54.3375 135.642 54.1277 136.039 54.1849ZM143.255 67.5356C142.668 67.4975 141.702 67.4784 140.471 67.0588C139.24 66.6392 137.782 65.8382 136.74 64.6366C135.699 63.4351 135.074 61.852 135.263 60.3453C135.452 58.8386 136.456 57.4082 137.138 56.4736C137.82 55.52 138.199 55.0432 138.047 54.4519C137.896 53.8607 137.233 53.1359 136.646 52.8498C136.058 52.5638 135.528 52.7163 134.051 54.1658C132.574 55.6153 130.149 58.3618 128.218 60.536C126.286 62.7103 124.809 64.3315 124.013 65.4186C123.199 66.5057 123.066 67.0588 123.578 66.9253C124.108 66.7727 125.301 65.9145 126.494 65.3423C127.706 64.7701 128.918 64.465 130.339 64.7701C131.759 65.0562 133.369 65.9336 134.449 67.3449C135.528 68.7563 136.039 70.7017 136.21 72.0177C136.361 73.3337 136.153 74.0012 136.551 74.0966C136.949 74.1919 137.971 73.7151 139.089 72.8759C140.206 72.0558 141.418 70.8733 142.289 69.9578C143.161 69.0424 143.691 68.3748 143.861 68.0125C144.013 67.6501 143.823 67.5929 143.255 67.5356ZM110.472 23.2303C109.866 22.8107 109.127 22.3911 108.54 22.3148C107.953 22.2385 107.517 22.4865 107.441 22.8679C107.366 23.2494 107.631 23.7643 108.085 24.0504C108.521 24.3556 109.127 24.4319 109.828 24.4891C110.51 24.5272 111.267 24.5272 111.419 24.3174C111.551 24.0886 111.078 23.6499 110.472 23.2303ZM125.585 23.2303C126.191 22.8107 126.93 22.3911 127.517 22.3148C128.104 22.2385 128.54 22.4865 128.615 22.8679C128.691 23.2494 128.426 23.7643 127.971 24.0504C127.536 24.3556 126.93 24.4319 126.229 24.4891C125.547 24.5272 124.79 24.5272 124.638 24.3174C124.506 24.0886 124.979 23.6499 125.585 23.2303ZM126.684 72.113C127.29 72.5326 128.028 72.9522 128.615 73.0285C129.202 73.1048 129.638 72.8569 129.714 72.4754C129.79 72.094 129.524 71.579 129.07 71.2929C128.634 70.9878 128.028 70.9115 127.328 70.8542C126.646 70.8161 125.888 70.8161 125.737 71.0259C125.604 71.2357 126.078 71.6744 126.684 72.113ZM109.638 72.113C109.032 72.5326 108.294 72.9522 107.707 73.0285C107.119 73.1048 106.684 72.8569 106.608 72.4754C106.532 72.094 106.798 71.579 107.252 71.2929C107.688 70.9878 108.313 70.9115 108.994 70.8542C109.676 70.8161 110.434 70.8161 110.585 71.0259C110.718 71.2357 110.244 71.6744 109.638 72.113ZM94.4114 37.1532C94.6197 36.9434 94.8091 36.5238 94.9606 36.0088C95.0932 35.4939 95.1689 34.9026 95.0553 34.4831C94.9227 34.0635 94.6008 33.8155 94.2599 33.8155C93.9 33.8155 93.5212 34.0825 93.3318 34.4831C93.1424 34.8836 93.1235 35.4176 93.2371 35.9135C93.3508 36.4284 93.578 36.9243 93.7864 37.1532C93.9947 37.4011 94.203 37.363 94.4114 37.1532ZM93.6159 58.2664C93.8242 58.4762 94.0136 58.8958 94.1652 59.4108C94.2977 59.9257 94.3735 60.517 94.2599 60.9366C94.1273 61.3562 93.8053 61.6041 93.4644 61.6041C93.1046 61.6041 92.7258 61.3371 92.5364 60.9366C92.347 60.536 92.3281 60.002 92.4417 59.5061C92.5553 58.9912 92.7826 58.4953 92.9909 58.2664C93.2182 58.0185 93.4265 58.0375 93.6159 58.2664ZM141.74 37.2295C141.532 37.0197 141.342 36.6001 141.191 36.0851C141.058 35.5702 140.983 34.9789 141.096 34.5593C141.229 34.1397 141.551 33.8918 141.892 33.8918C142.252 33.8918 142.63 34.1588 142.82 34.5593C143.009 34.9599 143.028 35.4939 142.914 35.9898C142.801 36.5047 142.573 37.0006 142.365 37.2295C142.157 37.4774 141.948 37.4393 141.74 37.2295ZM142.536 58.3427C142.327 58.5525 142.138 58.9721 141.986 59.4871C141.854 60.002 141.778 60.5933 141.892 61.0129C142.024 61.4325 142.346 61.6804 142.687 61.6804C143.047 61.6804 143.426 61.4134 143.615 61.0129C143.805 60.6123 143.823 60.0783 143.71 59.5824C143.596 59.0675 143.369 58.5716 143.161 58.3427C142.952 58.0948 142.744 58.1138 142.536 58.3427ZM142.801 33.3006C143.899 33.6629 144.354 36.0088 142.99 37.4393C141.873 38.6027 139.202 41.2538 137.574 42.9131L137.119 43.3899L140.092 46.3652C141.02 45.4116 141.93 44.477 142.782 43.5615C143.634 42.627 145.244 40.5481 146.096 39.7471C148.123 37.878 148.255 32.614 145.964 30.8402C144.486 29.6959 143.994 29.2381 142.725 29.0665C140.471 28.7804 138.748 29.3144 136.721 31.7748C135.149 33.7011 135.869 37.5346 138.066 38.6027C139.278 39.194 141.229 37.7635 140.566 35.9898C139.789 33.9109 141.039 32.7093 142.801 33.3006Z" fill="white"/>
  <path d="M113.54 45.278L118.313 40.4717L123.085 45.278L125.869 42.4744L118.313 34.8644L110.756 42.4744L113.54 45.278Z" fill="white"/>
  <path d="M106.021 47.2615L108.805 44.4579L111.589 47.2615L108.805 50.0652L106.021 47.2615Z" fill="white"/>
  <path d="M113.54 49.2451L118.313 54.0513L123.085 49.2451L125.869 52.0487L118.313 59.6587L110.756 52.0487L113.54 49.2451Z" fill="white"/>
  <path d="M125.055 47.2615L127.839 44.4579L130.623 47.2615L127.839 50.0652L125.055 47.2615Z" fill="white"/>
  <path d="M121.134 47.2616L118.313 44.4198L115.491 47.2616L118.313 50.1033L121.134 47.2616Z" fill="white"/>
  <path d="M96.2674 10.2228L98.7105 8.8877L99.0704 9.55524L97.2901 10.5279L97.4227 10.7568L99.203 9.78411L100.036 11.3481L98.256 12.3207L98.7484 13.2172L98.0856 13.5795L97.2522 12.0156L99.0325 11.0429L98.8999 10.814L97.1196 11.7867L96.2674 10.2228Z" fill="white"/>
  <path d="M100.604 7.9913L103.18 6.94231L103.843 8.58254L102.896 8.96399L102.991 9.21194L103.938 8.83049L104.601 10.4898L103.9 10.7759L103.521 9.84133L102.574 10.2228L101.911 8.58254L102.858 8.20109L102.763 7.95315L101.589 8.42996L102.726 11.2718L102.025 11.5579L100.604 7.9913Z" fill="white"/>
  <path d="M105.207 6.23663L107.896 5.4928L108.085 6.21756L106.135 6.75159L106.21 6.99953L108.161 6.4655L108.616 8.18202L106.665 8.71605L106.741 8.96399L108.691 8.42996L108.881 9.15472L106.21 9.89855L105.756 8.18202L107.707 7.64799L107.631 7.40005L105.68 7.95315L105.207 6.23663Z" fill="white"/>
  <path d="M109.998 5.03507L112.744 4.61547L112.858 5.3593L110.85 5.66446L110.888 5.93147L112.896 5.62631L113.161 7.38098L111.154 7.68614L111.191 7.95315L113.199 7.64799L113.313 8.39182L110.566 8.81141L110.301 7.05675L112.309 6.75159L112.271 6.48457L110.263 6.78973L109.998 5.03507Z" fill="white"/>
  <path d="M118.256 4.29124L121.04 4.40567L121.002 5.16857L118.975 5.07321L118.956 5.34022L120.983 5.43559L120.907 7.20933L118.881 7.11396L118.843 8.1248L118.085 8.08666L118.161 6.31292L120.187 6.40828L120.206 6.14127L118.18 6.06498L118.256 4.29124Z" fill="white"/>
  <path d="M123.142 4.5964L123.881 4.71083L123.426 7.74336L124.676 7.93408L124.714 7.66707L123.71 7.51449L123.824 6.77066L125.566 7.03767L125.301 8.79234L122.555 8.35368L123.142 4.5964Z" fill="white"/>
  <path d="M127.952 5.47373L130.623 6.21756L129.884 8.90678L128.18 8.42996L128.653 6.71344L129.373 6.92324L129.108 7.91501L129.354 7.9913L129.695 6.75159L128.464 6.40828L127.858 8.62069L129.809 9.15472L129.6 9.87947L126.93 9.13565L127.952 5.47373Z" fill="white"/>
  <path d="M132.706 6.90417L135.282 7.95315L133.861 11.4816L132.233 10.814L133.274 8.22017L133.975 8.50626L133.218 10.3944L133.464 10.4898L134.316 8.35368L133.142 7.87686L132.005 10.7187L131.305 10.4326L132.706 6.90417Z" fill="white"/>
  <path d="M137.252 8.84956L138.786 9.72689L137.308 12.397L137.536 12.5305L139.013 9.8604L140.547 10.7377L140.187 11.4053L139.297 10.9094L137.82 13.5795L136.286 12.7022L137.763 10.0321L136.873 9.53617L137.252 8.84956Z" fill="white"/>
  <path d="M142.384 11.9202L143.805 12.9692L142.005 15.4296L142.82 16.0399L142.365 16.6502L140.945 15.5821L142.763 13.1218L141.949 12.5115L142.384 11.9202Z" fill="white"/>
  <path d="M146.286 14.9718L147.573 16.1925L145.49 18.4239L145.68 18.5956L147.763 16.3641L148.312 16.8791L145.717 19.6637L144.43 18.443L146.513 16.2115L146.323 16.0399L144.24 18.2714L143.691 17.7564L146.286 14.9718Z" fill="white"/>
  <path d="M149.808 18.4621L151.607 20.5982L151.039 21.0941L149.732 19.5301L147.99 21.0178L148.804 21.9905L149.77 21.1704L149.6 20.9606L148.823 21.609L148.331 21.0369L149.676 19.8925L150.812 21.2467L148.691 23.0395L146.911 20.9034L149.808 18.4621Z" fill="white"/>
  <path d="M154.732 25.1375L156.077 27.5787L154.543 28.437L154.051 27.5406L153.823 27.6741L154.316 28.5705L152.782 29.4288L152.422 28.7612L153.312 28.2653L152.82 27.3689L154.354 26.5107L154.846 27.4071L155.073 27.2736L154.448 26.1483L151.797 27.6359L151.437 26.9684L154.732 25.1375Z" fill="white"/>
  <path d="M157.024 29.486L158.085 32.0608L157.384 32.3469L156.607 30.4587L156.361 30.554L157.138 32.4422L155.509 33.1288L154.732 31.2406L154.486 31.336L155.263 33.2242L154.562 33.5103L153.501 30.9355L155.13 30.2489L155.907 32.1371L156.153 32.0417L155.376 30.1535L157.024 29.486Z" fill="white"/>
  <path d="M158.823 34.1206L159.581 36.8098L158.861 37.0196L158.312 35.0551L158.066 35.1314L158.615 37.0959L155.944 37.8588L155.452 36.1423L156.418 35.8562L156.134 34.8835L156.854 34.6737L157.346 36.3902L156.38 36.6763L156.456 36.9242L157.687 36.5619L157.138 34.5974L158.823 34.1206Z" fill="white"/>
  <path d="M160.073 38.9269L160.528 41.6924L159.789 41.8068L159.467 39.8042L159.202 39.8423L159.524 41.864L157.782 42.1501L157.46 40.1475L157.194 40.1856L157.516 42.2073L156.778 42.3218L156.323 39.5563L158.066 39.2702L158.388 41.2728L158.653 41.2346L158.331 39.213L160.073 38.9269Z" fill="white"/>
  <path d="M160.774 43.8666L160.907 46.6703L159.145 46.7466L159.088 45.7357L158.823 45.7548L158.88 46.7657L157.119 46.8419L157.081 46.079L158.085 46.0218L158.047 45.011L159.808 44.9347L159.865 45.9455L160.13 45.9265L160.073 44.6486L157.043 44.8012L157.005 44.0383L160.774 43.8666Z" fill="white"/>
  <path d="M160.907 48.8064L160.85 49.5502L157.819 49.3404L157.744 50.6183L160.016 50.7709L160.035 50.5039L158.009 50.3703L158.066 49.6074L160.831 49.7982L160.717 51.5719L156.929 51.324L157.119 48.5394L160.907 48.8064Z" fill="white"/>
  <path d="M160.471 53.7271L159.978 56.4735L159.24 56.34L159.6 54.3374L159.335 54.2993L158.975 56.3019L157.232 55.9777L157.592 53.975L157.346 53.9369L156.986 55.9395L156.248 55.806L156.74 53.0596L158.482 53.3838L158.122 55.3864L158.388 55.4246L158.747 53.4219L160.471 53.7271Z" fill="white"/>
  <path d="M158.501 61.7757L157.497 64.3886L155.85 63.7401L156.494 62.0808L157.194 62.3478L156.835 63.3015L157.081 63.3968L157.535 62.1953L155.414 61.3561L154.96 62.5577L155.206 62.653L155.566 61.6994L156.266 61.9664L155.623 63.6257L153.975 62.9772L154.979 60.3643L158.501 61.7757Z" fill="white"/>
  <path d="M156.626 66.3531L155.812 67.917L153.35 66.6201L153.71 65.9525L155.509 66.9062L155.622 66.6773L153.596 65.6092L153.009 66.7345L155.698 68.1649L155.357 68.8325L152.005 67.0587L153.293 64.5793L156.626 66.3531Z" fill="white"/>
  <path d="M154.24 70.6825L152.668 72.9903L151.21 71.9795L151.778 71.1403L151.57 70.9877L151.001 71.8269L149.543 70.816L149.96 70.1866L150.793 70.7588L151.361 69.9196L152.82 70.9114L152.251 71.7506L152.46 71.9032L153.179 70.8542L150.679 69.1377L151.096 68.5083L154.24 70.6825Z" fill="white"/>
  <path d="M151.361 74.7068L149.543 76.8239L148.217 75.6604L148.88 74.8975L148.691 74.7259L148.028 75.4888L146.702 74.3254L147.195 73.7532L147.952 74.4207L148.615 73.6388L149.941 74.8022L149.278 75.5651L149.467 75.7367L150.301 74.764L148.009 72.7805L148.501 72.2083L151.361 74.7068Z" fill="white"/>
  <path d="M148.009 78.4259L145.964 80.3141L145.452 79.761L146.948 78.3878L146.778 78.1971L145.282 79.5703L144.089 78.2543L145.585 76.8811L145.414 76.6904L143.918 78.0636L143.407 77.5105L145.452 75.6223L146.645 76.9383L145.149 78.3115L145.32 78.5022L146.816 77.129L148.009 78.4259Z" fill="white"/>
  <path d="M144.354 81.6492L142.914 82.6791L141.134 80.1997L140.926 80.3523L142.706 82.8317L142.1 83.2703L139.884 80.1806L141.305 79.1507L143.085 81.6301L143.293 81.4775L141.513 78.9981L142.119 78.5595L144.354 81.6492Z" fill="white"/>
  <path d="M140.263 84.4719L137.839 85.8451L136.986 84.3003L138.521 83.4229L138.88 84.0905L137.99 84.5864L138.123 84.8152L139.24 84.1858L138.123 82.1832L137.005 82.8126L137.138 83.0415L138.028 82.5456L138.388 83.2131L136.854 84.0714L135.983 82.5265L138.407 81.1533L140.263 84.4719Z" fill="white"/>
  <path d="M135.945 86.7797L135.244 87.0658L134.846 86.1312L134.6 86.2266L134.998 87.1611L133.369 87.8478L131.911 84.3193L134.468 83.2322L135.149 84.8724L133.521 85.5591L133.237 84.8534L134.165 84.4529L134.07 84.2049L132.896 84.7008L133.786 86.8178L134.032 86.7034L133.634 85.7689L135.263 85.0822L135.945 86.7797Z" fill="white"/>
  <path d="M128.123 89.5261L127.384 89.6787L126.778 86.6843L125.528 86.9323L125.585 87.1993L126.57 86.9895L126.93 88.7251L125.945 88.9349L126.002 89.2019L126.987 88.9921L127.138 89.7359L125.415 90.0983L125.055 88.3627L126.04 88.1529L125.983 87.905L124.998 88.1148L124.638 86.3792L127.365 85.8261L128.123 89.5261Z" fill="white"/>
  <path d="M123.293 90.4035L120.528 90.6514L120.206 86.856L121.968 86.7034L122.214 89.488L121.475 89.5452L121.305 87.5045L121.04 87.5235L121.229 89.8122L122.498 89.6978L122.233 86.6462L122.99 86.589L123.293 90.4035Z" fill="white"/>
  <path d="M118.388 90.7277L115.604 90.6514L115.661 88.8777L117.422 88.9349L117.403 89.6978L116.4 89.6787V89.9457L117.669 89.9839L117.725 87.6761L116.456 87.638V87.905L117.46 87.924L117.441 88.6869L115.68 88.6297L115.737 86.856L118.521 86.9323L118.388 90.7277Z" fill="white"/>
  <path d="M113.426 90.4798L111.684 90.2318L111.835 89.221L111.57 89.1828L111.419 90.1937L110.68 90.0792L110.926 88.3246L112.669 88.5725L112.517 89.5833L112.782 89.6215L113.104 87.3519L112.839 87.3137L112.688 88.3246L110.945 88.0766L111.191 86.322L111.93 86.4364L111.779 87.4472L112.044 87.4854L112.195 86.4745L113.938 86.7225L113.426 90.4798Z" fill="white"/>
  <path d="M108.597 89.6787L105.907 88.973L106.097 88.2483L108.048 88.7632L108.123 88.5153L106.173 88.0003L106.627 86.2838L108.578 86.7988L108.635 86.5508L106.684 86.0359L106.873 85.3111L109.563 86.0168L109.108 87.7333L107.157 87.2184L107.101 87.4663L109.051 87.9813L108.597 89.6787Z" fill="white"/>
  <path d="M103.843 88.3055L101.248 87.2946L102.612 83.7472L105.207 84.758L104.203 87.3709L102.555 86.7225L103.199 85.0632L103.9 85.3302L103.54 86.2838L103.786 86.3792L104.241 85.1776L103.048 84.7199L102.214 86.8751L104.108 87.6189L103.843 88.3055Z" fill="white"/>
  <path d="M96.381 84.8534L95.7371 84.4529L97.3469 81.859L96.2674 81.1724L96.1348 81.4013L96.9871 81.9353L96.0401 83.442L95.1879 82.908L95.0553 83.1368L95.9076 83.6709L95.5098 84.3193L94.0137 83.3657L94.9606 81.859L95.8129 82.4121L95.9454 82.1832L95.0932 81.6492L96.0401 80.1425L98.3886 81.6301L96.381 84.8534Z" fill="white"/>
  <path d="M92.2334 82.0879L91.6463 81.611L92.2902 80.81L92.0819 80.6383L91.4379 81.4394L90.0743 80.3332L92.4417 77.3579L94.6008 79.1125L93.4833 80.4858L92.1197 79.3796L92.5932 78.7883L93.3887 79.4177L93.5591 79.2079L92.5743 78.4069L91.1349 80.1997L91.3432 80.3713L91.9872 79.5703L93.3697 80.6956L92.2334 82.0879Z" fill="white"/>
  <path d="M86.1539 76.4996L84.3736 74.3635L84.9418 73.8676L86.2486 75.4316L86.4569 75.2599L85.1501 73.696L87.2713 71.9032L88.4077 73.2573L87.6312 73.9058L88.2751 74.6877L87.7069 75.1836L86.5706 73.8295L87.3471 73.181L87.1766 72.9712L86.2107 73.7913L87.5175 75.3553L86.1539 76.4996Z" fill="white"/>
  <path d="M83.029 72.6088L81.4949 70.282L83.8055 68.7371L84.7714 70.2248L83.2941 71.1975L82.8775 70.5681L83.7297 70.015L83.5971 69.8052L82.5366 70.5109L83.2373 71.5789L85.1501 70.3011L84.0327 68.6036L84.6577 68.184L86.1918 70.5109L83.029 72.6088Z" fill="white"/>
  <path d="M80.4343 68.451L80.0934 67.7835L82.8017 66.3912L82.2146 65.2469L81.9873 65.3613L82.4419 66.2768L81.779 66.6201L80.9835 65.0371L82.5555 64.236L83.8055 66.7345L80.4343 68.451Z" fill="white"/>
  <path d="M78.2942 63.969L77.3283 61.3561L80.8888 60.021L81.4949 61.6803L78.9003 62.653L78.6351 61.9473L80.529 61.2417L80.4343 60.9937L78.2942 61.7948L78.7298 62.9963L81.5707 61.9283L81.8358 62.6339L78.2942 63.969Z" fill="white"/>
  <path d="M76.6844 59.2963L76.0215 56.588L79.6957 55.6725L80.1124 57.389L77.423 58.0565L77.2525 57.3127L79.2222 56.8359L79.1654 56.588L76.9495 57.1411L77.2525 58.3808L80.207 57.656L80.3775 58.3999L76.6844 59.2963Z" fill="white"/>
  <path d="M75.6238 54.3946L75.2829 51.6291L77.0253 51.4003L77.1578 52.4111L77.423 52.373L77.2904 51.3621L79.0328 51.1523L79.1275 51.8961L78.1237 52.0297L78.2563 53.0405L76.5139 53.2503L76.3813 52.2394L76.1162 52.2776L76.2677 53.5555L79.279 53.174L79.3737 53.9178L75.6238 54.3946Z" fill="white"/>
  <path d="M75.0935 46.1362L75.2829 43.3517L77.0442 43.4661L76.9684 44.4769L78.9949 44.6104L78.9381 45.3733L76.173 45.1826L76.2488 44.1718L75.9836 44.1527L75.8889 45.4306L78.9192 45.6404L78.8624 46.4033L75.0935 46.1362Z" fill="white"/>
  <path d="M75.548 41.2346L76.0594 38.4882L77.8018 38.8124L77.6124 39.8233L77.8775 39.8614L78.0669 38.8506L79.8093 39.1748L79.6768 39.9186L78.673 39.7279L78.4836 40.7197L76.7412 40.3954L76.9306 39.3846L76.6654 39.3465L76.4382 40.6052L79.4305 41.1583L79.298 41.9022L75.548 41.2346Z" fill="white"/>
  <path d="M76.5329 36.3521L77.3472 33.6819L79.9987 34.502L79.4874 36.1995L77.8018 35.6845L78.029 34.9598L78.9949 35.2649L79.0707 35.017L77.8586 34.6355L77.4798 35.8562L79.6578 36.5237L80.2449 34.5783L80.9646 34.8072L80.1502 37.4773L76.5329 36.3521Z" fill="white"/>
  <path d="M78.0859 31.5839L78.8056 29.9628L81.5707 31.2216L81.6843 30.9927L78.9192 29.7339L79.6389 28.1128L80.3207 28.4179L79.904 29.3525L82.6691 30.6113L81.9495 32.2324L79.1843 30.9736L78.7677 31.9082L78.0859 31.5839Z" fill="white"/>
  <path d="M80.6616 26.1864L82.1199 23.8024L84.4873 25.271L83.5593 26.7777L82.0631 25.8431L82.4608 25.1947L83.332 25.7287L83.4646 25.4998L82.385 24.8323L81.7222 25.9194L83.6729 27.121L84.7335 25.3854L85.3774 25.7859L83.9191 28.17L80.6616 26.1864Z" fill="white"/>
  <path d="M83.313 22.0477L85.0176 19.8544L86.4001 20.9415L85.3206 22.3338L84.7335 21.8761L85.3585 21.075L85.1501 20.9224L84.3736 21.9333L86.1728 23.3446L86.9683 22.3338L86.76 22.1812L86.135 22.9823L85.5479 22.5245L86.6274 21.1322L88.0099 22.2194L86.3054 24.4127L83.313 22.0477Z" fill="white"/>
  <path d="M86.457 18.176L88.4077 16.1925L90.3773 18.1569L89.1274 19.4157L87.8774 18.176L88.4077 17.642L89.1274 18.3667L89.3168 18.176L88.4077 17.2796L87.5175 18.1951L89.1463 19.8162L90.5667 18.3667L91.097 18.9008L89.1463 20.8843L86.457 18.176Z" fill="white"/>
  <path d="M89.9607 14.762L90.5478 14.2852L92.4417 16.6693L93.4265 15.8682L93.2561 15.6584L92.4606 16.2878L91.9872 15.6966L93.3697 14.5904L94.4682 15.9827L92.3091 17.7373L89.9607 14.762Z" fill="white"/>
</svg>
