<svg xmlns="http://www.w3.org/2000/svg" width="15" height="19" viewBox="0 0 15 19" fill="none">
  <path d="M13.2874 0H1.72303C0.771665 0 0 0.722772 0 1.61386V17.3861C0 18.2772 0.771665 19 1.72303 19H13.2769C14.2282 19 14.9999 18.2772 14.9999 17.3861V1.61386C15.0105 0.722772 14.2388 0 13.2874 0ZM1.05707 17.3861V1.61386C1.05707 1.53465 1.07822 1.45545 1.10993 1.38614H2.71668V18.0099H1.7336C1.35306 18.0099 1.05707 17.7327 1.05707 17.3861ZM13.2874 18.0099H3.56234V1.38614H4.56656C4.58771 1.39604 4.61942 1.39604 4.64056 1.39604C4.90483 1.39604 5.0951 1.73267 5.35937 1.79208C5.6025 1.84158 5.80334 1.74257 6.00419 1.62376C6.12046 1.55446 6.24731 1.42574 6.38473 1.38614H6.63843C6.77585 1.41584 6.91327 1.48515 7.05069 1.50495C7.24096 1.53465 7.39952 1.45545 7.56866 1.38614H10.3171C10.6025 1.61386 10.9302 1.79208 11.3318 1.73267C11.575 1.70297 11.7652 1.55446 11.9872 1.47525C12.2938 1.36634 12.6003 1.45545 12.9069 1.41584C12.9492 1.40594 13.002 1.39604 13.0443 1.38614H13.8688C13.9005 1.49505 13.9217 1.59406 13.9534 1.70297V2.11881C13.8477 2.27723 13.6891 2.41584 13.6785 2.63366C13.668 2.81188 13.742 2.93069 13.8477 3.06931C13.89 3.11881 13.9217 3.16832 13.9534 3.20792V9.47525C13.8054 9.71287 13.52 9.85149 13.4354 10.1386C13.372 10.3465 13.446 10.5248 13.5623 10.703C13.7208 10.9406 13.8794 11.0594 13.9111 11.3663C13.9217 11.5149 13.8688 11.6535 13.89 11.802C13.9005 11.8713 13.9217 11.9307 13.9534 11.9901V16.5049C13.1183 16.5049 12.2726 16.5049 11.4375 16.5049C11.1521 16.5049 11.1521 16.9208 11.4375 16.9208C12.2726 16.9208 13.1183 16.9208 13.9534 16.9208V17.396C13.9534 17.7327 13.6574 18.0099 13.2874 18.0099Z" fill="white"/>
  <path d="M8.75258 11.9703L8.81601 11.9802L8.87943 11.9703C9.5031 11.8812 10.687 11.3168 10.687 9.76238C10.687 8.04951 9.24941 5.76238 9.18598 5.67327L8.82658 5.09901L8.46717 5.67327C8.40375 5.77228 6.96612 8.05941 6.96612 9.76238C6.94498 11.3069 8.11834 11.8812 8.75258 11.9703ZM8.80543 6.70297C9.21769 7.46535 9.8308 8.76238 9.8308 9.76238C9.8308 10.8614 9.04856 11.1188 8.80543 11.1782C8.57288 11.1287 7.78007 10.8614 7.78007 9.76238C7.79064 8.76238 8.40375 7.46535 8.80543 6.70297Z" fill="white"/>
  <path d="M11.3953 13.3366C11.3953 13.198 11.279 13.0891 11.131 13.0891H6.47987C6.33188 13.0891 6.2156 13.198 6.2156 13.3366C6.2156 13.4752 6.33188 13.5842 6.47987 13.5842H11.131C11.279 13.5842 11.3953 13.4653 11.3953 13.3366Z" fill="white"/>
  <path d="M9.51367 14.5743C9.66166 14.5743 9.77794 14.4653 9.77794 14.3267C9.77794 14.1881 9.66166 14.0792 9.51367 14.0792H8.22404C8.07605 14.0792 7.95977 14.1881 7.95977 14.3267C7.95977 14.4653 8.07605 14.5743 8.22404 14.5743H9.51367Z" fill="white"/>
  <path d="M1.90273 16.6238C1.61732 16.6238 1.61732 17.0396 1.90273 17.0396C2.18814 17.0396 2.18814 16.6238 1.90273 16.6238Z" fill="white"/>
  <path d="M1.68075 12.2475C1.68075 13.5149 1.68075 14.7822 1.68075 16.0396C1.68075 16.3069 2.12472 16.3069 2.12472 16.0396C2.12472 14.7723 2.12472 13.505 2.12472 12.2475C2.12472 11.9802 1.68075 11.9802 1.68075 12.2475Z" fill="white"/>
  <path d="M1.90273 11.5644C2.18814 11.5644 2.18814 11.1485 1.90273 11.1485C1.61732 11.1485 1.61732 11.5644 1.90273 11.5644Z" fill="white"/>
  <path d="M1.90273 10.604C2.18814 10.604 2.18814 10.1881 1.90273 10.1881C1.61732 10.1881 1.61732 10.604 1.90273 10.604Z" fill="white"/>
  <path d="M8.55174 16.5149C7.35724 16.5149 6.17332 16.5149 4.97882 16.5149C4.69341 16.5149 4.69341 16.9307 4.97882 16.9307C6.16275 16.9307 7.35724 16.9307 8.55174 16.9307C8.83715 16.9307 8.83715 16.5149 8.55174 16.5149Z" fill="white"/>
  <path d="M9.60881 16.4951C9.3234 16.4951 9.3234 16.9109 9.60881 16.9109C9.89422 16.9109 9.89422 16.4951 9.60881 16.4951Z" fill="white"/>
  <path d="M10.4545 16.4951C10.1691 16.4951 10.1691 16.9109 10.4545 16.9109C10.7399 16.9109 10.7399 16.4951 10.4545 16.4951Z" fill="white"/>
  <path d="M9.12256 10.3069C9.40797 10.3069 9.40797 9.89109 9.12256 9.89109C8.83715 9.89109 8.83715 10.3069 9.12256 10.3069Z" fill="white"/>
</svg>