<svg width="81" height="81" viewBox="0 0 81 81" fill="none" xmlns="http://www.w3.org/2000/svg">
    <circle cx="40.5" cy="40.5" r="40.5" fill="#E6F3F1"/>
    <g clip-path="url(#clip0_122_860)">
        <path d="M42.8841 27.4914H37.7606C37.0288 27.4914 36.4355 26.8981 36.4355 26.1663V20.327C36.4355 19.5952 37.0288 19.002 37.7606 19.002H42.8841C43.6158 19.002 44.2091 19.5952 44.2091 20.327V26.1663C44.2091 26.8981 43.6158 27.4914 42.8841 27.4914Z" fill="#56D9DE"/>
        <path d="M43.5615 19H40.9995V27.4894H43.5615C44.2933 27.4894 44.8865 26.8961 44.8865 26.1644V20.325C44.8865 19.5933 44.2933 19 43.5615 19Z" fill="#19A9C3"/>
        <path d="M56.4845 25.0722L54.228 23.5224C54.2277 23.5222 54.2274 23.522 54.2272 23.5218C54.2269 23.5216 54.2266 23.5214 54.2264 23.5213L51.9699 21.9716C51.3667 21.5574 50.5418 21.7105 50.1275 22.3136C49.7132 22.9169 49.8664 23.7417 50.4696 24.1559L51.6347 24.9561L50.0977 27.194C49.6834 27.7972 49.8365 28.6221 50.4398 29.0363C50.669 29.1937 50.9302 29.2693 51.1888 29.2693C51.6106 29.2693 52.0254 29.0683 52.2822 28.6943L53.8192 26.4564L54.9843 27.2565C55.2135 27.4139 55.4747 27.4895 55.7333 27.4895C56.1551 27.4895 56.5698 27.2885 56.8267 26.9145C57.2408 26.3113 57.0877 25.4865 56.4845 25.0722Z" fill="#295A96"/>
        <path d="M54.7468 29.8122C51.075 26.1404 46.1929 24.1181 41 24.1181C35.8071 24.1181 30.925 26.1404 27.2532 29.8122C23.5814 33.4841 21.5591 38.3662 21.5591 43.559C21.5591 48.7518 23.5814 53.634 27.2532 57.3058C30.925 60.9777 35.8071 62.9999 41 62.9999C46.1929 62.9999 51.075 60.9777 54.7468 57.3058C58.4187 53.634 60.4409 48.7518 60.4409 43.559C60.4409 38.3662 58.4187 33.4842 54.7468 29.8122Z" fill="#295A96"/>
        <path d="M40.9998 24.1181C40.9997 24.1181 40.9996 24.1181 40.9995 24.1181V63H40.9998C46.1927 63 51.0747 60.9778 54.7466 57.3059C58.4184 53.6341 60.4407 48.7519 60.4407 43.5591C60.4407 38.3663 58.4184 33.4842 54.7466 29.8123C51.0747 26.1405 46.1926 24.1181 40.9998 24.1181Z" fill="#163756"/>
        <path d="M41 58.0463C33.0116 58.0463 26.5127 51.5473 26.5127 43.559C26.5127 35.5706 33.0117 29.0717 41 29.0717C44.8069 29.0717 48.7848 36.3154 48.7848 36.3154C48.7848 36.3154 55.4873 39.3776 55.4873 43.559C55.4873 51.5473 48.9883 58.0463 41 58.0463Z" fill="#ECF6FE"/>
        <path d="M40.9998 29.0718C40.9997 29.0718 40.9996 29.0718 40.9995 29.0718V58.0464H40.9998C48.9882 58.0464 55.4871 51.5475 55.4871 43.5591C55.4871 39.3078 47.4584 36.3156 47.4584 36.3156C47.4584 36.3156 44.7368 29.0718 40.9998 29.0718Z" fill="#D3E9FD"/>
        <path d="M45.6379 21.6501H36.3626C35.6309 21.6501 35.0376 21.0568 35.0376 20.325C35.0376 19.5933 35.6309 19 36.3626 19H45.6379C46.3697 19 46.9629 19.5933 46.9629 20.325C46.9629 21.0568 46.3697 21.6501 45.6379 21.6501Z" fill="#295A96"/>
        <path d="M45.6379 19H41V21.6501H45.6379C46.3697 21.6501 46.9629 21.0568 46.9629 20.325C46.9629 19.5933 46.3697 19 45.6379 19Z" fill="#163756"/>
        <path d="M40.9998 29.0718C40.9997 29.0718 40.9996 29.0718 40.9995 29.0718V42.0047C40.9995 42.8633 41.6955 43.5594 42.5541 43.5594H55.4872V43.5591C55.4871 35.5707 48.9881 29.0718 40.9998 29.0718Z" fill="#00C07C"/>
    </g>
    <defs>
        <clipPath id="clip0_122_860">
            <rect width="44" height="44" fill="white" transform="translate(19 19)"/>
        </clipPath>
    </defs>
</svg>
