<svg width="45" height="37" viewBox="0 0 45 37" fill="none" xmlns="http://www.w3.org/2000/svg">
    <path d="M45 4.32844C43.3266 5.0625 41.5434 5.54906 39.6844 5.78531C41.5969 4.64344 43.0566 2.84906 43.7428 0.68625C41.9597 1.74937 39.9909 2.50031 37.8928 2.91938C36.1997 1.11656 33.7866 0 31.1541 0C26.0466 0 21.9347 4.14563 21.9347 9.22781C21.9347 9.95906 21.9966 10.6622 22.1484 11.3316C14.4788 10.9575 7.69219 7.28156 3.13312 1.68188C2.33719 3.06281 1.87031 4.64344 1.87031 6.345C1.87031 9.54 3.51562 12.3722 5.96812 14.0119C4.48594 13.9837 3.03187 13.5534 1.8 12.8756C1.8 12.9038 1.8 12.9403 1.8 12.9769C1.8 17.46 4.99781 21.1838 9.19125 22.0416C8.44031 22.2469 7.62187 22.3453 6.7725 22.3453C6.18188 22.3453 5.58562 22.3116 5.02594 22.1878C6.22125 25.8412 9.61313 28.5272 13.6463 28.6144C10.5075 31.0697 6.52219 32.5491 2.20781 32.5491C1.45125 32.5491 0.725625 32.5153 0 32.4225C4.08656 35.0578 8.92969 36.5625 14.1525 36.5625C31.1287 36.5625 40.41 22.5 40.41 10.3106C40.41 9.90281 40.3959 9.50906 40.3763 9.11812C42.2072 7.81875 43.7456 6.19594 45 4.32844Z" fill="#00C07C"/>
</svg>
