<svg xmlns="http://www.w3.org/2000/svg" width="14" height="14" viewBox="0 0 14 14" fill="none">
  <path d="M11.5 8H10.5C10.2239 8 10 8.2239 10 8.5C10 8.7761 10.2239 9 10.5 9H11.5C11.7761 9 12 8.7761 12 8.5C12 8.2239 11.7761 8 11.5 8ZM1.5 0C0.67157 0 0 0.67157 0 1.5V11.5C0 12.8807 1.11929 14 2.5 14H12.5C13.3284 14 14 13.3284 14 12.5V3.5C14 2.84689 13.5826 2.29127 13 2.08535V1.5C13 0.67157 12.3284 0 11.5 0H1.5ZM1 11.5V2.91465C1.15639 2.96992 1.32468 3 1.5 3H12.5C12.7761 3 13 3.22386 13 3.5V12.5C13 12.7761 12.7761 13 12.5 13H2.5C1.67157 13 1 12.3284 1 11.5ZM1.5 1H11.5C11.7761 1 12 1.22386 12 1.5V2H1.5C1.22386 2 1 1.77614 1 1.5C1 1.22386 1.22386 1 1.5 1Z" fill="white"/>
</svg>