<svg xmlns="http://www.w3.org/2000/svg" width="18" height="18" viewBox="0 0 18 18" fill="none">
    <path fill-rule="evenodd" clip-rule="evenodd" d="M8.0741 14.4196C7.9386 14.5743 7.79408 14.7381 7.62696 14.9327C7.26564 15.3442 6.89527 15.937 6.25392 16.1052C6.02809 16.1626 5.49965 16.0919 5.65772 15.6451C5.71193 15.499 5.86549 15.207 6.11841 15.1717C6.49781 15.1141 7.00367 15.1627 6.94044 14.6585C6.85011 13.9638 5.72096 13.8931 5.13831 14.2647C4.76796 14.4991 4.37051 15.061 4.25758 15.592C4.15822 16.0653 4.43825 16.6803 4.68215 16.9457C5.2964 17.6093 6.24037 17.6005 6.92238 17.2687C7.24305 17.1139 7.50953 16.8219 7.7489 16.6272C8.1283 16.3219 8.51221 15.7379 8.87806 15.269L8.0741 14.4196ZM13.1417 9.10615C12.6991 9.57953 11.9358 10.2785 11.448 10.836C10.924 11.4332 9.80395 12.5128 9.22136 13.1454L9.21224 13.1543L10.0298 14.0214C10.5492 13.4639 11.1589 12.8092 11.4887 12.495C11.8545 12.1455 12.4598 11.3891 12.8165 11.0794C12.9475 10.9688 13.5707 10.2742 13.8959 9.93789L13.1417 9.10615ZM4.93056 9.11062C5.37318 9.584 6.13197 10.283 6.61975 10.836C7.14368 11.4332 8.2638 12.5128 8.84639 13.1454L9.0316 13.3445L9.69551 14.0833L9.70008 14.0878L9.8265 14.2292C10.0117 14.4417 10.1969 14.6585 10.4363 14.9283C10.7976 15.3398 11.1679 15.9326 11.8093 16.1007C12.0351 16.1583 12.5636 16.0874 12.4055 15.6406C12.3513 15.4947 12.1978 15.2026 11.9448 15.1672C11.5654 15.1098 11.0596 15.1584 11.1228 14.654C11.2131 13.9595 12.3423 13.8886 12.9249 14.2603C13.2953 14.4948 13.6927 15.0567 13.8056 15.5875C13.905 16.0609 13.625 16.6758 13.3811 16.9413C12.7668 17.6049 11.8228 17.596 11.1409 17.2642C10.8202 17.1094 10.5538 16.8174 10.3143 16.6227C9.88971 16.2776 9.45166 15.5787 9.04515 15.092L9.04059 15.0875L8.24573 14.2382C7.69019 13.641 6.96301 12.8534 6.58815 12.4995C6.2223 12.15 5.61708 11.3934 5.26027 11.0838C5.12025 10.9643 4.42922 10.1945 4.1266 9.88044L4.13564 9.88925L4.93056 9.11062ZM9.9756 3.38136L10.1834 3.14246C10.5446 2.73101 10.9151 2.13818 11.5564 1.97007C11.7822 1.91255 12.3107 1.98333 12.1526 2.43017C12.0984 2.57616 11.9448 2.86816 11.6918 2.90355C11.3124 2.96106 10.8066 2.91239 10.8698 3.41675C10.9601 4.11134 12.0894 4.18212 12.6719 3.8105C13.0424 3.57601 13.4397 3.01416 13.5527 2.48326C13.6521 2.00987 13.3721 1.39492 13.1281 1.12948C12.5139 0.465858 11.57 0.474705 10.8879 0.806521C10.5673 0.961354 10.3008 1.25335 10.0614 1.44802C9.76785 1.68249 9.46978 2.08951 9.1807 2.47884L9.9756 3.38136ZM4.84474 4.62012C4.88991 4.63338 5.00282 4.71745 5.15638 4.77053C5.30995 4.82363 5.50416 4.84132 5.5945 4.87229C5.68483 4.90325 5.6758 4.93865 5.5945 5.0404C5.51772 5.13774 5.37318 5.297 5.2693 5.38991C5.16542 5.48282 5.10219 5.50936 5.06154 5.48282C5.02088 5.45184 5.00282 5.36336 4.9712 5.23064C4.93507 5.09792 4.88539 4.91653 4.84926 4.79707C4.81313 4.6732 4.79958 4.61127 4.84474 4.62012ZM3.57106 2.67792C3.49428 2.70446 3.34072 2.81064 3.24587 2.8947C3.15102 2.97877 3.11037 3.0407 3.14199 3.09379C3.17361 3.14688 3.27749 3.1867 3.39944 3.23536C3.52138 3.28403 3.66591 3.34154 3.75624 3.39906C3.8511 3.45657 3.89626 3.50965 3.90078 3.49639C3.90529 3.48311 3.86013 3.39906 3.81496 3.25749C3.7698 3.12034 3.71559 2.9301 3.68398 2.81064C3.65688 2.69119 3.64784 2.64695 3.57106 2.67792ZM3.67495 2.38593C3.57106 2.42133 3.41298 2.5098 3.21877 2.66465C3.02456 2.81949 2.79421 3.0407 2.73549 3.15572C2.67678 3.27075 2.78518 3.28403 2.98842 3.32826C3.19167 3.37693 3.48525 3.45657 3.7698 3.64237C4.04982 3.82819 4.32082 4.12019 4.51051 4.42545C4.70021 4.73514 4.81313 5.06253 4.84926 5.34566C4.88539 5.62881 4.84023 5.85887 4.89894 5.9031C4.95766 5.94735 5.11122 5.79692 5.32351 5.58457C5.53578 5.37222 5.81129 5.09349 5.9242 4.94307C6.04163 4.79707 5.99647 4.77938 5.82033 4.74399C5.64418 4.7086 5.32802 4.6555 5.02992 4.48296C4.73183 4.31042 4.44729 4.02286 4.25758 3.70432C4.06788 3.39021 3.97304 3.04513 3.92336 2.82392C3.87367 2.60271 3.87367 2.49654 3.84658 2.43459C3.82399 2.37708 3.77883 2.35495 3.67495 2.38593ZM2.27029 3.25306C2.48257 3.0407 2.84841 2.68677 3.15102 2.43902C3.45363 2.19126 3.69753 2.04969 3.84205 2.0143C3.98207 1.97891 4.02272 2.04528 4.05885 2.25763C4.09499 2.46556 4.13112 2.81949 4.26662 3.1867C4.40211 3.5539 4.6415 3.93437 4.94863 4.1777C5.25575 4.42102 5.63515 4.5272 5.94679 4.53606C6.25392 4.54491 6.49329 4.46084 6.60169 4.44757C6.71009 4.4343 6.69202 4.50066 6.35329 4.85902C6.01454 5.21737 5.35964 5.87213 4.92604 6.30128C4.49697 6.726 4.2892 6.92508 4.13564 7.01798C3.98207 7.1109 3.8782 7.10204 3.94594 6.98259C4.01369 6.85872 4.25307 6.61982 4.40663 6.31898C4.56019 6.01371 4.62794 5.64208 4.59633 5.29258C4.56472 4.94307 4.42922 4.61568 4.21242 4.32812C3.99563 4.04055 3.68849 3.7928 3.40395 3.66008C3.1149 3.52735 2.84389 3.50965 2.6 3.5185C2.3561 3.52736 2.14383 3.56275 2.07156 3.54505C1.99478 3.52735 2.0535 3.46099 2.27029 3.25306ZM2.85292 2.30187C3.03359 2.15145 3.24587 1.97005 3.48525 1.81522C3.72462 1.66038 3.98659 1.53207 4.13112 1.49225C4.27565 1.45243 4.30727 1.50553 4.30727 1.6294C4.30727 1.75328 4.27565 1.95236 4.28468 2.20897C4.29371 2.46556 4.34792 2.77967 4.47438 3.10264C4.60084 3.4256 4.80409 3.75741 5.0796 3.97419C5.35511 4.1954 5.7074 4.30158 6.05519 4.29715C6.40296 4.29273 6.74171 4.16885 6.97657 4.06709C7.21143 3.96091 7.34242 3.87244 7.40564 3.87686C7.46888 3.88129 7.46888 3.97419 7.25659 4.22637C7.03981 4.47853 6.61072 4.88556 6.09132 5.41645C5.57191 5.94735 4.9712 6.60211 4.61891 6.98259C4.27114 7.36306 4.17177 7.46483 4.00917 7.44713C3.84658 7.42942 3.61171 7.28344 3.49428 7.17726C3.37685 7.06665 3.36782 6.99587 3.51235 6.87642C3.65688 6.76139 3.95045 6.60211 4.12209 6.33225C4.29371 6.06238 4.34792 5.67305 4.32082 5.32797C4.29371 4.98289 4.19436 4.67763 3.95497 4.42102C3.71559 4.16001 3.33168 3.94765 2.97939 3.83704C2.63162 3.72644 2.31093 3.72644 2.06253 3.78837C1.81411 3.85032 1.63797 3.97419 1.51603 4.04498C1.39407 4.11134 1.3218 4.12019 1.34439 4.03613C1.36698 3.95207 1.47537 3.77068 1.66055 3.53178C1.84573 3.29729 2.10769 3.00088 2.31093 2.79737C2.52322 2.57616 2.66775 2.45672 2.85292 2.30187ZM1.90896 12.9243C1.60184 12.8225 1.47537 12.1898 1.85927 11.8004C2.17093 11.4864 2.91616 10.7652 3.36782 10.3183C3.64333 10.0441 3.81948 9.8715 3.96401 9.72558L4.67762 8.96902L4.70924 8.93363L4.73634 8.90709C5.188 8.43371 5.90163 7.77452 6.37135 7.24362C6.89527 6.64636 8.01538 5.56687 8.59797 4.93422C8.69742 4.82804 8.78774 4.73071 8.86907 4.63781L8.07862 3.74855C7.51404 4.35466 6.72364 5.21294 6.3307 5.58457C5.96485 5.93408 5.35964 6.6906 5.00282 7.00029C4.87636 7.10647 4.29371 7.75239 3.95948 8.1019L3.14199 8.92036C2.72195 9.33186 2.3019 9.75214 1.918 10.1547C1.67862 10.4068 1.23599 10.9731 0.992096 11.1899C0.427516 11.6987 0.391387 13.1233 1.02822 13.6055C1.43923 13.9152 1.57925 14.0435 1.93154 14.0878C2.55935 14.1673 3.0381 14.0214 3.60268 13.3533C4.04531 12.8313 3.83754 11.7916 3.2278 11.5041C2.88907 11.3448 2.34707 11.7342 2.53225 12.2119C2.74453 12.7605 2.39676 13.0834 1.90896 12.9243ZM16.1588 12.9243C16.466 12.8225 16.5924 12.1898 16.2084 11.8004C15.8968 11.4864 15.1516 10.7652 14.6999 10.3183C14.4244 10.0441 14.2483 9.8715 14.1038 9.72558L14.0947 9.73439L14.0992 9.72992L13.8283 9.43361L13.8237 9.42914L13.3359 8.90266L13.3314 8.89825C12.8797 8.42486 12.1661 7.76566 11.701 7.23919C11.177 6.64193 10.0569 5.56245 9.47421 4.92981C9.30712 4.74841 9.16714 4.59357 9.04059 4.45199L8.90061 4.29273L8.26831 3.5716L8.25928 3.56275C8.14637 3.43444 8.02894 3.29729 7.89344 3.13803C7.5321 2.72659 7.16175 2.13375 6.5204 1.96564C6.29457 1.90812 5.76612 1.97891 5.9242 2.42574C5.97841 2.57174 6.13197 2.86374 6.38489 2.89913C6.76429 2.95664 7.27015 2.90798 7.20692 3.41232C7.11659 4.10691 5.98744 4.1777 5.4048 3.80607C5.03444 3.5716 4.63697 3.00973 4.52407 2.47884C4.4247 2.00546 4.70473 1.3905 4.94863 1.12505C5.56288 0.461428 6.50685 0.470288 7.18884 0.802091C7.50953 0.956937 7.77601 1.24893 8.01538 1.44359C8.35413 1.71789 8.70185 2.22223 9.04059 2.66465L9.8265 3.5539C10.3911 4.15558 11.308 5.15986 11.7416 5.5713C12.1075 5.9208 12.7126 6.67733 13.0695 6.98701C13.1959 7.09319 13.7785 7.73912 14.1128 8.08863L14.9302 8.90709C15.3503 9.31859 15.7704 9.73886 16.1542 10.1414C16.3936 10.3935 16.8408 10.9599 17.0802 11.1766C17.6447 11.6854 17.6809 13.11 17.044 13.5922C16.6331 13.9019 16.4931 14.0302 16.1408 14.0745C15.513 14.1541 15.0341 14.0081 14.4696 13.3401C14.0315 12.818 14.2348 11.7783 14.8445 11.4908C15.1832 11.3315 15.7251 11.7209 15.5401 12.1986C15.3232 12.7605 15.6709 13.0834 16.1588 12.9243ZM2.15737 5.15101C1.85024 5.25276 1.72378 5.88541 2.10769 6.27474C2.41933 6.58885 3.16458 7.30998 3.61624 7.75681L3.82399 7.96032L3.79689 7.93378L2.94778 8.71684C2.6813 8.4514 2.41933 8.18596 2.17093 7.92493C1.93154 7.67276 1.48441 7.10647 1.24502 6.88969C0.680455 6.38092 0.644313 4.95635 1.28115 4.47412C1.69217 4.16442 1.83218 4.03613 2.18447 3.99188C2.81227 3.91225 3.29104 4.05825 3.85561 4.72629C4.29371 5.24833 4.09047 6.288 3.48073 6.57557C3.14199 6.73485 2.6 6.34552 2.78518 5.86772C2.99746 5.31469 2.64516 4.98732 2.15737 5.15101ZM13.2455 4.69974C13.2005 4.71302 13.0875 4.79707 12.9339 4.85017C12.7804 4.90325 12.5862 4.92095 12.4959 4.95192C12.4055 4.98289 12.4145 5.01828 12.4959 5.12004C12.5726 5.21737 12.7172 5.37664 12.8211 5.46954C12.9249 5.56245 12.9881 5.589 13.0288 5.56245C13.0695 5.53148 13.0875 5.443 13.1191 5.31028C13.1552 5.17755 13.2049 4.99617 13.2411 4.87671C13.2772 4.75284 13.2953 4.68648 13.2455 4.69974ZM14.5193 2.75313C14.5961 2.77967 14.7496 2.88585 14.8445 2.96991C14.9394 3.05398 14.9799 3.11591 14.9484 3.169C14.9167 3.22208 14.8128 3.2619 14.691 3.31057C14.569 3.35924 14.4244 3.41675 14.3341 3.47426C14.2392 3.53178 14.1941 3.58486 14.1896 3.5716C14.185 3.55832 14.2302 3.47426 14.2753 3.3327C14.3205 3.19554 14.3748 3.00531 14.4063 2.88585C14.4334 2.77083 14.4425 2.72659 14.5193 2.75313ZM14.4154 2.46556C14.5193 2.50095 14.6774 2.58944 14.8716 2.74428C15.0658 2.89913 15.2961 3.12034 15.3549 3.23536C15.4135 3.35039 15.3052 3.36367 15.1019 3.4079C14.8987 3.45657 14.6051 3.53621 14.3205 3.72201C14.0405 3.90783 13.7695 4.19981 13.5799 4.50509C13.3901 4.81478 13.2772 5.14215 13.2411 5.4253C13.2049 5.70844 13.2501 5.93851 13.1913 5.98274C13.1327 6.02698 12.9791 5.87656 12.7668 5.6642C12.5545 5.45184 12.279 5.17312 12.1661 5.02271C12.0487 4.87671 12.0939 4.85902 12.27 4.82363C12.4462 4.78823 12.7623 4.73514 13.0603 4.5626C13.3586 4.39006 13.6431 4.10249 13.8327 3.78396C14.0225 3.46983 14.1174 3.12475 14.167 2.90355C14.2167 2.68234 14.2167 2.57616 14.2438 2.51423C14.2663 2.45229 14.3116 2.43017 14.4154 2.46556ZM15.8246 3.32826C15.6123 3.11591 15.2464 2.76198 14.9438 2.51423C14.6412 2.26648 14.3973 2.1249 14.2528 2.08951C14.1128 2.05412 14.0721 2.12048 14.036 2.33284C13.9999 2.54077 13.9637 2.8947 13.8283 3.2619C13.6927 3.62911 13.4533 4.00958 13.1462 4.25291C12.839 4.49624 12.4598 4.60242 12.148 4.61127C11.8409 4.62011 11.6015 4.53606 11.4932 4.52278C11.3848 4.5095 11.4029 4.57587 11.7416 4.93422C12.0804 5.29258 12.7352 5.94735 13.1688 6.37649C13.5978 6.80121 13.8056 7.00029 13.9593 7.09319C14.1128 7.18611 14.2167 7.17726 14.1489 7.0578C14.0811 6.93393 13.8418 6.69503 13.6882 6.39418C13.5346 6.08892 13.4669 5.7173 13.4985 5.36779C13.5302 5.01828 13.6656 4.69089 13.8825 4.40333C14.0992 4.11576 14.4063 3.86801 14.691 3.73529C14.9799 3.60257 15.251 3.58486 15.4949 3.59372C15.7387 3.60257 15.951 3.63796 16.0234 3.62026C16.0956 3.60698 16.0368 3.54062 15.8246 3.32826ZM15.2419 2.38151C15.0612 2.23108 14.8489 2.04969 14.6096 1.89485C14.3702 1.74 14.1082 1.61171 13.9637 1.57189C13.8191 1.53207 13.7876 1.58517 13.7876 1.70904C13.7876 1.83292 13.8191 2.032 13.8102 2.28859C13.8012 2.5452 13.7469 2.85931 13.6205 3.18227C13.494 3.50524 13.2908 3.83704 13.0153 4.05383C12.7397 4.27503 12.3874 4.38121 12.0397 4.37678C11.6918 4.37237 11.3531 4.24848 11.1182 4.14673C10.8834 4.04055 10.7524 3.95207 10.6892 3.9565C10.626 3.96091 10.626 4.05383 10.8383 4.30599C11.055 4.55817 11.4841 4.9652 12.0035 5.49609C12.523 6.02698 13.1237 6.68175 13.476 7.06223C13.8237 7.4427 13.923 7.54445 14.0857 7.52676C14.2482 7.50906 14.4832 7.36306 14.6006 7.25689C14.7181 7.14629 14.7271 7.0755 14.5825 6.95605C14.438 6.84103 14.1443 6.68175 13.9728 6.41188C13.8012 6.142 13.7469 5.75269 13.7741 5.40761C13.8012 5.06253 13.9005 4.75725 14.1399 4.50066C14.3792 4.23963 14.7632 4.02727 15.1154 3.91668C15.4632 3.80607 15.7839 3.80607 16.0323 3.86801C16.2808 3.92995 16.4568 4.05383 16.5788 4.12461C16.7008 4.19097 16.773 4.19983 16.7505 4.11576C16.7279 4.0317 16.6195 3.85032 16.4343 3.61141C16.2491 3.37693 15.9871 3.08052 15.7839 2.877C15.5716 2.6558 15.4226 2.53192 15.2419 2.38151ZM8.69742 0.660523C8.79673 0.638398 8.95939 0.633981 9.10393 0.638398C9.24847 0.642828 9.37946 0.656093 9.411 0.709189C9.44267 0.757855 9.37033 0.84191 9.29813 0.921548C9.22579 1.00117 9.1446 1.08081 9.06327 1.10294C8.98194 1.12505 8.90061 1.09851 8.81029 1.02773C8.71997 0.961354 8.62508 0.855188 8.59354 0.788814C8.56643 0.718036 8.59797 0.682634 8.69742 0.660523ZM8.33155 0.536649C8.42646 0.492399 8.6071 0.457011 8.86451 0.452581C9.12192 0.448164 9.46065 0.474705 9.65042 0.505677C9.84006 0.532219 9.88971 0.55876 9.8265 0.656093C9.76329 0.753425 9.58721 0.917118 9.45166 1.04542C9.31611 1.17371 9.2168 1.26663 9.11749 1.29759C9.01804 1.33299 8.91416 1.30645 8.79673 1.22681C8.6793 1.14717 8.54389 1.01445 8.44444 0.912701C8.3451 0.810938 8.28639 0.740148 8.25928 0.682634C8.2367 0.625121 8.24121 0.580885 8.33155 0.536649ZM7.94313 0.368526C8.09669 0.311012 8.38579 0.244652 8.81485 0.240234C9.23935 0.235804 9.79939 0.28447 10.093 0.333137C10.3865 0.381803 10.4092 0.421622 10.2466 0.611856C10.0885 0.802091 9.74074 1.14276 9.49689 1.35068C9.2529 1.55861 9.10836 1.63382 8.95027 1.58958C8.79217 1.54092 8.61609 1.36838 8.41733 1.1693C8.21864 0.974632 7.9928 0.753425 7.8844 0.616273C7.78052 0.479135 7.78955 0.426039 7.94313 0.368526ZM9.0226 0.00132038C9.38389 0.00575056 9.8626 0.0278751 10.233 0.0765413C10.6034 0.129625 10.8698 0.21368 10.8202 0.38622C10.7751 0.56319 10.4182 0.828633 10.0705 1.14717C9.72262 1.46571 9.38389 1.83733 9.16258 1.95679C8.94127 2.07623 8.84196 1.94794 8.59797 1.67807C8.35413 1.4082 7.9657 0.996756 7.68568 0.740148C7.40564 0.483552 7.23402 0.381803 7.32886 0.288887C7.42823 0.191568 7.79408 0.103083 8.10119 0.0499866C8.4129 0.00132033 8.66132 -0.00309665 9.0226 0.00132038ZM8.66575 17.3394C8.76519 17.3615 8.92772 17.366 9.07226 17.3615C9.2168 17.3572 9.34778 17.3439 9.37946 17.2908C9.411 17.2422 9.33879 17.158 9.26646 17.0785C9.19425 16.9988 9.11292 16.9192 9.0316 16.8971C8.95027 16.875 8.86907 16.9014 8.77875 16.9723C8.68829 17.0387 8.59354 17.1448 8.56187 17.2111C8.53476 17.282 8.56643 17.3174 8.66575 17.3394ZM8.29993 17.4634C8.39478 17.5076 8.57543 17.5429 8.83283 17.5474C9.09038 17.5519 9.42912 17.5253 9.61875 17.4943C9.80852 17.4677 9.85817 17.4412 9.79496 17.3439C9.73175 17.2465 9.55554 17.0828 9.41999 16.9545C9.28457 16.8262 9.18513 16.7334 9.08581 16.7024C8.9865 16.667 8.88262 16.6936 8.76519 16.7732C8.64776 16.8528 8.51221 16.9856 8.4129 17.0873C8.31348 17.1891 8.25477 17.2598 8.22766 17.3174C8.20056 17.3748 8.20508 17.4191 8.29993 17.4634ZM7.91151 17.6314C8.06507 17.689 8.35413 17.7554 8.78318 17.7597C9.20781 17.7642 9.76785 17.7155 10.0614 17.6669C10.355 17.6181 10.3776 17.5784 10.2149 17.3881C10.0569 17.1979 9.70907 16.8572 9.46522 16.6493C9.22136 16.4413 9.07682 16.3661 8.91873 16.4104C8.76063 16.4591 8.58442 16.6317 8.38579 16.8307C8.18702 17.0297 7.96119 17.251 7.8573 17.3837C7.7489 17.5209 7.75793 17.574 7.91151 17.6314ZM8.99093 17.9987C9.35235 17.9942 9.83106 17.9722 10.2015 17.9235C10.5717 17.8704 10.8383 17.7863 10.7886 17.6138C10.7434 17.4369 10.3865 17.1713 10.0388 16.8528C9.69109 16.5343 9.35235 16.1626 9.13104 16.0433C8.9096 15.9238 8.81029 16.0521 8.56643 16.3219C8.32251 16.5918 7.93408 17.0033 7.65406 17.2598C7.37404 17.5164 7.2024 17.6181 7.29724 17.7111C7.39661 17.8085 7.76246 17.897 8.06959 17.9499C8.38123 17.9987 8.62965 18.003 8.99093 17.9987ZM17.2382 9.23011C17.2609 9.11943 17.2699 8.94248 17.2653 8.77879C17.2609 8.6151 17.2428 8.47353 17.1841 8.43812C17.1299 8.40274 17.035 8.48237 16.9401 8.56201C16.8498 8.64607 16.7595 8.73012 16.7279 8.82302C16.7008 8.91151 16.7369 9.00441 16.8137 9.10181C16.8905 9.19909 17.0125 9.30531 17.0892 9.34067C17.175 9.37603 17.2156 9.3362 17.2382 9.23011ZM17.3783 9.63264C17.428 9.53089 17.4731 9.32739 17.4776 9.03976C17.4822 8.75225 17.4505 8.38504 17.419 8.17268C17.3873 7.96032 17.3556 7.90724 17.2473 7.97802C17.1389 8.04881 16.9447 8.24347 16.8001 8.39389C16.651 8.5443 16.5472 8.65048 16.5065 8.76109C16.4704 8.87169 16.4975 8.9823 16.5878 9.11496C16.6782 9.24773 16.8318 9.39812 16.9492 9.50434C17.0667 9.61056 17.1479 9.68128 17.2111 9.70784C17.2789 9.73886 17.3287 9.73439 17.3783 9.63264ZM17.5769 10.0617C17.6447 9.89372 17.717 9.57073 17.726 9.09734C17.735 8.62837 17.6718 8.00899 17.6176 7.68603C17.5635 7.36306 17.5137 7.33652 17.297 7.51349C17.0757 7.69045 16.6873 8.07093 16.4479 8.34081C16.2084 8.61068 16.1181 8.76994 16.1769 8.94248C16.2311 9.11943 16.4343 9.30965 16.6602 9.53089C16.8859 9.75214 17.1389 9.99981 17.297 10.1193C17.4505 10.2431 17.5093 10.2299 17.5769 10.0617ZM17.997 8.87169C17.988 8.47353 17.9699 7.94263 17.9067 7.5356C17.848 7.12416 17.7486 6.8366 17.55 6.88526C17.3466 6.93393 17.044 7.32768 16.6737 7.71258C16.3079 8.09747 15.8788 8.47353 15.7387 8.71684C15.5987 8.96018 15.7478 9.07079 16.0595 9.34067C16.3711 9.61056 16.8454 10.0353 17.1389 10.3449C17.4325 10.6546 17.55 10.8448 17.6583 10.7387C17.7713 10.6325 17.8751 10.2255 17.9338 9.88478C17.997 9.54417 18.0061 9.26982 17.997 8.87169ZM0.761744 9.30531C0.73917 9.19462 0.730138 9.01769 0.734647 8.854C0.73917 8.6903 0.757235 8.54874 0.81595 8.51335C0.870143 8.47794 0.964999 8.55758 1.05984 8.63722C1.15018 8.72128 1.24051 8.80533 1.27212 8.89825C1.29923 8.98672 1.26309 9.07959 1.18631 9.17701C1.10953 9.27429 0.987573 9.3805 0.910793 9.41587C0.824982 9.45123 0.784331 9.41587 0.761744 9.30531ZM0.621739 9.71231C0.572056 9.61056 0.526882 9.40706 0.522373 9.11943C0.51785 8.83188 0.549469 8.46468 0.581088 8.25232C0.612707 8.03996 0.644313 7.98686 0.752712 8.05766C0.86111 8.12845 1.05532 8.3231 1.19986 8.47353C1.34891 8.62394 1.45279 8.73012 1.49344 8.84073C1.52957 8.95133 1.50247 9.06198 1.41214 9.19462C1.3218 9.32739 1.16824 9.47331 1.05081 9.584C0.93338 9.69022 0.852078 9.76095 0.788853 9.7875C0.721106 9.81839 0.671423 9.81406 0.621739 9.71231ZM0.423006 10.1414C0.355258 9.97325 0.282989 9.65039 0.273956 9.17701C0.264924 8.708 0.328162 8.08863 0.382355 7.76566C0.436561 7.4427 0.486231 7.41616 0.703028 7.59312C0.924348 7.77009 1.31277 8.15056 1.55215 8.42043C1.79152 8.6903 1.88186 8.84958 1.82314 9.02212C1.76895 9.19909 1.56569 9.38931 1.33987 9.61056C1.11404 9.83167 0.86111 10.0795 0.703028 10.199C0.549469 10.3183 0.490753 10.3095 0.423006 10.1414ZM0.00296641 8.9469C0.0119985 8.54873 0.0300625 8.01784 0.0933007 7.61083C0.152016 7.19937 0.251369 6.9118 0.450102 6.96047C0.653345 7.00914 0.955968 7.40288 1.32632 7.78778C1.69217 8.17268 2.12124 8.54874 2.26126 8.79207C2.40127 9.03538 2.25222 9.14598 1.94057 9.41587C1.62893 9.68575 1.15469 10.1105 0.86111 10.4201C0.567533 10.7298 0.450102 10.92 0.341704 10.8139C0.228796 10.7077 0.124906 10.3007 0.0661909 9.95998C0.0029662 9.62383 -0.00606569 9.34948 0.00296641 8.9469ZM3.1149 14.893C3.18715 14.8442 3.33168 14.7823 3.4446 14.7159C3.55751 14.6497 3.63881 14.5788 3.62978 14.6629C3.62075 14.7514 3.52138 14.9947 3.45816 15.1186C3.39492 15.2424 3.37233 15.2513 3.30911 15.2115C3.24587 15.1717 3.14199 15.092 3.09231 15.0344C3.04263 14.977 3.04263 14.9416 3.1149 14.893ZM4.97572 12.5261C4.9441 12.557 4.94863 12.672 4.9396 12.7827C4.93056 12.8932 4.90798 12.995 4.92604 13.0436C4.9441 13.0923 5.00734 13.0879 5.09768 13.0702C5.188 13.0526 5.30995 13.026 5.36867 12.995C5.42738 12.964 5.42738 12.9286 5.3777 12.8667C5.32802 12.8048 5.23317 12.7118 5.15187 12.6366C5.07057 12.557 5.00734 12.495 4.97572 12.5261ZM4.80409 12.2075C4.79505 12.3402 4.79958 12.6101 4.77248 12.8356C4.74989 13.0614 4.69118 13.2383 4.73183 13.2958C4.77248 13.3489 4.90798 13.2826 5.09768 13.2295C5.28286 13.1764 5.52223 13.141 5.64418 13.11C5.76612 13.079 5.77515 13.0526 5.68031 12.9419C5.58546 12.8268 5.38222 12.6233 5.22865 12.4685C5.07509 12.3136 4.97572 12.2031 4.90798 12.1455C4.84023 12.0836 4.81313 12.0748 4.80409 12.2075ZM4.20339 11.1856C4.16274 11.1811 4.15822 11.2342 4.24855 11.4332C4.33889 11.6324 4.52857 11.9775 4.59181 12.3269C4.65505 12.6765 4.59181 13.0348 4.46986 13.3312C4.34792 13.6277 4.16725 13.8621 3.98659 14.0612C3.80593 14.2647 3.62075 14.4329 3.39944 14.5522C3.18264 14.6717 2.92519 14.7425 2.80776 14.7956C2.69033 14.8532 2.7084 14.893 2.83938 15.0124C2.97036 15.1318 3.20974 15.3353 3.3362 15.4105C3.46266 15.4857 3.48073 15.4371 3.53944 15.2778C3.59816 15.1186 3.69753 14.8442 3.86464 14.5434C4.02725 14.2425 4.25758 13.9107 4.51051 13.6851C4.76345 13.4596 5.03896 13.3356 5.32351 13.2914C5.60805 13.2471 5.8926 13.2826 6.04163 13.2781C6.18617 13.2737 6.19521 13.2383 5.99647 13.026C5.79774 12.8136 5.39576 12.4286 5.09315 12.1101C4.79055 11.7961 4.59181 11.5483 4.45179 11.3934C4.32082 11.2475 4.24404 11.1899 4.20339 11.1856ZM3.95045 10.836C3.83754 10.8493 3.78334 10.9378 3.83754 11.1192C3.89626 11.3049 4.06788 11.5836 4.19887 11.858C4.32533 12.1323 4.41114 12.3933 4.41114 12.6985C4.41114 13.0038 4.32533 13.3533 4.10402 13.6541C3.8827 13.9595 3.51687 14.2204 3.19618 14.3798C2.87551 14.5434 2.59097 14.6054 2.45095 14.6629C2.31094 14.7204 2.31094 14.769 2.47354 14.9504C2.63613 15.1274 2.96132 15.4326 3.18715 15.6097C3.41298 15.7822 3.54397 15.8265 3.60719 15.7955C3.67043 15.7644 3.67495 15.6583 3.69753 15.4769C3.72011 15.3 3.76076 15.0477 3.91885 14.7292C4.07693 14.4151 4.35695 14.0302 4.68215 13.7957C5.00734 13.5568 5.38222 13.4684 5.71644 13.4639C6.05067 13.4596 6.34876 13.5436 6.51136 13.5568C6.66944 13.5701 6.69202 13.5082 6.46619 13.2516C6.24037 12.9905 5.77064 12.5349 5.38221 12.1146C4.99831 11.6943 4.69569 11.3182 4.46083 11.097C4.22597 10.8759 4.06337 10.8227 3.95045 10.836ZM1.9451 14.455C2.10769 14.4417 2.37869 14.4372 2.72195 14.3267C3.06521 14.2161 3.4717 13.9949 3.76076 13.6719C4.04982 13.3489 4.22146 12.9198 4.17177 12.5083C4.11757 12.1013 3.84207 11.7119 3.65237 11.4553C3.46266 11.1988 3.35879 11.0705 3.39944 10.9067C3.44008 10.7431 3.62527 10.5484 3.79238 10.4732C3.95948 10.398 4.10403 10.4378 4.51503 10.8272C4.92604 11.2209 5.59901 11.9642 6.141 12.5526C6.68299 13.141 7.08949 13.5789 7.3108 13.8754C7.53663 14.1718 7.57728 14.3222 7.43275 14.2824C7.28821 14.2425 6.95398 14.0125 6.61975 13.8533C6.28553 13.6984 5.94679 13.6188 5.54932 13.6984C5.15639 13.7781 4.70473 14.0125 4.40211 14.3974C4.10402 14.7823 3.95498 15.3088 3.91432 15.6627C3.87367 16.0167 3.93239 16.2025 3.81948 16.229C3.70656 16.2556 3.42654 16.1228 3.1149 15.8972C2.80324 15.6716 2.4645 15.3531 2.22061 15.1053C1.97672 14.8575 1.83218 14.6805 1.78249 14.5788C1.73281 14.4859 1.78249 14.4682 1.9451 14.455ZM14.8625 14.8708C14.7903 14.8221 14.6457 14.7602 14.5329 14.6938C14.4199 14.6274 14.3387 14.5567 14.3477 14.6407C14.3566 14.7292 14.4561 14.9725 14.5193 15.0965C14.5825 15.2203 14.6051 15.2291 14.6683 15.1893C14.7315 15.1496 14.8355 15.0699 14.8852 15.0124C14.9348 14.9504 14.9348 14.9151 14.8625 14.8708ZM13.0017 12.4995C13.0334 12.5304 13.0288 12.6454 13.0378 12.7561C13.0469 12.8667 13.0695 12.9684 13.0514 13.0171C13.0334 13.0657 12.97 13.0614 12.8797 13.0436C12.7894 13.026 12.6675 12.9994 12.6087 12.9684C12.5501 12.9375 12.5501 12.902 12.5997 12.8401C12.6494 12.7782 12.7443 12.6853 12.8255 12.6101C12.9068 12.5304 12.97 12.473 13.0017 12.4995ZM13.1779 12.181C13.1869 12.3136 13.1823 12.5835 13.2094 12.8092C13.232 13.0348 13.2908 13.2118 13.2501 13.2693C13.2094 13.3223 13.0739 13.2561 12.8843 13.2029C12.6991 13.1498 12.4598 13.1145 12.3378 13.0834C12.2158 13.0526 12.2068 13.026 12.3017 12.9153C12.3964 12.8003 12.5997 12.5968 12.7533 12.4419C12.9068 12.2871 13.0063 12.1765 13.0739 12.1191C13.1372 12.057 13.1644 12.0482 13.1779 12.181ZM13.7741 11.159C13.8147 11.1545 13.8191 11.2077 13.7288 11.4067C13.6385 11.6058 13.4489 11.9509 13.3857 12.3003C13.3223 12.6499 13.3857 13.0083 13.5075 13.3047C13.6295 13.6011 13.8102 13.8355 13.9908 14.0347C14.1714 14.2382 14.3566 14.4063 14.578 14.5257C14.7948 14.6452 15.0522 14.7159 15.1697 14.769C15.2871 14.8266 15.269 14.8664 15.138 14.9858C15.007 15.1053 14.7677 15.3088 14.6412 15.384C14.5147 15.4592 14.4966 15.4105 14.438 15.2513C14.3792 15.092 14.2799 14.8177 14.1128 14.5169C13.9501 14.2161 13.7198 13.8842 13.4669 13.6586C13.214 13.433 12.9385 13.309 12.654 13.2649C12.3693 13.2206 12.0848 13.2561 11.9358 13.2516C11.7913 13.2471 11.7822 13.2118 11.9809 12.9994C12.1797 12.787 12.5816 12.4021 12.8843 12.0836C13.1869 11.7695 13.3857 11.5217 13.5256 11.3669C13.6611 11.2209 13.7334 11.1634 13.7741 11.159ZM14.0269 10.8095C14.1399 10.8227 14.1941 10.9112 14.1399 11.0926C14.0811 11.2784 13.9095 11.5571 13.7785 11.8314C13.6521 12.1058 13.5663 12.3667 13.5663 12.672C13.5663 12.9772 13.6521 13.3268 13.8734 13.6277C14.0947 13.9329 14.4605 14.1939 14.7813 14.3532C15.1019 14.5169 15.3864 14.5788 15.5265 14.6364C15.6665 14.6938 15.6665 14.7425 15.5038 14.9239C15.3413 15.1008 15.0161 15.4061 14.7903 15.5831C14.5644 15.7556 14.4334 15.7999 14.3702 15.7689C14.307 15.7379 14.3024 15.6318 14.2799 15.4504C14.2573 15.2734 14.2167 15.0213 14.0586 14.7026C13.9005 14.3886 13.6205 14.0037 13.2953 13.7691C12.97 13.5303 12.5952 13.4418 12.261 13.4373C11.9267 13.433 11.6286 13.517 11.4661 13.5303C11.308 13.5436 11.2853 13.4816 11.5112 13.225C11.7371 12.964 12.2068 12.5083 12.5952 12.088C12.9791 11.6678 13.2818 11.2917 13.5166 11.0705C13.7515 10.8538 13.9186 10.7962 14.0269 10.8095ZM16.0368 14.4284C15.8743 14.4151 15.6033 14.4107 15.26 14.3001C14.9167 14.1895 14.5102 13.9683 14.2212 13.6453C13.9321 13.3223 13.7605 12.8932 13.8102 12.4818C13.8644 12.0748 14.1399 11.6854 14.3295 11.4289C14.5193 11.1723 14.6232 11.044 14.5825 10.8802C14.5419 10.7165 14.3566 10.5218 14.1896 10.4466C14.0225 10.3714 13.8779 10.4113 13.4669 10.8007C13.0559 11.1944 12.3829 11.9376 11.8409 12.5261C11.2989 13.1145 10.8925 13.5524 10.6712 13.8488C10.4453 14.1452 10.4047 14.2956 10.5492 14.2558C10.6937 14.2161 11.0279 13.986 11.3622 13.8267C11.6964 13.6719 12.0351 13.5922 12.4327 13.6719C12.8255 13.7515 13.2772 13.986 13.5799 14.3708C13.8779 14.7514 14.0269 15.2822 14.0676 15.6361C14.1082 15.9901 14.0496 16.1759 14.1624 16.2024C14.2753 16.229 14.5554 16.0962 14.867 15.8706C15.1787 15.6451 15.5174 15.3265 15.7614 15.0787C16.0052 14.8309 16.1498 14.654 16.1994 14.5522C16.2447 14.4593 16.1949 14.4417 16.0368 14.4284ZM6.89979 2.42133C6.73268 2.3063 6.52491 2.19569 6.36232 2.17357C6.19971 2.15145 6.07777 2.22223 6.05519 2.324C6.0326 2.42574 6.10938 2.5629 6.23586 2.64695C6.3578 2.72659 6.52943 2.75313 6.71912 2.76198C6.90882 2.77526 7.1211 2.77526 7.16175 2.71331C7.2024 2.6558 7.07141 2.53635 6.89979 2.42133ZM11.1138 2.42133C11.2809 2.3063 11.4886 2.19569 11.6512 2.17357C11.8138 2.15145 11.9358 2.22223 11.9584 2.324C11.9809 2.42574 11.9042 2.5629 11.7777 2.64695C11.6557 2.72659 11.4841 2.75313 11.2945 2.76198C11.1047 2.77526 10.8925 2.77526 10.8518 2.71331C10.8112 2.6558 10.9466 2.53635 11.1138 2.42133ZM11.4209 15.6671C11.588 15.7822 11.7957 15.8927 11.9584 15.9149C12.1209 15.937 12.2429 15.8662 12.2654 15.7644C12.2881 15.6627 12.2114 15.5256 12.0848 15.4416C11.9629 15.3619 11.7913 15.3353 11.6015 15.3265C11.4119 15.3133 11.1996 15.3133 11.1589 15.3752C11.1182 15.4326 11.2492 15.5521 11.4209 15.6671ZM6.66944 15.6671C6.50232 15.7822 6.29457 15.8927 6.13197 15.9149C5.96938 15.937 5.84742 15.8662 5.82483 15.7644C5.80226 15.6627 5.87904 15.5256 6.0055 15.4416C6.12746 15.3619 6.29908 15.3353 6.48878 15.3265C6.67847 15.3133 6.89076 15.3133 6.93141 15.3752C6.97206 15.4326 6.83655 15.5521 6.66944 15.6671ZM2.42838 6.1951C2.48709 6.13759 2.54128 6.02256 2.57741 5.88541C2.61355 5.74826 2.63613 5.58457 2.6 5.46954C2.56387 5.35451 2.47354 5.28815 2.37417 5.28815C2.2748 5.28815 2.17093 5.35894 2.11672 5.46954C2.06253 5.57572 2.06253 5.72172 2.08962 5.85887C2.12124 5.99602 2.18447 6.13316 2.24318 6.1951C2.31093 6.25703 2.36966 6.25261 2.42838 6.1951ZM2.20706 11.9154C2.26577 11.973 2.31998 12.088 2.3561 12.2252C2.39223 12.3624 2.41482 12.5261 2.37869 12.6411C2.34255 12.7561 2.25222 12.8225 2.15286 12.8225C2.0535 12.8225 1.94961 12.7516 1.89541 12.6411C1.84121 12.5349 1.84121 12.3888 1.86832 12.2517C1.89992 12.1146 1.96316 11.9775 2.02188 11.9154C2.09415 11.8492 2.15286 11.8535 2.20706 11.9154ZM15.6168 6.2128C15.5581 6.15528 15.5038 6.04026 15.4677 5.9031C15.4316 5.76597 15.4091 5.60227 15.4452 5.48725C15.4813 5.37221 15.5716 5.30585 15.6709 5.30585C15.7704 5.30585 15.8743 5.37664 15.9285 5.48725C15.9827 5.59341 15.9827 5.73941 15.9556 5.87656C15.9239 6.01371 15.8607 6.15085 15.8019 6.2128C15.7297 6.27916 15.6755 6.27474 15.6168 6.2128ZM15.8336 11.9332C15.7749 11.9908 15.7207 12.1058 15.6845 12.2429C15.6484 12.38 15.6258 12.5437 15.6619 12.6587C15.698 12.7737 15.7885 12.8401 15.8878 12.8401C15.9871 12.8401 16.091 12.7694 16.1452 12.6587C16.1994 12.5526 16.1994 12.4066 16.1723 12.2695C16.1408 12.1323 16.0774 11.9951 16.0188 11.9332C15.951 11.8713 15.8924 11.8757 15.8336 11.9332ZM15.9104 5.15101C16.2176 5.25276 16.344 5.88541 15.96 6.27474C15.6484 6.58885 14.9031 7.30998 14.4515 7.75681L14.3251 7.88512L15.1561 8.6903C15.4135 8.43371 15.6665 8.17711 15.9058 7.92935C16.1452 7.67719 16.5924 7.11089 16.8318 6.89411C17.3963 6.38534 17.4325 4.96077 16.7956 4.47855C16.3846 4.16885 16.2447 4.04055 15.8924 3.99631C15.2646 3.91668 14.7857 4.06268 14.2212 4.73071C13.783 5.25276 13.9864 6.29243 14.5961 6.58C14.9348 6.73926 15.4767 6.34995 15.2917 5.87213C15.0704 5.31469 15.4226 4.98732 15.9104 5.15101Z" fill="#F3C980"/>
</svg>