<?xml version="1.0" standalone="no"?>
<!DOCTYPE svg PUBLIC "-//W3C//DTD SVG 1.0//EN" "http://www.w3.org/TR/2001/REC-SVG-20010904/DTD/svg10.dtd">
<svg xmlns="http://www.w3.org/2000/svg" xmlns:xlink="http://www.w3.org/1999/xlink" id="body_1" width="66" height="33">
    <path d="M20.5434 21.3406C20.2501 21.6339 16.2208 23.9426 19.9566 32.4874H14.6768C18.771 23.9426 14.3833 21.6339 14.09 21.3406C13.7966 21.0472 20.8368 21.0472 20.5434 21.3406Z" fill="#042D3A"/>
    <path d="M1.86861 26.1764C5.28652 20.7245 8.83164 23.8751 8.83164 23.8751C8.83164 23.8751 8.10792 28.3036 1.86861 26.1764Z" fill="#00C07C"/>
    <path d="M0.506973 17.9042C6.87111 16.9538 6.78413 21.6959 6.78413 21.6959C6.78413 21.6959 2.94982 24.0268 0.506973 17.9042Z" fill="#00C07C"/>
    <path d="M7.46038 13.1856C12.5898 17.0707 9.139 20.3244 9.139 20.3244C9.139 20.3244 4.79154 19.2132 7.46038 13.1856Z" fill="#00C07C"/>
    <path d="M2.23333 9.4231C7.36278 13.3082 3.91195 16.5619 3.91195 16.5619C3.91195 16.5619 -0.435516 15.4506 2.23333 9.4231Z" fill="#00C07C"/>
    <path d="M7.44179 3.84427C10.444 9.53566 5.94024 11.0224 5.94024 11.0224C5.94024 11.0224 2.47207 8.17508 7.44179 3.84427Z" fill="#00C07C"/>
    <path d="M15.701 0.654336C13.9446 6.84468 9.65965 4.81149 9.65965 4.81149C9.65965 4.81149 9.11572 0.357349 15.701 0.654336Z" fill="#00C07C"/>
    <path d="M14.4769 6.37716C15.3838 12.7476 10.6425 12.6283 10.6425 12.6283C10.6425 12.6283 8.33777 8.77816 14.4769 6.37716Z" fill="#00C07C"/>
    <path d="M13.5152 13.0921C17.121 18.4216 12.8065 20.3912 12.8065 20.3912C12.8065 20.3912 9.04811 17.9397 13.5152 13.0921Z" fill="#00C07C"/>
    <path d="M16.5223 9.81419C22.303 12.6407 19.542 16.4971 19.542 16.4971C19.542 16.4971 15.062 16.2424 16.5223 9.81419Z" fill="#00C07C"/>
    <path d="M19.721 0.967834C22.1644 6.92059 17.5389 7.96912 17.5389 7.96912C17.5389 7.96912 14.3594 4.80277 19.721 0.967834Z" fill="#00C07C"/>
    <path d="M21.8047 6.22858C27.5228 9.17949 24.6791 12.9752 24.6791 12.9752C24.6791 12.9752 20.2057 12.6237 21.8047 6.22858Z" fill="#00C07C"/>
    <path d="M23.5211 2.29832C29.8042 3.68693 28.027 8.08421 28.027 8.08421C28.027 8.08421 23.6126 8.88965 23.5211 2.29832Z" fill="#00C07C"/>
    <path d="M30.6277 9.21752C32.6795 15.3163 27.9957 16.0624 27.9957 16.0624C27.9957 16.0624 25.0284 12.6963 30.6277 9.21752Z" fill="#00C07C"/>
    <path d="M25.3479 13.9111C27.3997 20.0099 22.7159 20.756 22.7159 20.756C22.7159 20.756 19.7486 17.3899 25.3479 13.9111Z" fill="#00C07C"/>
    <path d="M33.4497 17.1048C30.8624 22.9964 26.8962 20.3958 26.8962 20.3958C26.8962 20.3958 26.9671 15.9092 33.4497 17.1048Z" fill="#00C07C"/>
    <path d="M31.1386 24.4691C25.7556 27.9946 23.8509 23.651 23.8509 23.651C23.8509 23.651 26.3585 19.9298 31.1386 24.4691Z" fill="#00C07C"/>
    <g transform="translate(34,0)" id="Symbols" stroke="none" stroke-width="1" fill="none" fill-rule="evenodd">
        <g id="Coin-Icon---USDC" transform="translate(-2.000000, -2.000000)">
            <g id="Icon" transform="translate(-1.000000, -1.000000)">
                <g id="color" transform="translate(3.000000, 3.000000)">
                    <circle id="Circle" fill="#2775C9" fill-rule="nonzero" cx="16" cy="16" r="16"></circle>
                    <path d="M15.04,10.0591961 L15.04,9.06 C15.04,8.52980664 15.4698066,8.1 16,8.1 C16.5301934,8.1 16.96,8.52980664 16.96,9.06 L16.96,10.0557372 C18.6971799,10.3172928 19.8881894,11.3049593 20.2060802,12.7122227 C20.275025,13.0174328 20.0834941,13.3207453 19.778284,13.3896901 C19.7373169,13.3989443 19.6954478,13.4036144 19.6534484,13.4036144 L19.1341192,13.4036356 C18.7138769,13.4036356 18.3314477,13.1608983 18.1525745,12.7806248 C17.8213939,12.0765555 17.0362191,11.6711458 15.9907813,11.6711458 C14.6833854,11.6711458 13.8010937,12.3128125 13.8010937,13.2753125 C13.8010937,14.0453125 14.3866146,14.4944792 15.8063021,14.8313542 L17.1377604,15.1361458 C19.4878646,15.6735417 20.4824479,16.6440625 20.4824479,18.3685417 C20.4824479,20.2794558 19.1483601,21.5718383 16.96,21.8766004 L16.96,23.0333333 C16.96,23.5635267 16.5301934,23.9933333 16,23.9933333 C15.4698066,23.9933333 15.04,23.5635267 15.04,23.0333333 L15.04,21.8947271 C13.1015956,21.6606715 11.7924359,20.6346745 11.4849196,19.0650019 C11.4343201,18.806724 11.6026767,18.5563294 11.8609546,18.5057299 C11.8911357,18.4998171 11.9218183,18.4968399 11.9525731,18.4968399 L11.9525731,18.496875 L12.7409849,18.4968945 C13.0978333,18.4968945 13.4228327,18.7022335 13.5760635,19.0245085 C13.9390062,19.7878498 14.8679046,20.2614583 16.0308854,20.2614583 C17.4265104,20.2614583 18.3970313,19.5716667 18.3970313,18.6091667 C18.3970313,17.775 17.8034896,17.29375 16.3436979,16.9488542 L14.8438021,16.5959375 C12.7102604,16.1066667 11.6996354,15.08 11.6996354,13.4277083 C11.6996354,11.6484033 13.0427289,10.3689941 15.04,10.0591961 Z M4,16.0002395 C4,10.7051346 7.45630719,6.21416865 12.244192,4.64384703 C12.5465708,4.54467338 12.8720934,4.70940372 12.971267,5.01178255 C12.9902768,5.06974292 12.9999625,5.13035418 12.9999625,5.19135233 L12.9999715,5.52956129 C12.9999715,6.04510602 12.6872556,6.50912397 12.2094045,6.70263021 C8.5257565,8.19432673 5.92857143,11.7951546 5.92857143,16.0002395 C5.92857143,20.2032967 8.52325228,23.8026794 12.2040763,25.2956893 C12.6851989,25.4908415 12.9999718,25.9582006 12.9999718,26.4773956 L12.9999907,26.7594218 C12.9999907,27.0974933 12.7259296,27.3715544 12.3878581,27.3715544 C12.3221567,27.3715544 12.2568838,27.360977 12.1945447,27.3402283 C7.43243241,25.7552253 4,21.2770246 4,16.0002395 Z M28,16.0002395 C28,21.2645311 24.5838018,25.7340154 19.8392576,27.3289216 C19.5060563,27.4409292 19.1451433,27.2616162 19.0331357,26.9284149 C19.0111648,26.8630557 18.9999603,26.7945606 18.9999603,26.7256073 L19.0000115,26.4996202 C19.0000115,25.9679152 19.3218181,25.4890999 19.8141406,25.2882795 C23.4853058,23.7907961 26.0714286,20.1963595 26.0714286,16.0002395 C26.0714286,11.8080733 23.4901769,8.2164571 19.824515,6.71643824 C19.325813,6.51236531 19.0000055,6.02701158 19.0000055,5.48817076 L19.0000249,5.28213111 C19.0000249,4.92773523 19.2873195,4.6404406 19.6417154,4.6404406 C19.7113713,4.64044059 19.7805626,4.65178189 19.8465735,4.67401936 C24.5873131,6.27105907 28,10.7386541 28,16.0002395 Z" id="Shape" fill="#FFFFFF"></path>
                </g>
            </g>
        </g>
    </g>
</svg>