<svg width="46" height="46" viewBox="0 0 46 46" fill="none" xmlns="http://www.w3.org/2000/svg">
  <path fill-rule="evenodd" clip-rule="evenodd" d="M20.6338 36.8501C20.2875 37.2455 19.9182 37.6641 19.4911 38.1613C18.5677 39.2128 17.6212 40.728 15.9822 41.1577C15.4051 41.3045 14.0547 41.1237 14.4586 39.9818C14.5971 39.6086 14.9896 38.8624 15.6359 38.7721C16.6055 38.6249 17.8983 38.7492 17.7367 37.4605C17.5058 35.6853 14.6202 35.5046 13.1312 36.4543C12.1848 37.0533 11.1691 38.4892 10.8805 39.8461C10.6266 41.0559 11.3422 42.6274 11.9655 43.3057C13.5352 45.0016 15.9476 44.9791 17.6905 44.1312C18.51 43.7354 19.191 42.9893 19.8027 42.4917C20.7723 41.7116 21.7534 40.219 22.6884 39.0207L20.6338 36.8501ZM33.5843 23.2713C32.4532 24.481 30.5027 26.2673 29.256 27.6921C27.917 29.2183 25.0545 31.9771 23.5657 33.5937L23.5424 33.6166L25.6318 35.8325C26.9591 34.4077 28.5172 32.7347 29.3599 31.9318C30.2948 31.0385 31.8416 29.1054 32.7533 28.3139C33.088 28.0314 34.6808 26.2562 35.5118 25.3968L33.5843 23.2713ZM12.6003 23.2827C13.7315 24.4925 15.6706 26.2787 16.9171 27.6921C18.2561 29.2183 21.1186 31.9771 22.6074 33.5937L23.0807 34.1027L24.7774 35.9907L24.7891 36.0021L25.1122 36.3636C25.5855 36.9065 26.0588 37.4605 26.6706 38.1502C27.5939 39.2017 28.5402 40.7166 30.1792 41.1462C30.7565 41.2934 32.1071 41.1123 31.7031 39.9704C31.5645 39.5975 31.1721 38.851 30.5256 38.7606C29.5561 38.6138 28.2634 38.7381 28.4249 37.4491C28.6558 35.6743 31.5415 35.4932 33.0304 36.4429C33.977 37.0423 34.9925 38.4781 35.281 39.8347C35.5351 41.0444 34.8193 42.616 34.1961 43.2943C32.6264 44.9902 30.2139 44.9677 28.4712 44.1197C27.6515 43.724 26.9707 42.9778 26.3589 42.4803C25.2737 41.5984 24.1542 39.8122 23.1154 38.5685L23.1037 38.5571L21.0724 36.3865C19.6527 34.8602 17.7944 32.8476 16.8364 31.9432C15.9014 31.0499 14.3548 29.1165 13.4429 28.3253C13.0851 28.0199 11.3191 26.0526 10.5458 25.25L10.5689 25.2725L12.6003 23.2827ZM25.4932 8.64126L26.0241 8.03073C26.9474 6.97924 27.894 5.46423 29.5331 5.03462C30.11 4.88764 31.4606 5.06851 31.0566 6.21045C30.918 6.58352 30.5256 7.32973 29.8791 7.42017C28.9096 7.56715 27.6169 7.44278 27.7784 8.7317C28.0093 10.5068 30.895 10.6876 32.3839 9.73794C33.3305 9.1387 34.346 7.70284 34.6348 6.3461C34.8886 5.13634 34.1732 3.5648 33.5496 2.88644C31.9798 1.19053 29.5677 1.21314 27.8247 2.06111C27.0054 2.45679 26.3242 3.20301 25.7124 3.70049C24.9623 4.29969 24.2005 5.33986 23.4618 6.33482L25.4932 8.64126ZM12.381 11.807C12.4964 11.8409 12.785 12.0557 13.1774 12.1914C13.5699 12.327 14.0662 12.3723 14.297 12.4514C14.5279 12.5305 14.5048 12.621 14.297 12.881C14.1008 13.1298 13.7315 13.5368 13.466 13.7742C13.2005 14.0116 13.0389 14.0795 12.935 14.0116C12.8311 13.9325 12.785 13.7064 12.7042 13.3672C12.6119 13.028 12.4849 12.5645 12.3926 12.2592C12.3002 11.9426 12.2656 11.7844 12.381 11.807ZM9.12605 6.84358C8.92984 6.91141 8.53741 7.18276 8.29499 7.39756C8.05262 7.61241 7.94873 7.77067 8.02954 7.90636C8.11034 8.04202 8.3758 8.14378 8.68746 8.26815C8.99908 8.39252 9.36843 8.5395 9.59928 8.68647C9.8417 8.83345 9.95711 8.96911 9.96867 8.93521C9.98019 8.90128 9.86478 8.68648 9.74933 8.32469C9.63392 7.97419 9.4954 7.48804 9.41463 7.18276C9.34535 6.87748 9.32227 6.76443 9.12605 6.84358ZM9.39155 6.09736C9.12605 6.18784 8.72206 6.41393 8.22575 6.80965C7.72943 7.20537 7.14076 7.77067 6.99071 8.06463C6.84065 8.35859 7.11767 8.39252 7.63707 8.50556C8.1565 8.62993 8.90675 8.83345 9.63392 9.30829C10.3495 9.78316 11.0421 10.5294 11.5269 11.3095C12.0116 12.1009 12.3002 12.9376 12.3926 13.6611C12.4849 14.3847 12.3695 14.9727 12.5195 15.0857C12.6696 15.1988 13.062 14.8144 13.6045 14.2717C14.147 13.729 14.8511 13.0167 15.1396 12.6323C15.4397 12.2592 15.3243 12.214 14.8742 12.1235C14.424 12.0331 13.616 11.8974 12.8542 11.4565C12.0925 11.0155 11.3653 10.2806 10.8805 9.46659C10.3957 8.66387 10.1533 7.78199 10.0264 7.21669C9.89938 6.65138 9.89939 6.38003 9.83014 6.22173C9.77242 6.07475 9.65701 6.01822 9.39155 6.09736ZM5.80186 8.31337C6.34434 7.77067 7.27928 6.86619 8.05262 6.23306C8.82595 5.59989 9.44923 5.2381 9.81858 5.14766C10.1764 5.05723 10.2803 5.22681 10.3726 5.76951C10.465 6.30088 10.5573 7.20537 10.9036 8.14378C11.2498 9.08219 11.8616 10.0545 12.6465 10.6763C13.4314 11.2982 14.4009 11.5695 15.1973 11.5922C15.9822 11.6148 16.594 11.3999 16.871 11.366C17.148 11.3321 17.1018 11.5017 16.2362 12.4175C15.3705 13.3333 13.6968 15.0066 12.5888 16.1033C11.4923 17.1887 10.9613 17.6974 10.5689 17.9348C10.1764 18.1723 9.91094 18.1497 10.0841 17.8444C10.2572 17.5278 10.869 16.9173 11.2614 16.1485C11.6538 15.3684 11.827 14.4186 11.7462 13.5255C11.6654 12.6323 11.3191 11.7956 10.7651 11.0607C10.211 10.3259 9.42615 9.69272 8.69898 9.35354C7.96029 9.01433 7.26772 8.96911 6.64444 8.99172C6.02116 9.01436 5.47868 9.1048 5.29399 9.05958C5.09777 9.01433 5.24782 8.84474 5.80186 8.31337ZM7.29081 5.88256C7.75252 5.49816 8.29499 5.03458 8.90675 4.6389C9.51848 4.24318 10.188 3.91529 10.5573 3.81353C10.9267 3.71177 11.0075 3.84747 11.0075 4.16403C11.0075 4.4806 10.9267 4.98936 10.9497 5.64514C10.9728 6.30088 11.1113 7.10361 11.4345 7.92897C11.7577 8.7543 12.2771 9.60228 12.9812 10.1563C13.6853 10.7216 14.5856 10.9929 15.4744 10.9816C16.3631 10.9703 17.2288 10.6537 17.829 10.3937C18.4292 10.1223 18.764 9.89624 18.9255 9.90752C19.0871 9.91885 19.0871 10.1563 18.5446 10.8007C17.9906 11.4451 16.8941 12.4853 15.5667 13.8421C14.2393 15.1988 12.7042 16.8721 11.8039 17.8444C10.9151 18.8167 10.6612 19.0768 10.2457 19.0316C9.83014 18.9863 9.22994 18.6132 8.92984 18.3419C8.62974 18.0592 8.60665 17.8783 8.976 17.5731C9.34535 17.2791 10.0956 16.8721 10.5342 16.1824C10.9728 15.4927 11.1113 14.4978 11.0421 13.6159C10.9728 12.7341 10.7189 11.9539 10.1072 11.2982C9.4954 10.6311 8.51429 10.0884 7.61399 9.80576C6.72524 9.52313 5.90571 9.52313 5.2709 9.68139C4.63606 9.83969 4.18591 10.1563 3.87429 10.3372C3.56263 10.5068 3.37794 10.5294 3.43566 10.3146C3.49338 10.0997 3.7704 9.63618 4.24363 9.02565C4.71687 8.42641 5.38631 7.66891 5.90571 7.14882C6.44823 6.58352 6.81757 6.27828 7.29081 5.88256ZM4.87844 33.0286C4.09358 32.7686 3.7704 31.1517 4.75147 30.1566C5.54792 29.354 7.45241 27.511 8.60665 26.3691C9.31074 25.6683 9.76089 25.2272 10.1302 24.8543L11.9539 22.9208L12.0347 22.8304L12.104 22.7626C13.2582 21.5528 15.0819 19.8682 16.2823 18.5115C17.6212 16.9851 20.4838 14.2264 21.9726 12.6097C22.2267 12.3383 22.4576 12.0896 22.6654 11.8522L20.6454 9.57964C19.2025 11.1286 17.1826 13.322 16.1785 14.2717C15.2435 15.1649 13.6968 17.0982 12.785 17.8896C12.4618 18.161 10.9728 19.8117 10.1187 20.7049L8.02954 22.7965C6.9561 23.8481 5.88263 24.9221 4.90156 25.9508C4.2898 26.5952 3.15864 28.0424 2.53536 28.5964C1.09254 29.8966 1.00021 33.5373 2.62768 34.7695C3.67804 35.561 4.03586 35.8889 4.93616 36.0021C6.54055 36.2054 7.76404 35.8325 9.20686 34.1252C10.338 32.7911 9.80706 30.1341 8.24883 29.3994C7.38317 28.9922 5.99807 29.9873 6.47131 31.2081C7.01379 32.61 6.12504 33.4355 4.87844 33.0286ZM41.2946 33.0286C42.0797 32.7686 42.4028 31.1517 41.4215 30.1566C40.6252 29.354 38.7206 27.511 37.5665 26.3691C36.8624 25.6683 36.4124 25.2272 36.043 24.8543L36.0197 24.8768L36.0314 24.8654L35.3389 24.1081L35.3273 24.0967L34.0806 22.7512L34.0692 22.74C32.9148 21.5302 31.0912 19.8456 29.9025 18.5002C28.5635 16.9738 25.701 14.2152 24.2119 12.5984C23.7849 12.1348 23.4271 11.7391 23.1037 11.3773L22.746 10.9703L21.1301 9.12741L21.107 9.1048C20.8185 8.77691 20.5184 8.42641 20.1721 8.01941C19.2487 6.96795 18.3022 5.45291 16.6632 5.02329C16.0861 4.87632 14.7356 5.05723 15.1396 6.19913C15.2782 6.57223 15.6706 7.31845 16.3169 7.40889C17.2865 7.55586 18.5793 7.43149 18.4177 8.72037C18.1868 10.4954 15.3012 10.6763 13.8123 9.72661C12.8658 9.12741 11.85 7.69152 11.5615 6.33482C11.3076 5.12505 12.0232 3.55351 12.6465 2.87512C14.2162 1.1792 16.6286 1.20185 18.3715 2.04979C19.191 2.44551 19.872 3.19172 20.4838 3.68916C21.3495 4.39016 22.2381 5.67904 23.1037 6.80965L25.1122 9.08219C26.5551 10.6198 28.8982 13.1863 30.0064 14.2378C30.9413 15.1309 32.4878 17.0643 33.3998 17.8557C33.7228 18.127 35.2117 19.7777 36.066 20.6709L38.1551 22.7626C39.2286 23.8142 40.3021 24.8882 41.283 25.9169C41.8948 26.5612 43.0376 28.0085 43.6495 28.5625C45.092 29.8626 45.1846 33.5033 43.5569 34.7356C42.5067 35.5271 42.149 35.855 41.2487 35.9682C39.6443 36.1715 38.4205 35.7986 36.978 34.0913C35.8582 32.7572 36.3778 30.1002 37.9359 29.3654C38.8016 28.9583 40.1865 29.9533 39.7135 31.1742C39.1593 32.61 40.0479 33.4355 41.2946 33.0286ZM5.51328 13.1637C4.72839 13.4237 4.40521 15.0405 5.38631 16.0354C6.18273 16.8382 8.08726 18.6811 9.2415 19.823L9.77242 20.343L9.70317 20.2752L7.53322 22.2764C6.85221 21.598 6.18273 20.9197 5.54792 20.2526C4.93616 19.6082 3.79348 18.161 3.18172 17.607C1.73894 16.3068 1.64658 12.6662 3.27405 11.4339C4.32444 10.6424 4.68223 10.3146 5.58253 10.2015C7.18692 9.99796 8.41044 10.3711 9.85322 12.0783C10.9728 13.4124 10.4534 16.0693 8.8952 16.8042C8.02953 17.2113 6.64444 16.2163 7.11767 14.9953C7.66019 13.582 6.75985 12.7454 5.51328 13.1637ZM33.8497 12.0104C33.7345 12.0444 33.4457 12.2592 33.0534 12.3949C32.661 12.5305 32.1647 12.5758 31.9339 12.6549C31.7031 12.7341 31.726 12.8245 31.9339 13.0845C32.1301 13.3333 32.4995 13.7403 32.7649 13.9777C33.0304 14.2152 33.1919 14.283 33.2958 14.2152C33.3998 14.136 33.4457 13.9099 33.5267 13.5707C33.6189 13.2315 33.7458 12.768 33.8384 12.4627C33.9307 12.1461 33.977 11.9765 33.8497 12.0104ZM37.1049 7.03578C37.3011 7.10361 37.6934 7.37496 37.9359 7.58976C38.1784 7.8046 38.282 7.96287 38.2014 8.09856C38.1204 8.23422 37.855 8.33598 37.5435 8.46035C37.2318 8.58472 36.8624 8.73169 36.6316 8.87867C36.3891 9.02565 36.2739 9.16131 36.2622 9.12741C36.2505 9.09348 36.3661 8.87867 36.4814 8.51689C36.5969 8.16639 36.7355 7.68023 36.8161 7.37495C36.8854 7.081 36.9087 6.96795 37.1049 7.03578ZM36.8394 6.30088C37.1049 6.39132 37.5089 6.61745 38.0052 7.01317C38.5015 7.40888 39.09 7.97419 39.2402 8.26815C39.3901 8.56211 39.1133 8.59604 38.5937 8.70909C38.0745 8.83345 37.324 9.03697 36.5969 9.51181C35.8812 9.98667 35.1887 10.7329 34.7041 11.513C34.2191 12.3044 33.9307 13.1411 33.8384 13.8647C33.7458 14.5882 33.8614 15.1762 33.7112 15.2892C33.5613 15.4023 33.1689 15.0179 32.6264 14.4752C32.0838 13.9325 31.3796 13.2202 31.0912 12.8358C30.7911 12.4627 30.9067 12.4175 31.3567 12.327C31.807 12.2366 32.6147 12.1009 33.3764 11.66C34.1385 11.219 34.8656 10.4842 35.3502 9.67011C35.8352 8.86735 36.0777 7.98548 36.2046 7.42017C36.3315 6.85487 36.3315 6.58352 36.4008 6.42525C36.4584 6.26695 36.574 6.21045 36.8394 6.30088ZM40.4406 8.50556C39.8981 7.96287 38.9631 7.05839 38.1897 6.42525C37.4163 5.79212 36.7931 5.4303 36.4237 5.33986C36.066 5.24942 35.9621 5.41901 35.8698 5.96171C35.7776 6.49308 35.685 7.39756 35.3389 8.33598C34.9925 9.27439 34.3807 10.2467 33.5959 10.8685C32.8109 11.4904 31.8416 11.7617 31.0449 11.7844C30.2602 11.807 29.6483 11.5922 29.3715 11.5582C29.0944 11.5243 29.1407 11.6939 30.0064 12.6097C30.872 13.5255 32.5454 15.1988 33.6536 16.2955C34.75 17.3809 35.281 17.8896 35.6737 18.127C36.066 18.3645 36.3315 18.3419 36.1583 18.0366C35.9851 17.72 35.3736 17.1095 34.9809 16.3407C34.5885 15.5606 34.4153 14.6109 34.4962 13.7177C34.5772 12.8245 34.9232 11.9878 35.4775 11.2529C36.0314 10.518 36.8161 9.88491 37.5435 9.54574C38.282 9.20656 38.9748 9.16131 39.598 9.18395C40.2211 9.20656 40.7637 9.297 40.9486 9.25178C41.1331 9.21785 40.9829 9.04826 40.4406 8.50556ZM38.9514 6.08608C38.4898 5.70165 37.9472 5.2381 37.3357 4.84239C36.7238 4.44667 36.0544 4.11881 35.685 4.01705C35.3156 3.91529 35.235 4.05098 35.235 4.36755C35.235 4.68412 35.3156 5.19288 35.2926 5.84863C35.2696 6.5044 35.1311 7.30713 34.808 8.13246C34.4846 8.95782 33.9653 9.80576 33.2612 10.3598C32.5571 10.9251 31.6568 11.1964 30.7681 11.1851C29.8791 11.1738 29.0135 10.8572 28.4133 10.5972C27.8131 10.3259 27.4783 10.0997 27.3168 10.111C27.1553 10.1223 27.1553 10.3598 27.6978 11.0042C28.2517 11.6487 29.3482 12.6888 30.6755 14.0456C32.0032 15.4023 33.5383 17.0756 34.4386 18.0479C35.3273 19.0202 35.5811 19.2803 35.9967 19.235C36.4121 19.1898 37.0126 18.8167 37.3127 18.5454C37.6128 18.2627 37.6358 18.0818 37.2664 17.7766C36.897 17.4826 36.1466 17.0756 35.7083 16.3859C35.2696 15.6962 35.1311 14.7013 35.2004 13.8194C35.2696 12.9376 35.5234 12.1574 36.1353 11.5017C36.7468 10.8346 37.7281 10.2919 38.6284 10.0093C39.517 9.72661 40.3367 9.72661 40.9716 9.88491C41.6064 10.0432 42.0564 10.3598 42.3681 10.5407C42.6799 10.7102 42.8644 10.7329 42.8068 10.518C42.7492 10.3032 42.4721 9.8397 41.9988 9.22917C41.5255 8.62993 40.856 7.87243 40.3367 7.35234C39.7941 6.78704 39.4134 6.47047 38.9514 6.08608ZM22.2267 1.688C22.4805 1.63146 22.8962 1.62017 23.2656 1.63146C23.635 1.64278 23.9697 1.67668 24.0503 1.81237C24.1313 1.93674 23.9464 2.15155 23.7619 2.35507C23.577 2.55855 23.3695 2.76207 23.1617 2.81861C22.9538 2.87512 22.746 2.80729 22.5152 2.62642C22.2844 2.45679 22.0419 2.18548 21.9613 2.01586C21.892 1.83498 21.9726 1.74451 22.2267 1.688ZM21.2917 1.37144C21.5343 1.25835 21.9959 1.16792 22.6537 1.15659C23.3116 1.14531 24.1772 1.21314 24.6622 1.29229C25.1468 1.36011 25.2737 1.42794 25.1122 1.67668C24.9506 1.92542 24.5006 2.34375 24.1542 2.67163C23.8078 2.99949 23.554 3.23694 23.3002 3.31606C23.0461 3.40653 22.7806 3.3387 22.4805 3.13518C22.1804 2.93166 21.8344 2.59248 21.5802 2.33246C21.3264 2.0724 21.1763 1.89149 21.107 1.74451C21.0494 1.59753 21.0609 1.48448 21.2917 1.37144ZM20.2991 0.941787C20.6915 0.794809 21.4304 0.62522 22.5268 0.613932C23.6117 0.602611 25.0429 0.72698 25.7933 0.851349C26.5434 0.975718 26.6014 1.07748 26.1857 1.56363C25.7816 2.04979 24.893 2.92037 24.2698 3.45175C23.6463 3.98312 23.2769 4.17532 22.8729 4.06227C22.4689 3.9379 22.0189 3.49697 21.511 2.9882C21.0032 2.49073 20.426 1.92542 20.149 1.57492C19.8836 1.22446 19.9066 1.08877 20.2991 0.941787ZM23.0578 0.00337431C23.981 0.0146959 25.2044 0.0712364 26.151 0.195606C27.0976 0.331263 27.7784 0.54607 27.6515 0.987006C27.5363 1.43926 26.6243 2.11762 25.7357 2.93166C24.8467 3.7457 23.981 4.69541 23.4155 5.00068C22.8499 5.30593 22.5961 4.97808 21.9726 4.2884C21.3495 3.59873 20.3568 2.54727 19.6412 1.89149C18.9255 1.23575 18.4869 0.975718 18.7293 0.738268C18.9832 0.489563 19.9182 0.263434 20.7031 0.127743C21.4996 0.00337419 22.1345 -0.00791366 23.0578 0.00337431ZM22.1458 44.3119C22.3999 44.3683 22.8153 44.3798 23.1847 44.3683C23.554 44.3573 23.8888 44.3233 23.9697 44.1876C24.0503 44.0633 23.8658 43.8483 23.6809 43.645C23.4964 43.4415 23.2886 43.2379 23.0807 43.1814C22.8729 43.125 22.6654 43.1925 22.4346 43.3736C22.2034 43.5432 21.9613 43.8144 21.8803 43.984C21.8111 44.1651 21.892 44.2555 22.1458 44.3119ZM21.2109 44.6287C21.4533 44.7416 21.915 44.832 22.5728 44.8434C23.231 44.8548 24.0966 44.7869 24.5812 44.7077C25.0662 44.6398 25.1931 44.5719 25.0316 44.3233C24.87 44.0744 24.4197 43.6561 24.0733 43.3282C23.7272 43.0004 23.4731 42.7632 23.2193 42.6839C22.9655 42.5935 22.7 42.6614 22.3999 42.865C22.0998 43.0682 21.7534 43.4075 21.4996 43.6675C21.2456 43.9276 21.0955 44.1083 21.0262 44.2555C20.957 44.4023 20.9685 44.5155 21.2109 44.6287ZM20.2183 45.0581C20.6107 45.2052 21.3494 45.3749 22.4459 45.3859C23.5311 45.3974 24.9623 45.2731 25.7124 45.1488C26.4628 45.0241 26.5204 44.9227 26.1047 44.4362C25.701 43.9501 24.8121 43.0796 24.1889 42.5482C23.5657 42.0167 23.1963 41.8245 22.7923 41.9377C22.3883 42.062 21.938 42.5031 21.4304 43.0118C20.9224 43.5204 20.3453 44.0858 20.0798 44.4251C19.8027 44.7755 19.8258 44.9112 20.2183 45.0581ZM22.9768 45.9967C23.9004 45.9853 25.1238 45.9288 26.0704 45.8045C27.0167 45.6688 27.6978 45.4538 27.5709 45.013C27.4554 44.5608 26.5434 43.8822 25.6547 43.0682C24.7661 42.2542 23.9004 41.3045 23.3349 40.9994C22.769 40.694 22.5152 41.0219 21.892 41.7116C21.2686 42.4013 20.276 43.4529 19.5604 44.1083C18.8448 44.7641 18.4061 45.0241 18.6485 45.2616C18.9024 45.5106 19.8374 45.7367 20.6223 45.8721C21.4187 45.9967 22.0535 46.0078 22.9768 45.9967ZM44.0532 23.5881C44.1111 23.3052 44.1341 22.853 44.1224 22.4347C44.1111 22.0164 44.0648 21.6546 43.9149 21.5641C43.7764 21.4737 43.5339 21.6772 43.2914 21.8807C43.0606 22.0955 42.8298 22.3103 42.7492 22.5477C42.6799 22.7739 42.7722 23.0113 42.9683 23.2602C43.1645 23.5088 43.4763 23.7802 43.6725 23.8706C43.8916 23.961 43.9955 23.8592 44.0532 23.5881ZM44.4112 24.6168C44.5381 24.3567 44.6534 23.8367 44.665 23.1016C44.6767 22.3669 44.5957 21.4284 44.5151 20.8857C44.4342 20.343 44.3533 20.2074 44.0765 20.3883C43.7994 20.5692 43.3031 21.0667 42.9337 21.451C42.5527 21.8354 42.2872 22.1068 42.1833 22.3895C42.091 22.6721 42.1603 22.9548 42.3911 23.2938C42.6219 23.6331 43.0146 24.0174 43.3147 24.2889C43.6148 24.5603 43.8223 24.7411 43.9839 24.8089C44.1571 24.8882 44.2843 24.8768 44.4112 24.6168ZM44.9188 25.7133C45.092 25.284 45.2769 24.4585 45.2999 23.2488C45.3228 22.0503 45.1613 20.4674 45.0227 19.6421C44.8845 18.8167 44.7573 18.7489 44.2034 19.2011C43.6378 19.6534 42.6453 20.6257 42.0334 21.3154C41.4215 22.0051 41.1907 22.4121 41.3409 22.853C41.4795 23.3052 41.9988 23.7913 42.576 24.3567C43.1529 24.9221 43.7994 25.5551 44.2034 25.8604C44.5957 26.1769 44.746 26.143 44.9188 25.7133ZM45.9923 22.6721C45.9693 21.6546 45.923 20.2978 45.7615 19.2577C45.6116 18.2062 45.3575 17.4713 44.8499 17.5957C44.3303 17.72 43.5569 18.7263 42.6106 19.7099C41.6757 20.6935 40.5792 21.6546 40.2211 22.2764C39.8634 22.8982 40.2445 23.1809 41.0408 23.8706C41.8372 24.5603 43.0493 25.6458 43.7994 26.4369C44.5498 27.2284 44.8499 27.7146 45.1267 27.4434C45.4154 27.172 45.6809 26.1319 45.8308 25.2611C45.9923 24.3907 46.0156 23.6895 45.9923 22.6721ZM1.94668 23.7802C1.88899 23.4974 1.86591 23.0452 1.87743 22.6269C1.88899 22.2086 1.93515 21.8468 2.08521 21.7563C2.2237 21.6659 2.46611 21.8694 2.70849 22.0729C2.93934 22.2877 3.1702 22.5025 3.25097 22.74C3.32025 22.9661 3.22789 23.2034 3.03167 23.4523C2.83546 23.701 2.5238 23.9724 2.32758 24.0628C2.10829 24.1531 2.0044 24.0628 1.94668 23.7802ZM1.58889 24.8203C1.46192 24.5603 1.34648 24.0403 1.33495 23.3052C1.32339 22.5704 1.4042 21.632 1.485 21.0893C1.56581 20.5466 1.64658 20.4109 1.9236 20.5918C2.20062 20.7727 2.69693 21.2701 3.06631 21.6546C3.44722 22.039 3.71268 22.3103 3.81656 22.593C3.90889 22.8756 3.83965 23.1584 3.60879 23.4974C3.37794 23.8367 2.98551 24.2096 2.68541 24.4925C2.38531 24.7639 2.17753 24.9446 2.01596 25.0125C1.84283 25.0914 1.71586 25.0804 1.58889 24.8203ZM1.08101 25.9169C0.907882 25.4872 0.723193 24.6621 0.700111 23.4523C0.677029 22.2538 0.838637 20.6709 0.97713 19.8456C1.11566 19.0202 1.24259 18.9524 1.79663 19.4046C2.36222 19.8569 3.35485 20.8292 3.96661 21.5189C4.57834 22.2086 4.80919 22.6156 4.65914 23.0565C4.52065 23.5088 4.00122 23.9949 3.4241 24.5603C2.84698 25.1254 2.20061 25.7587 1.79663 26.064C1.4042 26.3691 1.25415 26.3466 1.08101 25.9169ZM0.00758083 22.8643C0.0306629 21.8468 0.0768265 20.49 0.238435 19.4499C0.388486 18.3984 0.642388 17.6635 1.15026 17.7879C1.66966 17.9122 2.44303 18.9185 3.3895 19.9021C4.32444 20.8857 5.42096 21.8468 5.77878 22.4686C6.13657 23.0904 5.75566 23.3731 4.95925 24.0628C4.16283 24.7525 2.95087 25.8379 2.20062 26.6291C1.45036 27.4206 1.15026 27.9067 0.873243 27.6356C0.5847 27.3642 0.319205 26.3241 0.169155 25.4533C0.00758029 24.5942 -0.0155012 23.8931 0.00758083 22.8643ZM7.96029 38.0598C8.14494 37.9352 8.51429 37.777 8.80287 37.6073C9.09141 37.438 9.29918 37.2569 9.2761 37.4719C9.25302 37.698 8.99908 38.3199 8.83751 38.6363C8.6759 38.9528 8.61818 38.9757 8.4566 38.8739C8.295 38.7721 8.02953 38.5685 7.90257 38.4213C7.7756 38.2745 7.7756 38.1842 7.96029 38.0598ZM12.7157 32.011C12.6349 32.09 12.6465 32.3839 12.6234 32.6668C12.6003 32.9494 12.5426 33.2094 12.5888 33.3337C12.6349 33.458 12.7965 33.4469 13.0274 33.4015C13.2582 33.3565 13.5699 33.2887 13.7199 33.2094C13.87 33.1301 13.87 33.0397 13.743 32.8815C13.616 32.7233 13.3737 32.4857 13.1659 32.2936C12.9581 32.09 12.7965 31.9318 12.7157 32.011ZM12.2771 31.197C12.254 31.536 12.2656 32.2257 12.1963 32.8022C12.1386 33.379 11.9886 33.8312 12.0925 33.978C12.1963 34.1138 12.5426 33.9444 13.0274 33.8087C13.5006 33.673 14.1124 33.5826 14.424 33.5033C14.7356 33.4241 14.7587 33.3565 14.5163 33.0737C14.274 32.7797 13.7546 32.2596 13.3621 31.8639C12.9697 31.4681 12.7157 31.1856 12.5426 31.0385C12.3695 30.8802 12.3002 30.8577 12.2771 31.197ZM10.742 28.5853C10.6381 28.5739 10.6266 28.7097 10.8574 29.2183C11.0883 29.7272 11.573 30.6091 11.7346 31.5021C11.8962 32.3954 11.7346 33.3112 11.423 34.0687C11.1113 34.8263 10.6496 35.4253 10.188 35.9343C9.72625 36.4543 9.25302 36.884 8.68746 37.1891C8.13342 37.4944 7.4755 37.6752 7.1754 37.8109C6.8753 37.9581 6.92146 38.0598 7.2562 38.3649C7.59091 38.6703 8.20267 39.1903 8.52585 39.3825C8.84903 39.5747 8.8952 39.4504 9.04525 39.0432C9.1953 38.6363 9.44923 37.9352 9.8763 37.1666C10.2918 36.3976 10.8805 35.5496 11.5269 34.9731C12.1733 34.3966 12.8773 34.0798 13.6045 33.967C14.3317 33.8537 15.0589 33.9444 15.4397 33.933C15.8091 33.9216 15.8322 33.8312 15.3243 33.2887C14.8164 32.7458 13.7892 31.7621 13.0158 30.9481C12.2425 30.1455 11.7346 29.5122 11.3768 29.1165C11.0421 28.7436 10.8459 28.5964 10.742 28.5853ZM10.0956 27.6921C9.80706 27.726 9.66853 27.9521 9.80706 28.4157C9.95711 28.8904 10.3957 29.6026 10.7304 30.3037C11.0536 31.0049 11.2729 31.6717 11.2729 32.4518C11.2729 33.2319 11.0536 34.1252 10.4881 34.8938C9.92247 35.6743 8.98756 36.3411 8.16803 36.7483C7.34853 37.1666 6.62136 37.3248 6.26354 37.4719C5.90575 37.6187 5.90575 37.743 6.32126 38.2067C6.73677 38.6589 7.56783 39.4389 8.14495 39.8915C8.72206 40.3322 9.0568 40.4454 9.21838 40.3662C9.37999 40.2869 9.39155 40.0158 9.44923 39.5521C9.50696 39.1 9.61084 38.4553 10.0148 37.6413C10.4188 36.8387 11.1344 35.855 11.9655 35.2557C12.7965 34.6452 13.7546 34.4191 14.6087 34.4077C15.4628 34.3966 16.2246 34.6113 16.6401 34.6452C17.0441 34.6792 17.1018 34.5209 16.5247 33.8652C15.9476 33.198 14.7472 32.0336 13.7545 30.9595C12.7735 29.8855 12.0001 28.9243 11.3999 28.3589C10.7997 27.7938 10.3842 27.6581 10.0956 27.6921ZM4.9708 36.9405C5.38631 36.9065 6.07888 36.8951 6.9561 36.6126C7.83332 36.33 8.87211 35.7646 9.61084 34.9392C10.3495 34.1138 10.7882 33.0172 10.6612 31.9657C10.5227 30.9256 9.81861 29.9305 9.33382 29.2747C8.84903 28.6193 8.58357 28.2914 8.68746 27.8728C8.79131 27.4545 9.26458 26.957 9.69165 26.7648C10.1187 26.5727 10.4881 26.6745 11.5384 27.6695C12.5888 28.6757 14.3086 30.5752 15.6937 32.0789C17.0788 33.5826 18.1176 34.7017 18.6831 35.4592C19.2603 36.2168 19.3642 36.6011 18.9948 36.4994C18.6254 36.3976 17.7713 35.8096 16.9171 35.4028C16.063 35.0071 15.1973 34.8035 14.1816 35.0071C13.1774 35.2106 12.0232 35.8096 11.2498 36.7933C10.4881 37.777 10.1072 39.1225 10.0033 40.0268C9.89939 40.9316 10.0494 41.4063 9.76089 41.4741C9.47232 41.542 8.7567 41.2027 7.96029 40.6262C7.16384 40.0497 6.29818 39.2357 5.67489 38.6024C5.05161 37.9691 4.68223 37.517 4.55526 37.2569C4.42829 37.0194 4.55526 36.9744 4.9708 36.9405ZM37.9819 38.0031C37.7973 37.8788 37.428 37.7205 37.1395 37.5509C36.8507 37.3812 36.6432 37.2005 36.6662 37.4152C36.6892 37.6413 36.9433 38.2631 37.1049 38.5799C37.2664 38.8964 37.324 38.9189 37.4856 38.8171C37.6471 38.7156 37.9129 38.512 38.0398 38.3649C38.1667 38.2067 38.1667 38.1163 37.9819 38.0031ZM33.2266 31.9432C33.3075 32.0221 33.2958 32.3161 33.3188 32.599C33.3421 32.8815 33.3998 33.1415 33.3535 33.2658C33.3075 33.3901 33.1456 33.379 32.9148 33.3337C32.684 33.2887 32.3726 33.2208 32.2223 33.1415C32.0724 33.0626 32.0725 32.9719 32.1994 32.8136C32.3263 32.6554 32.5687 32.4179 32.7762 32.2257C32.9841 32.0221 33.1456 31.8753 33.2266 31.9432ZM33.6769 31.1292C33.6999 31.4681 33.6882 32.1579 33.7575 32.7347C33.8151 33.3112 33.9653 33.7634 33.8614 33.9105C33.7575 34.0459 33.4111 33.8766 32.9265 33.7409C32.4532 33.6051 31.8416 33.5148 31.5299 33.4355C31.2181 33.3565 31.1951 33.2887 31.4376 33.0058C31.6797 32.7118 32.1994 32.1918 32.5917 31.796C32.9841 31.4003 33.2382 31.1178 33.4111 30.9709C33.573 30.8124 33.6422 30.7899 33.6769 31.1292ZM35.2004 28.5175C35.3043 28.5061 35.3156 28.6418 35.0848 29.1504C34.854 29.6594 34.3693 30.5413 34.2078 31.4342C34.0459 32.3275 34.2078 33.2433 34.5192 34.0009C34.831 34.7585 35.2926 35.3575 35.7543 35.8664C36.2159 36.3865 36.6892 36.8162 37.2548 37.1212C37.809 37.4266 38.4668 37.6073 38.7669 37.743C39.067 37.8902 39.0207 37.992 38.686 38.297C38.3512 38.6024 37.7397 39.1225 37.4163 39.3146C37.0932 39.5068 37.0469 39.3825 36.897 38.9757C36.7468 38.5685 36.493 37.8673 36.066 37.0987C35.6503 36.33 35.0618 35.4818 34.4153 34.9053C33.7691 34.3288 33.065 34.012 32.3379 33.8991C31.6105 33.7859 30.8834 33.8766 30.5027 33.8652C30.1333 33.8537 30.11 33.7634 30.6179 33.2208C31.1258 32.6779 32.153 31.6942 32.9265 30.8802C33.6999 30.0776 34.2078 29.4444 34.5655 29.0486C34.9116 28.6757 35.0964 28.5286 35.2004 28.5175ZM35.8465 27.6242C36.1353 27.6581 36.2739 27.8842 36.1353 28.3478C35.9851 28.8225 35.5464 29.5347 35.2117 30.2359C34.8886 30.937 34.6694 31.6039 34.6694 32.3839C34.6694 33.164 34.8886 34.0573 35.4542 34.8263C36.0197 35.6064 36.9547 36.2733 37.7744 36.6804C38.5937 37.0987 39.3208 37.2569 39.6789 37.4041C40.0366 37.5509 40.0366 37.6752 39.6209 38.1388C39.2056 38.591 38.3746 39.3711 37.7973 39.8236C37.2201 40.2644 36.8854 40.3776 36.7238 40.2983C36.5623 40.219 36.5506 39.9479 36.493 39.4843C36.4354 39.0321 36.3315 38.3877 35.9275 37.5734C35.5234 36.7708 34.808 35.7871 33.977 35.1878C33.1456 34.5774 32.1877 34.3513 31.3337 34.3399C30.4793 34.3288 29.7176 34.5434 29.3023 34.5774C28.8982 34.6113 28.8403 34.4531 29.4175 33.7973C29.9947 33.1301 31.1951 31.9657 32.1877 30.8917C33.1689 29.8176 33.9423 28.8565 34.5425 28.2914C35.1427 27.7374 35.5697 27.5903 35.8465 27.6242ZM40.9829 36.8726C40.5675 36.8387 39.8751 36.8272 38.9977 36.5447C38.1204 36.2622 37.0816 35.6968 36.3431 34.8713C35.6044 34.0459 35.1657 32.9494 35.2926 31.8978C35.4312 30.8577 36.1353 29.8626 36.6199 29.2072C37.1049 28.5514 37.3703 28.2235 37.2664 27.8049C37.1625 27.3867 36.6892 26.8891 36.2622 26.697C35.8352 26.5048 35.4658 26.6066 34.4153 27.6017C33.3651 28.6079 31.6451 30.5073 30.2602 32.011C28.8749 33.5148 27.8364 34.6338 27.2708 35.3914C26.6936 36.149 26.5897 36.5333 26.9591 36.4315C27.3285 36.33 28.1825 35.7421 29.0368 35.3349C29.8908 34.9392 30.7565 34.7356 31.7724 34.9392C32.7762 35.1428 33.9307 35.7421 34.7041 36.7255C35.4658 37.698 35.8465 39.0546 35.9504 39.959C36.0544 40.8637 35.9045 41.3384 36.1929 41.4063C36.4814 41.4741 37.1971 41.1348 37.9935 40.5583C38.7899 39.9818 39.6556 39.1678 40.2791 38.5345C40.9023 37.9013 41.2717 37.4491 41.3986 37.1891C41.5141 36.9515 41.3869 36.9065 40.9829 36.8726ZM17.6328 6.18784C17.2057 5.89388 16.6748 5.61121 16.2593 5.55467C15.8437 5.49816 15.5321 5.67904 15.4744 5.9391C15.4166 6.19912 15.6129 6.54962 15.9361 6.76443C16.2477 6.96795 16.6863 7.03578 17.1711 7.05839C17.6559 7.09232 18.1984 7.09232 18.3022 6.93402C18.4061 6.78704 18.0714 6.48179 17.6328 6.18784ZM28.402 6.18784C28.829 5.89388 29.3599 5.61121 29.7752 5.55467C30.1909 5.49816 30.5027 5.67904 30.5603 5.9391C30.6179 6.19912 30.4217 6.54962 30.0986 6.76443C29.7869 6.96795 29.3482 7.03578 28.8636 7.05839C28.3786 7.09232 27.8364 7.09232 27.7325 6.93402C27.6286 6.78704 27.9746 6.48179 28.402 6.18784ZM29.1867 40.0383C29.6137 40.3322 30.1446 40.6148 30.5603 40.6715C30.9756 40.728 31.2874 40.5469 31.345 40.2869C31.403 40.0268 31.2068 39.6764 30.8834 39.4618C30.5719 39.2582 30.1333 39.1903 29.6483 39.1678C29.1637 39.1339 28.6211 39.1339 28.5172 39.2921C28.4133 39.4389 28.748 39.7443 29.1867 40.0383ZM17.0441 40.0383C16.617 40.3322 16.0861 40.6148 15.6706 40.6715C15.2551 40.728 14.9434 40.5469 14.8857 40.2869C14.828 40.0268 15.0242 39.6764 15.3474 39.4618C15.6591 39.2582 16.0977 39.1903 16.5824 39.1678C17.0672 39.1339 17.6097 39.1339 17.7136 39.2921C17.8175 39.4389 17.4712 39.7443 17.0441 40.0383ZM6.20585 15.8319C6.3559 15.6849 6.49439 15.391 6.58672 15.0405C6.67908 14.69 6.73677 14.2717 6.64444 13.9777C6.55211 13.6838 6.32126 13.5142 6.06732 13.5142C5.81338 13.5142 5.54792 13.6951 5.4094 13.9777C5.2709 14.2491 5.2709 14.6222 5.34015 14.9727C5.42096 15.3232 5.58253 15.6736 5.73258 15.8319C5.90571 15.9902 6.0558 15.9789 6.20585 15.8319ZM5.64025 30.4505C5.7903 30.5977 5.92883 30.8917 6.02116 31.2421C6.11348 31.5928 6.17121 32.011 6.07888 32.305C5.98652 32.599 5.75566 32.7686 5.50176 32.7686C5.24782 32.7686 4.98233 32.5875 4.84383 32.305C4.70531 32.0336 4.70531 31.6603 4.77459 31.3099C4.85536 30.9595 5.01697 30.6091 5.16702 30.4505C5.35171 30.2812 5.50176 30.2923 5.64025 30.4505ZM39.9097 15.8771C39.7595 15.7302 39.6209 15.4362 39.5287 15.0857C39.4364 14.7352 39.3788 14.3169 39.4711 14.023C39.5633 13.729 39.7941 13.5594 40.0479 13.5594C40.3021 13.5594 40.5675 13.7403 40.7061 14.023C40.8447 14.2943 40.8447 14.6674 40.7754 15.0179C40.6944 15.3684 40.5329 15.7188 40.3827 15.8771C40.1982 16.0467 40.0596 16.0354 39.9097 15.8771ZM40.4636 30.4959C40.3137 30.643 40.1752 30.937 40.0826 31.2874C39.9903 31.6378 39.9327 32.0561 40.025 32.35C40.1172 32.644 40.3484 32.8136 40.6022 32.8136C40.856 32.8136 41.1214 32.6329 41.26 32.35C41.3986 32.0789 41.3986 31.7057 41.3293 31.3553C41.2487 31.0049 41.0868 30.6541 40.9369 30.4959C40.7637 30.3377 40.6138 30.3491 40.4636 30.4959ZM40.6598 13.1637C41.4449 13.4237 41.7679 15.0405 40.7867 16.0354C39.9903 16.8382 38.0858 18.6811 36.9317 19.823L36.6086 20.1509L38.7323 22.2086C39.3901 21.5528 40.0366 20.8971 40.6481 20.2639C41.26 19.6195 42.4028 18.1723 43.0146 17.6183C44.4572 16.3181 44.5498 12.6775 42.922 11.4452C41.8719 10.6537 41.5141 10.3259 40.6138 10.2128C39.0094 10.0093 37.7857 10.3824 36.3431 12.0896C35.2233 13.4237 35.7429 16.0807 37.3011 16.8156C38.1667 17.2226 39.5516 16.2276 39.0787 15.0066C38.5131 13.582 39.4134 12.7454 40.6598 13.1637Z" fill="#F3C980"/>
</svg>
